{"glyphs":{"0":{"ha":710,"x_min":45,"x_max":664,"o":"m 664 474 q 592 104 664 223 q 355 -14 519 -14 q 115 109 184 -14 q 45 451 45 232 q 118 822 45 703 q 355 940 190 940 q 594 817 525 940 q 664 474 664 694 m 449 463 q 430 733 449 673 q 355 792 411 792 q 282 742 304 792 q 260 463 260 692 q 281 186 260 237 q 355 134 302 134 q 427 183 405 134 q 449 463 449 231 z "},"1":{"ha":710,"x_min":138,"x_max":651,"o":"m 342 934 l 498 934 l 498 151 l 651 151 l 651 0 l 138 0 l 138 151 l 294 151 l 294 698 q 138 582 225 626 l 138 763 q 342 934 262 828 z "},"2":{"ha":710,"x_min":39,"x_max":646,"o":"m 224 600 l 39 637 q 345 940 84 940 q 560 862 486 940 q 633 670 633 783 q 552 442 633 553 q 246 181 471 330 l 646 181 l 631 0 l 39 0 l 39 181 q 356 489 293 399 q 419 659 419 578 q 332 774 419 774 q 256 729 280 774 q 224 600 232 684 z "},"3":{"ha":710,"x_min":22,"x_max":640,"o":"m 220 669 l 43 702 q 349 940 113 940 q 550 873 477 940 q 622 692 622 806 q 484 486 622 545 q 640 265 640 436 q 555 57 640 128 q 337 -14 469 -14 q 131 48 218 -14 q 22 260 43 111 l 202 290 q 323 151 216 151 q 401 184 372 151 q 431 279 431 218 q 288 406 431 406 l 232 405 l 232 555 l 288 555 q 359 563 334 555 q 402 599 385 572 q 420 670 420 626 q 327 783 420 783 q 220 669 245 783 z "},"4":{"ha":710,"x_min":35,"x_max":675,"o":"m 350 940 l 571 940 l 571 376 l 675 376 l 675 218 l 571 218 l 571 0 l 368 0 l 368 218 l 35 218 l 35 376 l 350 940 m 384 365 l 384 746 l 178 365 l 384 365 z "},"5":{"ha":710,"x_min":47,"x_max":664,"o":"m 120 926 l 615 926 l 595 745 l 269 745 l 257 536 q 415 615 315 615 q 589 543 514 615 q 664 312 664 470 q 578 68 664 151 q 353 -14 492 -14 q 142 57 224 -14 q 47 248 59 128 l 232 278 q 352 151 248 151 q 467 301 467 151 q 436 409 467 368 q 349 450 406 450 q 247 378 274 450 l 87 408 l 120 926 z "},"6":{"ha":710,"x_min":71,"x_max":671,"o":"m 665 694 l 500 644 q 385 792 478 792 q 294 732 326 792 q 259 479 261 672 q 429 584 316 584 q 601 506 531 584 q 671 294 671 429 q 589 64 671 142 q 378 -14 507 -14 q 71 451 71 -14 q 156 821 71 703 q 391 940 241 940 q 571 878 500 940 q 665 694 642 816 m 473 294 q 373 435 473 435 q 268 280 268 435 q 296 170 268 206 q 370 134 324 134 q 473 294 473 134 z "},"7":{"ha":710,"x_min":80,"x_max":646,"o":"m 96 926 l 646 926 l 646 770 q 421 0 425 484 l 200 0 q 471 745 205 424 l 80 745 l 96 926 z "},"8":{"ha":710,"x_min":41,"x_max":669,"o":"m 526 505 q 669 265 669 421 q 587 67 669 149 q 345 -14 505 -14 q 116 57 192 -14 q 41 241 41 128 q 72 359 41 308 q 192 456 104 410 q 67 674 67 535 q 140 861 67 783 q 362 940 214 940 q 573 874 503 940 q 644 703 644 809 q 526 505 644 574 m 403 566 q 469 694 469 629 q 442 776 469 745 q 366 808 415 808 q 288 779 318 808 q 258 707 258 751 q 306 621 258 654 q 403 566 353 587 m 309 390 q 220 254 220 336 q 256 161 220 196 q 353 126 291 126 q 444 158 410 126 q 478 234 478 190 q 450 305 478 270 q 309 390 422 340 z "},"9":{"ha":710,"x_min":39,"x_max":640,"o":"m 60 212 l 237 246 q 336 134 255 134 q 450 397 450 134 l 450 426 q 288 342 395 342 q 103 434 168 342 q 39 638 39 526 q 113 851 39 762 q 332 940 186 940 q 528 871 461 940 q 617 696 594 802 q 640 479 640 590 q 328 -14 640 -14 q 60 212 112 -14 m 442 650 q 414 755 442 718 q 336 792 385 792 q 266 757 295 792 q 236 650 236 722 q 339 508 236 508 q 442 650 442 508 z "}," ":{"ha":259,"x_min":0,"x_max":0,"o":""},"!":{"ha":473,"x_min":115,"x_max":359,"o":"m 115 926 l 359 926 l 298 276 l 174 276 l 115 926 m 142 205 l 331 205 l 331 0 l 142 0 l 142 205 z "},"\"":{"ha":710,"x_min":136,"x_max":575,"o":"m 136 926 l 315 926 l 289 519 l 162 519 l 136 926 m 396 926 l 575 926 l 549 519 l 422 519 l 396 926 z "},"#":{"ha":710,"x_min":14,"x_max":696,"o":"m 235 926 l 355 926 l 315 658 l 452 658 l 492 926 l 612 926 l 572 658 l 696 658 l 680 546 l 555 546 l 532 397 l 657 397 l 640 284 l 515 284 l 472 0 l 353 0 l 395 284 l 258 284 l 215 0 l 95 0 l 138 284 l 14 284 l 31 397 l 155 397 l 178 546 l 53 546 l 70 658 l 195 658 l 235 926 m 298 546 l 275 397 l 412 397 l 435 546 l 298 546 z "},"$":{"ha":710,"x_min":50,"x_max":661,"o":"m 303 1003 l 408 1003 l 408 907 q 634 709 583 886 l 490 650 q 360 771 448 771 q 289 744 316 771 q 262 678 262 717 q 288 618 262 639 q 399 566 314 597 q 545 502 492 532 q 629 418 597 471 q 661 294 661 365 q 595 112 661 184 q 408 26 530 39 l 408 -99 l 303 -99 l 303 25 q 50 263 98 46 l 211 305 q 359 169 233 169 q 446 198 418 169 q 474 269 474 227 q 446 333 474 311 q 323 389 418 355 q 188 448 237 419 q 110 530 140 477 q 79 652 79 583 q 133 817 79 744 q 303 907 187 890 l 303 1003 z "},"%":{"ha":923,"x_min":38,"x_max":885,"o":"m 404 692 q 355 515 404 576 q 221 454 307 454 q 87 514 136 454 q 38 692 38 574 q 86 870 38 809 q 221 930 135 930 q 356 869 307 930 q 404 692 404 808 m 272 692 q 259 804 272 779 q 221 828 245 828 q 182 801 194 828 q 170 692 170 774 q 183 581 170 606 q 221 557 196 557 q 260 585 248 557 q 272 692 272 613 m 629 926 l 734 926 l 297 0 l 192 0 l 629 926 m 885 233 q 836 56 885 117 q 702 -5 787 -5 q 568 56 616 -5 q 519 233 519 117 q 568 411 519 350 q 702 471 617 471 q 836 412 786 471 q 885 233 885 352 m 753 233 q 740 345 753 320 q 702 369 727 369 q 663 341 675 369 q 651 233 651 313 q 664 122 651 147 q 702 98 677 98 q 742 126 730 98 q 753 233 753 154 z "},"&":{"ha":899,"x_min":64,"x_max":861,"o":"m 709 530 l 861 503 q 734 206 823 338 q 829 156 783 156 q 861 157 835 156 l 861 0 q 790 -9 823 -9 q 610 78 694 -9 q 359 -14 497 -14 q 135 68 205 -14 q 64 259 64 150 q 274 526 64 437 q 188 734 188 644 q 256 879 188 817 q 432 940 324 940 q 605 876 541 940 q 669 719 669 812 q 509 496 669 579 l 637 326 q 709 530 682 398 m 431 602 q 514 730 514 649 q 496 785 514 762 q 442 808 478 808 q 389 787 408 808 q 370 735 370 767 q 431 602 370 686 m 351 419 q 257 271 257 362 q 292 176 257 213 q 389 138 326 138 q 519 193 463 138 l 351 419 z "},"'":{"ha":473,"x_min":147,"x_max":326,"o":"m 147 926 l 326 926 l 300 519 l 174 519 l 147 926 z "},"(":{"ha":473,"x_min":70,"x_max":387,"o":"m 238 926 l 387 926 q 246 347 246 663 q 387 -232 246 31 l 238 -232 q 70 347 70 18 q 238 926 70 677 z "},")":{"ha":473,"x_min":85,"x_max":403,"o":"m 235 -232 l 85 -232 q 189 42 151 -115 q 227 347 227 199 q 189 652 227 495 q 85 926 151 809 l 235 926 q 403 347 403 675 q 235 -232 403 20 z "},"*":{"ha":710,"x_min":117,"x_max":593,"o":"m 296 926 l 412 926 l 396 755 l 536 850 l 593 747 l 441 680 l 593 613 l 536 509 l 396 604 l 412 434 l 296 434 l 313 604 l 173 509 l 117 613 l 268 680 l 117 747 l 173 850 l 313 755 l 296 926 z "},"+":{"ha":710,"x_min":71,"x_max":639,"o":"m 431 536 l 639 536 l 639 389 l 431 389 l 431 179 l 279 179 l 279 389 l 71 389 l 71 536 l 279 536 l 279 747 l 431 747 l 431 536 z "},",":{"ha":355,"x_min":83,"x_max":272,"o":"m 83 205 l 272 205 l 272 18 l 157 -219 l 83 -219 l 172 0 l 83 0 l 83 205 z "},"-":{"ha":378,"x_min":52,"x_max":328,"o":"m 52 426 l 328 426 l 328 276 l 52 276 l 52 426 z "},".":{"ha":355,"x_min":83,"x_max":272,"o":"m 83 205 l 272 205 l 272 0 l 83 0 l 83 205 z "},"/":{"ha":733,"x_min":-27,"x_max":666,"o":"m 537 926 l 666 926 l 102 -232 l -27 -232 l 537 926 z "},":":{"ha":355,"x_min":83,"x_max":272,"o":"m 83 685 l 272 685 l 272 479 l 83 480 l 83 685 m 83 205 l 272 205 l 272 0 l 83 0 l 83 205 z "},";":{"ha":355,"x_min":83,"x_max":272,"o":"m 83 685 l 272 685 l 272 479 l 83 480 l 83 685 m 83 205 l 272 205 l 272 18 l 157 -219 l 83 -219 l 172 0 l 83 0 l 83 205 z "},"<":{"ha":710,"x_min":54,"x_max":656,"o":"m 656 865 l 656 659 l 273 463 l 655 265 l 656 60 l 54 376 l 54 550 l 656 865 z "},"=":{"ha":710,"x_min":71,"x_max":639,"o":"m 639 503 l 71 503 l 71 650 l 639 650 l 639 503 m 639 276 l 71 276 l 71 422 l 639 422 l 639 276 z "},">":{"ha":710,"x_min":54,"x_max":656,"o":"m 54 60 l 54 267 l 437 463 l 56 661 l 54 865 l 656 549 l 656 376 l 54 60 z "},"?":{"ha":663,"x_min":40,"x_max":597,"o":"m 214 608 l 40 632 q 116 855 43 770 q 324 940 189 940 q 532 862 467 940 q 597 680 597 784 q 566 545 597 600 q 460 425 534 490 q 397 354 408 378 q 386 265 386 330 l 223 265 l 223 296 q 232 417 223 380 q 302 514 241 454 q 373 599 353 564 q 392 684 392 635 q 368 752 392 730 q 313 774 345 774 q 214 608 214 774 m 214 197 l 395 197 l 395 0 l 214 0 l 214 197 z "},"@":{"ha":876,"x_min":26,"x_max":851,"o":"m 552 705 l 646 705 l 606 422 q 599 340 599 367 q 629 292 599 292 q 704 360 671 292 q 738 526 738 429 q 666 767 738 680 q 460 854 594 854 q 235 750 323 854 q 146 463 146 645 q 232 182 146 290 q 476 75 317 75 q 717 150 607 75 l 754 60 q 470 -27 620 -27 q 148 105 270 -27 q 26 459 26 238 q 145 815 26 675 q 460 956 265 956 q 749 839 647 956 q 851 541 851 722 q 778 287 851 386 q 611 187 704 187 q 509 266 532 187 q 389 186 467 186 q 287 248 327 186 q 246 416 246 311 q 303 629 246 543 q 443 715 361 715 q 543 644 511 715 l 552 705 m 498 496 q 450 589 498 589 q 395 542 417 589 q 372 417 372 496 q 425 312 372 312 q 498 496 498 312 z "},"A":{"ha":710,"x_min":-27,"x_max":720,"o":"m 251 926 l 456 926 l 720 0 l 512 0 l 466 191 l 205 191 l 160 0 l -27 0 l 251 926 m 427 350 l 334 728 l 244 350 l 427 350 z "},"B":{"ha":781,"x_min":87,"x_max":730,"o":"m 87 926 l 404 926 q 571 908 515 926 q 666 831 628 890 q 705 682 705 771 q 572 483 705 527 q 730 256 730 427 q 687 103 730 165 q 582 21 644 41 q 404 0 519 0 l 87 0 l 87 926 m 283 552 l 349 552 q 472 587 447 552 q 498 668 498 623 q 472 743 498 710 q 363 776 447 776 l 283 776 l 283 552 m 283 159 l 382 159 q 523 280 523 159 q 488 375 523 347 q 382 402 453 402 l 283 402 l 283 159 z "},"C":{"ha":758,"x_min":54,"x_max":726,"o":"m 538 337 l 726 326 q 630 80 715 175 q 404 -14 545 -14 q 144 113 233 -14 q 54 462 54 239 q 143 813 54 686 q 407 940 232 940 q 722 582 696 940 l 536 568 q 408 774 529 774 q 306 708 344 774 q 269 450 269 642 q 303 215 269 279 q 407 151 338 151 q 538 337 518 151 z "},"D":{"ha":781,"x_min":87,"x_max":734,"o":"m 87 926 l 307 926 q 538 887 449 926 q 681 746 627 849 q 734 467 734 643 q 702 246 734 342 q 616 94 669 149 q 497 19 564 38 q 331 0 431 0 l 87 0 l 87 926 m 291 767 l 291 159 l 326 159 q 435 186 396 159 q 496 281 473 214 q 519 476 519 349 q 494 658 519 594 q 430 744 469 722 q 326 767 392 767 l 291 767 z "},"E":{"ha":663,"x_min":87,"x_max":650,"o":"m 87 926 l 650 926 l 650 767 l 291 767 l 291 552 l 570 552 l 570 393 l 291 393 l 291 165 l 650 165 l 650 0 l 87 0 l 87 926 z "},"F":{"ha":615,"x_min":87,"x_max":637,"o":"m 87 926 l 637 926 l 637 767 l 291 767 l 291 525 l 557 525 l 557 366 l 291 366 l 291 0 l 87 0 l 87 926 z "},"G":{"ha":805,"x_min":54,"x_max":734,"o":"m 412 494 l 734 494 l 734 0 l 648 0 l 621 106 q 397 -14 547 -14 q 147 110 239 -14 q 54 445 54 235 q 145 807 54 673 q 415 940 237 940 q 734 623 699 940 l 551 593 q 419 774 532 774 q 310 707 351 774 q 269 453 269 640 q 309 219 269 287 q 426 151 349 151 q 551 334 550 151 l 412 334 l 412 494 z "},"H":{"ha":804,"x_min":87,"x_max":717,"o":"m 87 926 l 291 926 l 291 552 l 513 552 l 513 926 l 717 926 l 717 0 l 513 0 l 513 378 l 291 378 l 291 0 l 87 0 l 87 926 z "},"I":{"ha":378,"x_min":87,"x_max":291,"o":"m 87 926 l 291 926 l 291 0 l 87 0 l 87 926 z "},"J":{"ha":450,"x_min":-7,"x_max":367,"o":"m 163 926 l 367 926 l 367 311 q 350 129 367 194 q 278 24 332 63 q 117 -14 224 -14 q -7 0 71 -14 l -7 170 q 75 161 42 161 q 146 190 129 161 q 163 311 163 218 l 163 926 z "},"K":{"ha":733,"x_min":87,"x_max":741,"o":"m 87 926 l 291 926 l 291 540 l 516 926 l 722 926 l 490 585 l 741 0 l 531 0 l 368 427 l 291 315 l 291 0 l 87 0 l 87 926 z "},"L":{"ha":591,"x_min":87,"x_max":589,"o":"m 87 926 l 291 926 l 291 174 l 589 174 l 589 0 l 87 0 l 87 926 z "},"M":{"ha":1041,"x_min":87,"x_max":954,"o":"m 87 926 l 386 926 l 517 354 l 664 926 l 954 926 l 954 0 l 763 0 l 763 775 l 574 0 l 426 0 l 253 775 l 253 0 l 87 0 l 87 926 z "},"N":{"ha":781,"x_min":80,"x_max":701,"o":"m 80 926 l 306 926 l 544 351 l 544 926 l 701 926 l 701 0 l 519 0 l 237 670 l 237 0 l 80 0 l 80 926 z "},"O":{"ha":781,"x_min":54,"x_max":726,"o":"m 726 463 q 391 -14 726 -14 q 139 107 224 -14 q 54 463 54 229 q 390 940 54 940 q 640 821 554 940 q 726 463 726 701 m 512 463 q 483 712 512 650 q 390 774 454 774 q 298 712 327 774 q 269 463 269 650 q 297 216 269 280 q 390 151 326 151 q 483 213 453 151 q 512 463 512 275 z "},"P":{"ha":710,"x_min":87,"x_max":700,"o":"m 87 926 l 354 926 q 542 905 475 926 q 654 813 609 885 q 700 636 700 742 q 663 468 700 534 q 562 372 627 401 q 363 342 497 342 l 291 342 l 291 0 l 87 0 l 87 926 m 291 776 l 291 502 l 354 502 q 461 541 437 502 q 486 641 486 579 q 467 725 486 693 q 424 767 448 758 q 354 776 399 776 l 291 776 z "},"Q":{"ha":781,"x_min":54,"x_max":726,"o":"m 692 -33 l 692 -179 q 606 -191 648 -191 q 421 -13 432 -191 q 382 -14 396 -14 q 143 101 233 -14 q 54 463 54 216 q 390 940 54 940 q 641 819 556 940 q 726 471 726 699 q 689 198 726 308 q 557 26 651 87 q 574 -28 557 -14 q 623 -43 590 -43 q 692 -33 654 -43 m 512 463 q 483 712 512 650 q 390 774 454 774 q 298 712 327 774 q 269 463 269 650 q 297 216 269 280 q 390 151 326 151 q 483 213 453 151 q 512 463 512 275 z "},"R":{"ha":757,"x_min":87,"x_max":738,"o":"m 87 926 l 378 926 q 508 918 463 926 q 600 876 553 910 q 672 782 646 842 q 698 649 698 723 q 568 405 698 475 l 738 0 l 516 0 l 393 366 l 291 366 l 291 0 l 87 0 l 87 926 m 291 776 l 291 516 l 380 516 q 500 650 500 516 q 482 725 500 696 q 441 765 465 755 q 372 776 418 776 l 291 776 z "},"S":{"ha":710,"x_min":22,"x_max":672,"o":"m 654 724 l 486 660 q 354 774 450 774 q 283 749 309 774 q 257 690 257 724 q 288 627 257 650 q 417 566 319 604 q 558 500 507 532 q 641 411 609 467 q 672 281 672 355 q 583 69 672 152 q 344 -14 494 -14 q 22 240 92 -14 l 200 291 q 349 151 233 151 q 434 179 401 151 q 467 251 467 206 q 444 312 467 285 q 338 368 421 338 q 180 437 232 406 q 94 525 127 468 q 60 656 60 583 q 140 860 60 781 q 353 940 220 940 q 654 724 594 940 z "},"T":{"ha":544,"x_min":-16,"x_max":561,"o":"m -16 926 l 561 926 l 561 752 l 372 752 l 372 0 l 168 0 l 168 752 l -16 752 l -16 926 z "},"U":{"ha":804,"x_min":87,"x_max":717,"o":"m 87 926 l 291 926 l 291 397 q 301 241 291 285 q 343 174 311 197 q 422 151 376 151 q 503 176 473 151 q 540 243 533 201 q 547 397 547 284 l 547 926 l 717 926 l 717 405 q 699 172 717 249 q 607 41 681 96 q 405 -14 534 -14 q 215 26 284 -14 q 117 139 146 66 q 87 397 87 212 l 87 926 z "},"V":{"ha":639,"x_min":-19,"x_max":659,"o":"m -19 926 l 195 926 l 337 220 l 484 926 l 659 926 l 431 -5 l 203 0 l -19 926 z "},"W":{"ha":994,"x_min":-7,"x_max":1004,"o":"m -7 926 l 201 926 l 298 285 l 419 926 l 606 926 l 720 283 l 833 926 l 1004 926 l 806 -5 l 623 -5 l 500 639 l 374 -5 l 193 -5 l -7 926 z "},"X":{"ha":663,"x_min":-21,"x_max":684,"o":"m 7 926 l 233 926 l 344 685 l 460 926 l 655 926 l 437 507 l 684 0 l 460 0 l 326 302 l 174 0 l -21 0 l 233 475 l 7 926 z "},"Y":{"ha":615,"x_min":-39,"x_max":654,"o":"m -39 926 l 184 926 l 315 588 l 455 926 l 654 926 l 397 391 l 397 0 l 193 0 l 193 391 l -39 926 z "},"Z":{"ha":639,"x_min":1,"x_max":637,"o":"m 30 926 l 625 926 l 625 781 l 237 165 l 637 165 l 637 0 l 1 0 l 1 142 l 391 760 l 30 760 l 30 926 z "},"[":{"ha":473,"x_min":102,"x_max":387,"o":"m 102 926 l 387 926 l 387 839 l 271 839 l 271 -145 l 387 -145 l 387 -232 l 102 -232 l 102 926 z "},"\\":{"ha":734,"x_min":67,"x_max":760,"o":"m 196 926 l 760 -232 l 632 -232 l 67 926 l 196 926 z "},"]":{"ha":473,"x_min":86,"x_max":372,"o":"m 372 -232 l 86 -232 l 86 -145 l 203 -145 l 203 839 l 86 839 l 86 926 l 372 926 l 372 -232 z "},"^":{"ha":694,"x_min":21,"x_max":673,"o":"m 204 487 l 21 487 l 232 931 l 462 931 l 673 487 l 490 487 l 347 791 l 204 487 z "},"_":{"ha":694,"x_min":0,"x_max":694,"o":"m 0 -79 l 694 -79 l 694 -202 l 0 -202 l 0 -79 z "},"`":{"ha":639,"x_min":134,"x_max":441,"o":"m 441 816 l 385 759 l 134 916 l 210 1029 l 441 816 z "},"a":{"ha":663,"x_min":50,"x_max":604,"o":"m 254 467 l 73 485 q 160 644 85 588 q 349 699 235 699 q 504 662 446 699 q 577 576 562 625 q 593 425 593 528 l 593 152 q 604 0 593 24 l 427 0 q 418 105 418 28 q 230 -14 355 -14 q 100 34 150 -14 q 50 173 50 81 q 125 350 50 288 q 402 425 201 413 l 402 451 q 388 546 402 519 q 334 572 374 572 q 254 467 261 572 m 402 328 q 283 291 319 318 q 248 198 248 263 q 311 111 248 111 q 374 150 346 111 q 402 294 402 189 l 402 328 z "},"b":{"ha":663,"x_min":71,"x_max":622,"o":"m 71 926 l 258 926 l 258 621 q 401 694 314 694 q 559 609 496 694 q 622 347 622 524 q 560 81 622 176 q 380 -14 498 -14 q 220 90 263 -14 q 184 0 200 54 l 71 0 l 71 926 m 258 284 q 276 154 258 190 q 338 118 294 118 q 406 169 388 118 q 425 342 425 220 q 407 513 425 459 q 342 568 389 568 q 258 442 258 568 l 258 284 z "},"c":{"ha":615,"x_min":41,"x_max":582,"o":"m 582 433 l 404 426 q 384 521 400 489 q 329 553 368 553 q 233 351 233 553 q 256 187 233 234 q 326 140 279 140 q 404 267 397 140 l 582 256 q 313 -14 558 -14 q 111 75 181 -14 q 41 340 41 164 q 114 607 41 515 q 321 699 188 699 q 582 433 561 699 z "},"d":{"ha":663,"x_min":41,"x_max":593,"o":"m 406 926 l 593 926 l 593 0 l 416 0 l 416 113 q 260 -9 373 -9 q 96 87 150 -9 q 41 340 41 183 q 103 606 41 518 q 269 694 165 694 q 406 621 365 694 l 406 926 m 406 398 q 384 533 406 499 q 322 568 363 568 q 257 520 274 568 q 239 323 239 473 q 258 168 239 212 q 321 123 277 123 q 381 153 357 123 q 406 277 406 183 l 406 398 z "},"e":{"ha":639,"x_min":41,"x_max":597,"o":"m 597 311 l 238 311 l 238 273 q 263 149 238 180 q 329 118 288 118 q 427 235 416 118 l 597 224 q 326 -14 552 -14 q 113 80 186 -14 q 41 332 41 174 q 118 605 41 511 q 324 699 195 699 q 519 615 441 699 q 597 311 597 532 m 417 421 q 418 440 418 433 q 328 572 418 572 q 239 421 240 572 l 417 421 z "},"f":{"ha":402,"x_min":25,"x_max":414,"o":"m 286 685 l 407 685 l 407 534 l 286 534 l 286 0 l 103 0 l 103 534 l 25 534 l 25 685 l 103 685 q 119 836 104 786 q 183 924 134 886 q 318 962 233 962 q 414 956 368 962 l 414 806 q 372 809 391 809 q 301 786 317 809 q 286 685 286 762 z "},"g":{"ha":639,"x_min":29,"x_max":653,"o":"m 653 798 l 653 673 q 612 678 631 678 q 539 616 552 678 q 590 479 590 563 q 521 331 590 387 q 342 275 452 275 q 253 286 300 275 q 208 230 208 262 q 233 196 208 204 q 370 182 258 188 q 525 161 473 176 q 610 103 576 147 q 644 -13 644 59 q 310 -242 644 -242 q 29 -79 29 -242 q 141 49 29 12 q 52 168 52 91 q 170 318 52 256 q 68 489 68 368 q 138 645 68 591 q 326 699 208 699 q 472 669 404 699 q 509 773 479 742 q 600 804 538 804 q 653 798 630 804 m 393 486 q 332 596 393 596 q 280 569 296 596 q 265 481 265 543 q 331 377 265 377 q 378 401 364 377 q 393 486 393 426 m 247 30 q 186 -53 186 2 q 344 -122 186 -122 q 479 -50 479 -122 q 464 -7 479 -24 q 427 14 450 9 q 332 22 404 18 q 247 30 289 24 z "},"h":{"ha":663,"x_min":71,"x_max":602,"o":"m 71 926 l 262 926 l 262 612 q 430 699 313 699 q 540 667 500 699 q 591 584 581 634 q 602 439 602 534 l 602 0 l 411 0 l 411 439 q 398 529 411 507 q 347 551 386 551 q 285 530 308 551 q 262 434 262 509 l 262 0 l 71 0 l 71 926 z "},"i":{"ha":331,"x_min":68,"x_max":262,"o":"m 262 741 l 68 741 l 68 930 l 262 930 l 262 741 m 70 685 l 261 685 l 261 0 l 70 0 l 70 685 z "},"j":{"ha":331,"x_min":-12,"x_max":269,"o":"m 269 741 l 75 741 l 75 930 l 269 930 l 269 741 m 77 685 l 268 685 l 268 22 q 256 -136 268 -83 q 201 -220 245 -189 q 91 -251 158 -251 q -12 -241 48 -251 l -12 -85 q 14 -87 3 -87 q 66 -66 56 -87 q 77 28 77 -45 l 77 685 z "},"k":{"ha":639,"x_min":71,"x_max":645,"o":"m 71 926 l 262 926 l 262 420 l 454 685 l 628 685 l 455 455 l 645 0 l 439 0 l 332 318 l 262 222 l 262 0 l 71 0 l 71 926 z "},"l":{"ha":331,"x_min":70,"x_max":261,"o":"m 70 926 l 261 926 l 261 0 l 70 0 l 70 926 z "},"m":{"ha":970,"x_min":71,"x_max":909,"o":"m 71 685 l 252 685 l 252 591 q 418 699 300 699 q 566 591 540 699 q 732 699 612 699 q 839 674 799 699 q 894 607 878 650 q 909 448 909 565 l 909 0 l 719 0 l 719 428 q 708 528 719 505 q 660 551 697 551 q 602 520 615 551 q 588 399 588 490 l 588 0 l 397 0 l 397 434 q 386 529 397 507 q 338 551 376 551 q 277 519 292 551 q 262 399 262 488 l 262 0 l 71 0 l 71 685 z "},"n":{"ha":663,"x_min":71,"x_max":602,"o":"m 71 685 l 252 685 l 252 591 q 423 699 299 699 q 534 668 490 699 q 590 591 578 638 q 602 449 602 545 l 602 0 l 411 0 l 411 449 q 393 534 411 518 q 346 551 376 551 q 278 519 294 551 q 262 401 262 488 l 262 0 l 71 0 l 71 685 z "},"o":{"ha":639,"x_min":41,"x_max":598,"o":"m 598 342 q 320 -14 598 -14 q 41 342 41 -14 q 320 699 41 699 q 598 342 598 699 m 401 342 q 383 519 401 473 q 320 566 365 566 q 258 522 277 566 q 239 342 239 478 q 255 168 239 217 q 320 119 271 119 q 384 168 367 119 q 401 342 401 216 z "},"p":{"ha":663,"x_min":71,"x_max":622,"o":"m 71 685 l 247 685 l 247 583 q 403 694 303 694 q 559 610 497 694 q 622 354 622 526 q 561 82 622 174 q 389 -9 500 -9 q 258 51 310 -9 l 258 -232 l 71 -232 l 71 685 m 258 280 q 274 152 258 182 q 339 123 290 123 q 404 162 382 123 q 425 353 425 201 q 406 524 425 479 q 345 568 388 568 q 283 540 309 568 q 258 410 258 512 l 258 280 z "},"q":{"ha":663,"x_min":41,"x_max":593,"o":"m 488 685 l 593 685 q 587 510 587 634 l 587 -232 l 399 -232 l 399 71 q 258 -9 345 -9 q 101 80 161 -9 q 41 332 41 170 q 105 610 41 526 q 273 694 168 694 q 435 596 375 694 q 488 685 466 630 m 399 412 q 379 538 399 507 q 318 568 359 568 q 255 531 271 568 q 238 359 238 493 q 256 165 238 208 q 319 123 273 123 q 377 158 356 123 q 399 311 399 193 l 399 412 z "},"r":{"ha":426,"x_min":71,"x_max":433,"o":"m 71 685 l 239 685 l 239 519 q 401 694 284 694 q 433 690 415 694 l 433 504 q 401 507 412 507 q 262 295 262 507 l 262 0 l 71 0 l 71 685 z "},"s":{"ha":568,"x_min":26,"x_max":543,"o":"m 522 520 l 386 479 q 286 572 359 572 q 226 513 226 572 q 248 461 226 479 q 340 419 271 444 q 456 370 419 391 q 517 307 492 349 q 543 210 543 264 q 474 50 543 115 q 283 -14 406 -14 q 26 190 52 -14 l 178 214 q 286 112 197 112 q 362 176 362 112 q 340 227 362 210 q 253 265 317 245 q 91 357 135 303 q 47 481 47 410 q 116 640 47 580 q 290 699 186 699 q 522 520 473 699 z "},"t":{"ha":426,"x_min":23,"x_max":420,"o":"m 99 895 l 285 901 l 285 685 l 411 685 l 411 534 l 285 534 l 285 283 q 288 192 285 213 q 308 158 291 172 q 366 144 326 144 q 420 145 388 144 l 420 0 q 304 -14 357 -14 q 171 19 217 -14 q 112 102 125 52 q 99 262 99 153 l 99 534 l 23 534 l 23 685 l 99 685 l 99 895 z "},"u":{"ha":663,"x_min":61,"x_max":593,"o":"m 61 685 l 252 685 l 252 245 q 264 157 252 179 q 317 134 277 134 q 374 153 355 134 q 397 203 393 171 q 401 336 401 235 l 401 685 l 593 685 l 593 0 l 413 0 l 413 94 q 332 5 372 24 q 237 -14 292 -14 q 123 16 163 -14 q 73 94 84 47 q 61 239 61 140 l 61 685 z "},"v":{"ha":497,"x_min":-15,"x_max":517,"o":"m -15 685 l 169 685 l 263 280 l 359 685 l 517 685 l 330 0 l 178 0 l -15 685 z "},"w":{"ha":804,"x_min":-12,"x_max":822,"o":"m -12 685 l 174 685 l 255 269 l 332 685 l 517 685 l 580 269 l 672 685 l 822 685 l 650 0 l 490 0 l 402 466 l 316 0 l 161 0 l -12 685 z "},"x":{"ha":521,"x_min":-34,"x_max":554,"o":"m -7 685 l 200 685 l 273 526 l 361 685 l 527 685 l 350 382 l 554 0 l 347 0 l 247 205 l 132 0 l -34 0 l 169 351 l -7 685 z "},"y":{"ha":497,"x_min":-19,"x_max":518,"o":"m -19 685 l 172 685 l 264 267 l 353 685 l 518 685 l 312 -11 q 261 -151 282 -111 q 198 -217 240 -191 q 91 -243 156 -243 q 9 -232 51 -243 l 9 -81 q 63 -85 38 -85 q 139 -67 119 -85 q 178 13 160 -49 l -19 685 z "},"z":{"ha":497,"x_min":28,"x_max":486,"o":"m 52 685 l 479 685 l 479 562 l 224 136 l 486 136 l 486 0 l 28 0 l 28 136 l 276 549 l 52 549 l 52 685 z "},"{":{"ha":473,"x_min":60,"x_max":370,"o":"m 370 924 l 370 833 q 308 813 321 832 q 294 714 294 795 l 294 563 q 282 409 294 439 q 213 356 270 379 q 282 303 269 334 q 294 149 294 273 l 294 -20 q 307 -119 294 -100 q 370 -140 320 -137 l 370 -231 q 307 -232 323 -232 q 213 -223 244 -232 q 154 -174 181 -214 q 127 -20 127 -134 l 127 218 q 114 281 127 265 q 60 300 102 298 l 60 413 q 117 434 107 414 q 127 557 127 453 l 127 714 q 166 887 127 848 q 307 926 205 926 q 370 924 327 926 z "},"|":{"ha":694,"x_min":243,"x_max":451,"o":"m 243 926 l 451 926 l 451 -231 l 243 -231 l 243 926 z "},"}":{"ha":473,"x_min":102,"x_max":413,"o":"m 102 -231 l 102 -140 q 165 -119 153 -137 q 178 -20 178 -101 l 178 149 q 191 303 178 273 q 260 356 203 333 q 191 409 203 378 q 178 563 178 439 l 178 714 q 165 813 178 794 q 102 833 153 832 l 102 924 q 165 926 150 926 q 276 910 245 926 q 326 854 307 894 q 345 714 345 814 l 345 557 l 346 494 q 358 431 346 447 q 413 413 371 414 l 413 300 q 363 286 378 299 q 347 254 349 273 q 345 155 345 234 l 345 -20 q 328 -155 345 -112 q 276 -215 311 -199 q 167 -232 241 -232 q 102 -231 147 -232 z "},"~":{"ha":926,"x_min":129,"x_max":800,"o":"m 230 767 l 129 851 q 336 1040 205 1040 q 492 993 382 1040 q 599 958 574 958 q 699 1044 655 958 l 800 960 q 583 774 729 774 q 429 823 541 774 q 327 853 359 853 q 230 767 274 853 z "},"Ä":{"ha":710,"x_min":-27,"x_max":720,"o":"m 251 926 l 456 926 l 720 0 l 512 0 l 466 191 l 205 191 l 160 0 l -27 0 l 251 926 m 427 350 l 334 728 l 244 350 l 427 350 m 388 1086 q 411 1138 388 1116 q 465 1159 433 1159 q 520 1138 498 1159 q 543 1086 543 1116 q 518 1033 543 1053 q 465 1013 494 1013 q 412 1034 436 1013 q 388 1086 388 1054 m 159 1086 q 181 1138 159 1116 q 236 1159 204 1159 q 291 1138 268 1159 q 313 1086 313 1116 q 289 1034 313 1054 q 236 1013 265 1013 q 183 1033 208 1013 q 159 1086 159 1053 z "},"Å":{"ha":710,"x_min":-27,"x_max":720,"o":"m 251 926 l 456 926 l 720 0 l 512 0 l 466 191 l 205 191 l 160 0 l -27 0 l 251 926 m 427 350 l 334 728 l 244 350 l 427 350 m 224 1115 q 263 1209 224 1171 q 355 1247 302 1247 q 446 1210 407 1247 q 486 1115 486 1172 q 445 1021 486 1057 q 355 985 404 985 q 265 1021 306 985 q 224 1115 224 1057 m 302 1116 q 319 1076 302 1091 q 355 1061 336 1061 q 391 1076 374 1061 q 407 1116 407 1091 q 391 1155 407 1139 q 355 1171 375 1171 q 318 1155 334 1171 q 302 1116 302 1139 z "},"Ç":{"ha":758,"x_min":54,"x_max":726,"o":"m 431 -184 q 410 -143 431 -159 q 351 -127 389 -127 l 308 -127 l 349 -11 q 54 462 54 43 q 143 813 54 686 q 407 940 232 940 q 722 582 696 940 l 536 568 q 408 774 529 774 q 306 708 344 774 q 269 450 269 642 q 303 215 269 279 q 407 151 338 151 q 538 337 518 151 l 726 326 q 643 96 718 193 q 426 -14 568 -1 l 408 -71 q 435 -69 425 -69 q 516 -100 484 -69 q 549 -180 549 -131 q 511 -266 549 -233 q 405 -300 473 -300 q 251 -250 330 -300 l 274 -188 q 387 -223 340 -223 q 431 -184 431 -223 z "},"É":{"ha":663,"x_min":87,"x_max":650,"o":"m 87 926 l 650 926 l 650 767 l 291 767 l 291 552 l 570 552 l 570 393 l 291 393 l 291 165 l 650 165 l 650 0 l 87 0 l 87 926 m 260 1054 l 491 1267 l 567 1154 l 317 997 l 260 1054 z "},"Ñ":{"ha":781,"x_min":80,"x_max":701,"o":"m 80 926 l 306 926 l 544 351 l 544 926 l 701 926 l 701 0 l 519 0 l 237 670 l 237 0 l 80 0 l 80 926 m 564 1156 l 624 1111 q 469 1007 555 1007 q 383 1031 436 1007 q 300 1057 323 1057 q 236 1015 274 1057 l 178 1060 q 326 1157 253 1157 q 416 1133 360 1157 q 498 1107 477 1107 q 564 1156 529 1107 z "},"Ö":{"ha":781,"x_min":54,"x_max":726,"o":"m 726 463 q 391 -14 726 -14 q 139 107 224 -14 q 54 463 54 229 q 390 940 54 940 q 640 821 554 940 q 726 463 726 701 m 512 463 q 483 712 512 650 q 390 774 454 774 q 298 712 327 774 q 269 463 269 650 q 297 216 269 280 q 390 151 326 151 q 483 213 453 151 q 512 463 512 275 m 433 1086 q 455 1138 433 1116 q 510 1159 478 1159 q 565 1138 543 1159 q 587 1086 587 1116 q 563 1033 587 1053 q 510 1013 538 1013 q 457 1034 481 1013 q 433 1086 433 1054 m 203 1086 q 226 1138 203 1116 q 281 1159 249 1159 q 335 1138 313 1159 q 358 1086 358 1116 q 334 1034 358 1054 q 281 1013 310 1013 q 228 1033 253 1013 q 203 1086 203 1053 z "},"Ü":{"ha":804,"x_min":87,"x_max":717,"o":"m 87 926 l 291 926 l 291 397 q 301 241 291 285 q 343 174 311 197 q 422 151 376 151 q 503 176 473 151 q 540 243 533 201 q 547 397 547 284 l 547 926 l 717 926 l 717 405 q 699 172 717 249 q 607 41 681 96 q 405 -14 534 -14 q 215 26 284 -14 q 117 139 146 66 q 87 397 87 212 l 87 926 m 444 1086 q 467 1138 444 1116 q 522 1159 490 1159 q 576 1138 554 1159 q 599 1086 599 1116 q 574 1033 599 1053 q 522 1013 550 1013 q 468 1034 492 1013 q 444 1086 444 1054 m 215 1086 q 238 1138 215 1116 q 292 1159 260 1159 q 347 1138 324 1159 q 370 1086 370 1116 q 346 1034 370 1054 q 292 1013 321 1013 q 240 1033 264 1013 q 215 1086 215 1053 z "},"á":{"ha":663,"x_min":50,"x_max":604,"o":"m 254 467 l 73 485 q 160 644 85 588 q 349 699 235 699 q 504 662 446 699 q 577 576 562 625 q 593 425 593 528 l 593 152 q 604 0 593 24 l 427 0 q 418 105 418 28 q 230 -14 355 -14 q 100 34 150 -14 q 50 173 50 81 q 125 350 50 288 q 402 425 201 413 l 402 451 q 388 546 402 519 q 334 572 374 572 q 254 467 261 572 m 402 328 q 283 291 319 318 q 248 198 248 263 q 311 111 248 111 q 374 150 346 111 q 402 294 402 189 l 402 328 m 247 816 l 478 1029 l 554 916 l 304 759 l 247 816 z "},"à":{"ha":663,"x_min":50,"x_max":604,"o":"m 254 467 l 73 485 q 160 644 85 588 q 349 699 235 699 q 504 662 446 699 q 577 576 562 625 q 593 425 593 528 l 593 152 q 604 0 593 24 l 427 0 q 418 105 418 28 q 230 -14 355 -14 q 100 34 150 -14 q 50 173 50 81 q 125 350 50 288 q 402 425 201 413 l 402 451 q 388 546 402 519 q 334 572 374 572 q 254 467 261 572 m 402 328 q 283 291 319 318 q 248 198 248 263 q 311 111 248 111 q 374 150 346 111 q 402 294 402 189 l 402 328 m 454 816 l 397 759 l 147 916 l 223 1029 l 454 816 z "},"â":{"ha":663,"x_min":38,"x_max":604,"o":"m 254 467 l 73 485 q 160 644 85 588 q 349 699 235 699 q 504 662 446 699 q 577 576 562 625 q 593 425 593 528 l 593 152 q 604 0 593 24 l 427 0 q 418 105 418 28 q 230 -14 355 -14 q 100 34 150 -14 q 50 173 50 81 q 125 350 50 288 q 402 425 201 413 l 402 451 q 388 546 402 519 q 334 572 374 572 q 254 467 261 572 m 402 328 q 283 291 319 318 q 248 198 248 263 q 311 111 248 111 q 374 150 346 111 q 402 294 402 189 l 402 328 m 38 768 l 310 980 l 582 768 l 434 768 l 310 848 l 186 768 l 38 768 z "},"ä":{"ha":663,"x_min":50,"x_max":604,"o":"m 254 467 l 73 485 q 160 644 85 588 q 349 699 235 699 q 504 662 446 699 q 577 576 562 625 q 593 425 593 528 l 593 152 q 604 0 593 24 l 427 0 q 418 105 418 28 q 230 -14 355 -14 q 100 34 150 -14 q 50 173 50 81 q 125 350 50 288 q 402 425 201 413 l 402 451 q 388 546 402 519 q 334 572 374 572 q 254 467 261 572 m 402 328 q 283 291 319 318 q 248 198 248 263 q 311 111 248 111 q 374 150 346 111 q 402 294 402 189 l 402 328 m 383 861 q 406 912 383 891 q 460 934 429 934 q 515 912 493 934 q 538 861 538 891 q 513 808 538 828 q 460 788 489 788 q 407 808 431 788 q 383 861 383 829 m 154 861 q 177 912 154 891 q 231 934 199 934 q 286 912 263 934 q 309 861 309 891 q 284 808 309 829 q 231 788 260 788 q 179 808 203 788 q 154 861 154 827 z "},"ã":{"ha":663,"x_min":50,"x_max":604,"o":"m 254 467 l 73 485 q 160 644 85 588 q 349 699 235 699 q 504 662 446 699 q 577 576 562 625 q 593 425 593 528 l 593 152 q 604 0 593 24 l 427 0 q 418 105 418 28 q 230 -14 355 -14 q 100 34 150 -14 q 50 173 50 81 q 125 350 50 288 q 402 425 201 413 l 402 451 q 388 546 402 519 q 334 572 374 572 q 254 467 261 572 m 402 328 q 283 291 319 318 q 248 198 248 263 q 311 111 248 111 q 374 150 346 111 q 402 294 402 189 l 402 328 m 509 939 l 569 895 q 414 791 500 791 q 328 814 381 791 q 245 841 269 841 q 181 798 219 841 l 123 844 q 271 941 198 941 q 361 917 305 941 q 444 890 422 890 q 509 939 474 890 z "},"å":{"ha":663,"x_min":50,"x_max":604,"o":"m 254 467 l 73 485 q 160 644 85 588 q 349 699 235 699 q 504 662 446 699 q 577 576 562 625 q 593 425 593 528 l 593 152 q 604 0 593 24 l 427 0 q 418 105 418 28 q 230 -14 355 -14 q 100 34 150 -14 q 50 173 50 81 q 125 350 50 288 q 402 425 201 413 l 402 451 q 388 546 402 519 q 334 572 374 572 q 254 467 261 572 m 402 328 q 283 291 319 318 q 248 198 248 263 q 311 111 248 111 q 374 150 346 111 q 402 294 402 189 l 402 328 m 217 882 q 256 977 217 939 q 348 1015 296 1015 q 439 977 400 1015 q 479 882 479 939 q 438 788 479 824 q 348 752 397 752 q 258 788 299 752 q 217 882 217 825 m 296 883 q 312 843 296 859 q 348 828 329 828 q 384 843 368 828 q 400 883 400 859 q 384 923 400 907 q 348 939 368 939 q 312 923 328 939 q 296 883 296 907 z "},"ç":{"ha":615,"x_min":41,"x_max":582,"o":"m 582 433 l 404 426 q 384 521 400 489 q 329 553 368 553 q 233 351 233 553 q 256 187 233 234 q 326 140 279 140 q 404 267 397 140 l 582 256 q 343 -14 559 9 l 321 -69 q 349 -67 339 -67 q 428 -97 396 -67 q 459 -175 459 -127 q 422 -259 459 -227 q 319 -291 385 -291 q 170 -242 247 -291 l 193 -182 q 302 -220 258 -220 q 351 -178 351 -220 q 328 -136 351 -153 q 271 -120 305 -120 q 226 -123 254 -120 l 267 -12 q 41 340 41 25 q 114 607 41 515 q 321 699 188 699 q 582 433 561 699 z "},"é":{"ha":639,"x_min":41,"x_max":597,"o":"m 597 311 l 238 311 l 238 273 q 263 149 238 180 q 329 118 288 118 q 427 235 416 118 l 597 224 q 326 -14 552 -14 q 113 80 186 -14 q 41 332 41 174 q 118 605 41 511 q 324 699 195 699 q 519 615 441 699 q 597 311 597 532 m 417 421 q 418 440 418 433 q 328 572 418 572 q 239 421 240 572 l 417 421 m 229 816 l 460 1029 l 536 916 l 286 759 l 229 816 z "},"è":{"ha":639,"x_min":41,"x_max":597,"o":"m 597 311 l 238 311 l 238 273 q 263 149 238 180 q 329 118 288 118 q 427 235 416 118 l 597 224 q 326 -14 552 -14 q 113 80 186 -14 q 41 332 41 174 q 118 605 41 511 q 324 699 195 699 q 519 615 441 699 q 597 311 597 532 m 417 421 q 418 440 418 433 q 328 572 418 572 q 239 421 240 572 l 417 421 m 441 816 l 385 759 l 134 916 l 210 1029 l 441 816 z "},"ê":{"ha":639,"x_min":41,"x_max":605,"o":"m 597 311 l 238 311 l 238 273 q 263 149 238 180 q 329 118 288 118 q 427 235 416 118 l 597 224 q 326 -14 552 -14 q 113 80 186 -14 q 41 332 41 174 q 118 605 41 511 q 324 699 195 699 q 519 615 441 699 q 597 311 597 532 m 417 421 q 418 440 418 433 q 328 572 418 572 q 239 421 240 572 l 417 421 m 61 768 l 333 980 l 605 768 l 457 768 l 333 848 l 209 768 l 61 768 z "},"ë":{"ha":639,"x_min":41,"x_max":597,"o":"m 597 311 l 238 311 l 238 273 q 263 149 238 180 q 329 118 288 118 q 427 235 416 118 l 597 224 q 326 -14 552 -14 q 113 80 186 -14 q 41 332 41 174 q 118 605 41 511 q 324 699 195 699 q 519 615 441 699 q 597 311 597 532 m 417 421 q 418 440 418 433 q 328 572 418 572 q 239 421 240 572 l 417 421 m 370 861 q 393 912 370 891 q 448 934 416 934 q 503 912 480 934 q 525 861 525 891 q 500 808 525 828 q 448 788 476 788 q 394 808 418 788 q 370 861 370 829 m 141 861 q 164 912 141 891 q 218 934 186 934 q 273 912 250 934 q 296 861 296 891 q 272 808 296 829 q 218 788 248 788 q 166 808 191 788 q 141 861 141 827 z "},"í":{"ha":331,"x_min":58,"x_max":365,"o":"m 70 685 l 261 685 l 261 0 l 70 0 l 70 685 m 58 816 l 289 1029 l 365 916 l 115 759 l 58 816 z "},"ì":{"ha":331,"x_min":-33,"x_max":274,"o":"m 70 685 l 261 685 l 261 0 l 70 0 l 70 685 m 274 816 l 217 759 l -33 916 l 43 1029 l 274 816 z "},"î":{"ha":331,"x_min":-106,"x_max":437,"o":"m 70 685 l 261 685 l 261 0 l 70 0 l 70 685 m -106 768 l 165 980 l 437 768 l 290 768 l 165 848 l 41 768 l -106 768 z "},"ï":{"ha":331,"x_min":-26,"x_max":357,"o":"m 70 685 l 261 685 l 261 0 l 70 0 l 70 685 m 203 861 q 225 912 203 891 q 280 934 248 934 q 335 912 313 934 q 357 861 357 891 q 333 808 357 828 q 280 788 309 788 q 227 808 251 788 q 203 861 203 829 m -26 861 q -4 912 -26 891 q 51 934 19 934 q 105 912 83 934 q 128 861 128 891 q 104 808 128 829 q 51 788 80 788 q -2 808 23 788 q -26 861 -26 827 z "},"ñ":{"ha":663,"x_min":71,"x_max":602,"o":"m 71 685 l 252 685 l 252 591 q 423 699 299 699 q 534 668 490 699 q 590 591 578 638 q 602 449 602 545 l 602 0 l 411 0 l 411 449 q 393 534 411 518 q 346 551 376 551 q 278 519 294 551 q 262 401 262 488 l 262 0 l 71 0 l 71 685 m 490 939 l 550 895 q 395 791 481 791 q 309 814 362 791 q 227 841 250 841 q 162 798 200 841 l 104 844 q 252 941 179 941 q 342 917 286 941 q 425 890 403 890 q 490 939 455 890 z "},"ó":{"ha":639,"x_min":41,"x_max":598,"o":"m 598 342 q 320 -14 598 -14 q 41 342 41 -14 q 320 699 41 699 q 598 342 598 699 m 401 342 q 383 519 401 473 q 320 566 365 566 q 258 522 277 566 q 239 342 239 478 q 255 168 239 217 q 320 119 271 119 q 384 168 367 119 q 401 342 401 216 m 220 816 l 452 1029 l 528 916 l 277 759 l 220 816 z "},"ò":{"ha":639,"x_min":41,"x_max":598,"o":"m 598 342 q 320 -14 598 -14 q 41 342 41 -14 q 320 699 41 699 q 598 342 598 699 m 401 342 q 383 519 401 473 q 320 566 365 566 q 258 522 277 566 q 239 342 239 478 q 255 168 239 217 q 320 119 271 119 q 384 168 367 119 q 401 342 401 216 m 433 816 l 376 759 l 125 916 l 201 1029 l 433 816 z "},"ô":{"ha":639,"x_min":41,"x_max":598,"o":"m 598 342 q 320 -14 598 -14 q 41 342 41 -14 q 320 699 41 699 q 598 342 598 699 m 401 342 q 383 519 401 473 q 320 566 365 566 q 258 522 277 566 q 239 342 239 478 q 255 168 239 217 q 320 119 271 119 q 384 168 367 119 q 401 342 401 216 m 47 768 l 319 980 l 591 768 l 444 768 l 319 848 l 195 768 l 47 768 z "},"ö":{"ha":639,"x_min":41,"x_max":598,"o":"m 598 342 q 320 -14 598 -14 q 41 342 41 -14 q 320 699 41 699 q 598 342 598 699 m 401 342 q 383 519 401 473 q 320 566 365 566 q 258 522 277 566 q 239 342 239 478 q 255 168 239 217 q 320 119 271 119 q 384 168 367 119 q 401 342 401 216 m 357 861 q 379 912 357 891 q 434 934 402 934 q 489 912 467 934 q 511 861 511 891 q 487 808 511 828 q 434 788 463 788 q 381 808 405 788 q 357 861 357 829 m 127 861 q 150 912 127 891 q 205 934 173 934 q 259 912 237 934 q 282 861 282 891 q 258 808 282 829 q 205 788 234 788 q 152 808 177 788 q 127 861 127 827 z "},"õ":{"ha":639,"x_min":41,"x_max":598,"o":"m 598 342 q 320 -14 598 -14 q 41 342 41 -14 q 320 699 41 699 q 598 342 598 699 m 401 342 q 383 519 401 473 q 320 566 365 566 q 258 522 277 566 q 239 342 239 478 q 255 168 239 217 q 320 119 271 119 q 384 168 367 119 q 401 342 401 216 m 482 939 l 543 895 q 387 791 473 791 q 302 814 355 791 q 219 841 242 841 q 155 798 193 841 l 96 844 q 245 941 172 941 q 334 917 279 941 q 417 890 395 890 q 482 939 448 890 z "},"ú":{"ha":663,"x_min":61,"x_max":593,"o":"m 61 685 l 252 685 l 252 245 q 264 157 252 179 q 317 134 277 134 q 374 153 355 134 q 397 203 393 171 q 401 336 401 235 l 401 685 l 593 685 l 593 0 l 413 0 l 413 94 q 332 5 372 24 q 237 -14 292 -14 q 123 16 163 -14 q 73 94 84 47 q 61 239 61 140 l 61 685 m 223 816 l 454 1029 l 530 916 l 280 759 l 223 816 z "},"ù":{"ha":663,"x_min":61,"x_max":593,"o":"m 61 685 l 252 685 l 252 245 q 264 157 252 179 q 317 134 277 134 q 374 153 355 134 q 397 203 393 171 q 401 336 401 235 l 401 685 l 593 685 l 593 0 l 413 0 l 413 94 q 332 5 372 24 q 237 -14 292 -14 q 123 16 163 -14 q 73 94 84 47 q 61 239 61 140 l 61 685 m 435 816 l 378 759 l 128 916 l 204 1029 l 435 816 z "},"û":{"ha":663,"x_min":55,"x_max":599,"o":"m 61 685 l 252 685 l 252 245 q 264 157 252 179 q 317 134 277 134 q 374 153 355 134 q 397 203 393 171 q 401 336 401 235 l 401 685 l 593 685 l 593 0 l 413 0 l 413 94 q 332 5 372 24 q 237 -14 292 -14 q 123 16 163 -14 q 73 94 84 47 q 61 239 61 140 l 61 685 m 55 768 l 327 980 l 599 768 l 451 768 l 327 848 l 203 768 l 55 768 z "},"ü":{"ha":663,"x_min":61,"x_max":593,"o":"m 61 685 l 252 685 l 252 245 q 264 157 252 179 q 317 134 277 134 q 374 153 355 134 q 397 203 393 171 q 401 336 401 235 l 401 685 l 593 685 l 593 0 l 413 0 l 413 94 q 332 5 372 24 q 237 -14 292 -14 q 123 16 163 -14 q 73 94 84 47 q 61 239 61 140 l 61 685 m 364 861 q 387 912 364 891 q 441 934 410 934 q 496 912 474 934 q 519 861 519 891 q 494 808 519 828 q 441 788 470 788 q 388 808 412 788 q 364 861 364 829 m 135 861 q 158 912 135 891 q 212 934 180 934 q 267 912 244 934 q 290 861 290 891 q 266 808 290 829 q 212 788 241 788 q 160 808 184 788 q 135 861 135 827 z "},"†":{"ha":710,"x_min":71,"x_max":639,"o":"m 263 926 l 447 926 l 447 677 l 639 677 l 639 518 l 447 518 l 447 -232 l 263 -232 l 263 518 l 71 518 l 71 677 l 263 677 l 263 926 z "},"°":{"ha":710,"x_min":134,"x_max":576,"o":"m 576 720 q 511 563 576 628 q 355 498 446 498 q 199 563 264 498 q 134 720 134 628 q 199 875 134 810 q 355 940 264 940 q 511 875 447 940 q 576 720 576 810 m 450 720 q 422 797 450 764 q 355 829 395 829 q 289 798 317 829 q 260 720 260 766 q 289 641 260 673 q 355 609 317 609 q 422 642 394 609 q 450 720 450 674 z "},"¢":{"ha":710,"x_min":93,"x_max":618,"o":"m 316 930 l 416 930 l 416 805 q 618 558 597 781 l 458 548 q 370 672 450 672 q 304 629 324 672 q 284 474 284 587 q 305 318 284 357 q 369 279 326 279 q 425 300 401 279 q 458 401 448 322 l 618 387 q 416 137 587 162 l 416 -9 l 316 -9 l 316 137 q 146 249 199 156 q 93 463 93 342 q 151 705 93 612 q 316 806 210 798 l 316 930 z "},"£":{"ha":710,"x_min":12,"x_max":746,"o":"m 377 566 l 532 566 l 532 425 l 396 425 q 397 389 397 402 q 368 244 397 293 q 294 157 338 195 l 396 157 q 538 195 500 157 q 596 296 576 233 l 746 240 q 701 118 729 165 q 632 45 673 71 q 544 9 591 19 q 396 0 497 0 l 12 0 l 12 157 l 83 157 q 154 171 132 157 q 194 228 177 184 q 212 353 212 271 q 208 425 212 386 l 101 425 l 101 566 l 184 566 q 176 677 176 635 q 241 868 176 796 q 429 940 307 940 q 663 765 617 940 l 515 695 q 429 792 494 792 q 368 696 368 792 q 373 613 368 674 q 377 566 376 577 z "},"§":{"ha":710,"x_min":73,"x_max":637,"o":"m 637 766 l 495 723 q 388 814 472 814 q 322 792 345 814 q 300 737 300 770 q 322 682 300 701 q 434 622 345 663 q 582 524 538 574 q 627 387 627 474 q 534 205 627 279 q 634 14 634 136 q 560 -166 634 -100 q 357 -233 486 -233 q 73 -22 120 -233 l 231 5 q 360 -101 252 -101 q 464 -9 464 -101 q 430 64 464 37 q 281 142 396 92 q 181 195 216 170 q 122 264 146 220 q 98 365 98 309 q 204 551 98 490 q 129 713 129 615 q 194 877 129 814 q 379 940 260 940 q 637 766 582 940 m 295 494 q 256 412 256 460 q 280 350 256 376 q 388 286 303 323 q 437 263 424 270 q 475 345 475 296 q 452 404 475 381 q 353 465 429 426 q 295 494 308 487 z "},"•":{"ha":926,"x_min":272,"x_max":654,"o":"m 654 472 q 598 335 654 392 q 463 278 542 278 q 328 335 385 278 q 272 472 272 393 q 328 609 272 552 q 465 666 384 666 q 598 609 542 666 q 654 472 654 553 z "},"¶":{"ha":758,"x_min":29,"x_max":650,"o":"m 650 926 l 650 -232 l 541 -232 l 541 816 l 475 816 l 475 -232 l 367 -232 l 367 358 l 319 358 q 158 382 216 358 q 64 473 99 407 q 29 646 29 540 q 63 808 29 743 q 151 900 98 873 q 327 926 203 926 l 650 926 z "},"ß":{"ha":757,"x_min":14,"x_max":741,"o":"m 14 471 l 14 621 l 90 621 q 174 887 90 792 q 416 981 259 981 q 596 922 536 981 q 656 781 656 863 q 449 560 656 625 q 534 508 460 539 q 701 391 660 454 q 741 247 741 329 q 669 56 741 127 q 482 -14 597 -14 q 330 14 408 -14 l 376 144 q 479 118 432 118 q 570 210 570 118 q 547 279 570 253 q 458 344 524 304 q 355 427 387 387 q 323 520 323 467 q 348 635 323 570 q 477 751 477 654 q 453 822 477 795 q 385 848 428 848 q 320 824 345 848 q 287 761 294 800 q 280 627 280 723 l 280 -80 l 90 -80 l 90 471 l 14 471 z "},"®":{"ha":1082,"x_min":56,"x_max":1026,"o":"m 56 463 q 198 802 56 661 q 541 943 341 943 q 883 802 741 943 q 1026 463 1026 661 q 883 124 1026 265 q 541 -17 741 -17 q 198 124 340 -17 q 56 463 56 265 m 174 463 q 282 200 174 309 q 541 91 389 91 q 800 200 692 91 q 907 463 907 310 q 800 726 907 617 q 541 835 692 835 q 282 726 390 835 q 174 463 174 616 m 342 741 l 527 741 q 639 729 597 741 q 713 675 682 717 q 744 572 744 633 q 661 427 744 468 l 764 185 l 600 185 l 530 399 l 493 399 l 493 185 l 342 185 l 342 741 m 493 638 l 493 501 l 528 501 q 596 572 596 501 q 523 638 596 638 l 493 638 z "},"©":{"ha":1082,"x_min":56,"x_max":1026,"o":"m 56 463 q 198 802 56 661 q 541 943 341 943 q 883 802 741 943 q 1026 463 1026 661 q 883 124 1026 265 q 541 -17 741 -17 q 198 124 340 -17 q 56 463 56 265 m 174 463 q 282 200 174 309 q 541 91 389 91 q 800 200 692 91 q 907 463 907 310 q 800 726 907 617 q 541 835 692 835 q 282 726 390 835 q 174 463 174 616 m 631 397 l 772 389 q 708 236 766 294 q 553 177 649 177 q 380 249 444 177 q 316 458 316 321 q 377 673 316 598 q 555 749 437 749 q 769 526 753 749 l 630 516 q 555 637 625 637 q 474 456 474 637 q 494 325 474 361 q 555 288 513 288 q 631 397 620 288 z "},"™":{"ha":1017,"x_min":18,"x_max":927,"o":"m 18 898 l 365 898 l 365 800 l 251 800 l 251 370 l 129 370 l 129 800 l 18 800 l 18 898 m 407 898 l 589 898 l 665 574 l 750 898 l 927 898 l 927 370 l 812 370 l 812 810 l 699 370 l 610 370 l 507 810 l 507 370 l 407 370 l 407 898 z "},"´":{"ha":639,"x_min":252,"x_max":559,"o":"m 252 816 l 484 1029 l 559 916 l 309 759 l 252 816 z "},"¨":{"ha":639,"x_min":127,"x_max":511,"o":"m 357 861 q 379 912 357 891 q 434 934 402 934 q 489 912 467 934 q 511 861 511 891 q 487 808 511 828 q 434 788 463 788 q 381 808 405 788 q 357 861 357 829 m 127 861 q 150 912 127 891 q 205 934 173 934 q 259 912 237 934 q 282 861 282 891 q 258 808 282 829 q 205 788 234 788 q 152 808 177 788 q 127 861 127 827 z "},"≠":{"ha":710,"x_min":71,"x_max":639,"o":"m 523 650 l 639 650 l 639 503 l 455 503 l 417 422 l 639 422 l 639 276 l 349 276 l 278 124 l 145 186 l 187 276 l 71 276 l 71 422 l 256 422 l 293 503 l 71 503 l 71 650 l 361 650 l 432 802 l 565 740 l 523 650 z "},"Æ":{"ha":947,"x_min":-56,"x_max":935,"o":"m 308 926 l 935 926 l 935 767 l 592 767 l 592 552 l 862 552 l 862 393 l 592 393 l 592 165 l 935 165 l 935 0 l 397 0 l 397 214 l 195 214 l 120 0 l -56 0 l 308 926 m 401 364 l 401 790 l 246 364 l 401 364 z "},"Ø":{"ha":781,"x_min":54,"x_max":726,"o":"m 599 979 l 705 979 l 631 832 q 726 463 726 715 q 390 -14 726 -14 q 229 23 306 -14 l 186 -57 l 80 -57 l 153 89 q 54 463 54 212 q 390 940 54 940 q 557 899 486 940 l 599 979 m 473 751 q 390 786 439 786 q 286 725 323 786 q 250 463 250 665 q 260 295 250 357 l 473 751 m 310 165 q 396 138 342 138 q 500 214 469 138 q 531 493 531 290 q 522 624 531 558 l 310 165 z "},"∞":{"ha":990,"x_min":102,"x_max":888,"o":"m 460 581 q 680 735 551 735 q 827 673 767 735 q 888 498 888 610 q 827 324 888 387 q 680 262 767 262 q 460 417 551 262 q 373 333 427 366 q 266 300 318 300 q 148 357 193 300 q 102 498 102 414 q 147 641 102 584 q 266 697 193 697 q 373 664 318 697 q 460 581 427 631 m 524 500 q 618 381 587 399 q 682 362 648 362 q 762 404 735 362 q 789 501 789 446 q 761 596 789 556 q 684 636 734 636 q 524 500 608 636 m 402 501 q 273 597 334 597 q 219 571 242 597 q 197 502 197 546 q 217 433 197 463 q 273 404 237 404 q 402 501 328 404 z "},"±":{"ha":710,"x_min":71,"x_max":639,"o":"m 431 536 l 639 536 l 639 389 l 431 389 l 431 195 l 279 195 l 279 389 l 71 389 l 71 536 l 279 536 l 279 747 l 431 747 l 431 536 m 639 -16 l 71 -16 l 71 131 l 639 131 l 639 -16 z "},"≤":{"ha":710,"x_min":54,"x_max":656,"o":"m 656 887 l 656 694 l 280 572 l 655 451 l 656 258 l 54 486 l 54 659 l 656 887 m 656 220 l 656 39 l 54 39 l 54 220 l 656 220 z "},"≥":{"ha":710,"x_min":54,"x_max":656,"o":"m 54 258 l 55 451 l 431 572 l 54 694 l 54 887 l 656 659 l 656 486 l 54 258 m 54 39 l 54 220 l 656 220 l 656 39 l 54 39 z "},"¥":{"ha":710,"x_min":33,"x_max":677,"o":"m 33 926 l 231 926 l 369 549 l 517 926 l 677 926 l 524 565 l 663 565 l 663 464 l 481 464 l 446 380 l 663 380 l 663 279 l 446 279 l 446 0 l 262 0 l 262 279 l 54 279 l 54 380 l 262 380 l 227 464 l 54 464 l 54 565 l 185 565 l 33 926 z "},"µ":{"ha":663,"x_min":61,"x_max":593,"o":"m 401 685 l 593 685 l 593 0 l 413 0 l 413 94 q 379 6 400 26 q 327 -14 357 -14 q 274 6 295 -14 q 241 94 254 26 l 241 -232 l 61 -232 l 61 685 l 252 685 l 252 336 q 255 204 252 239 q 277 152 258 169 q 327 134 296 134 q 376 151 357 134 q 398 202 395 168 q 401 336 401 237 l 401 685 z "},"∂":{"ha":686,"x_min":31,"x_max":663,"o":"m 258 762 l 165 819 q 269 965 199 918 q 416 1011 339 1011 q 594 919 525 1011 q 663 638 663 826 q 611 308 663 476 q 457 60 559 140 q 242 -19 356 -19 q 89 44 147 -19 q 31 221 31 107 q 169 519 31 398 q 534 640 308 640 q 561 639 543 640 q 522 824 561 760 q 412 888 482 888 q 258 762 319 888 m 553 514 l 526 515 q 278 430 370 515 q 186 229 186 346 q 213 147 186 182 q 281 112 239 112 q 452 220 374 112 q 553 514 529 329 z "},"∑":{"ha":990,"x_min":83,"x_max":940,"o":"m 94 1042 l 933 1042 l 933 930 l 263 930 l 675 386 l 235 -180 l 940 -180 l 940 -289 l 83 -289 l 83 -162 l 503 380 l 94 922 l 94 1042 z "},"∏":{"ha":1143,"x_min":110,"x_max":1034,"o":"m 110 1042 l 1034 1042 l 1034 -289 l 904 -289 l 904 924 l 241 924 l 241 -289 l 110 -289 l 110 1042 z "},"":{"ha":752,"x_min":21,"x_max":731,"o":"m 662 530 l 662 0 l 471 0 l 471 530 l 281 530 l 281 0 l 90 0 l 90 530 l 21 530 l 21 685 l 731 685 l 731 530 l 662 530 z "},"∫":{"ha":380,"x_min":0,"x_max":380,"o":"m 295 1263 q 356 1240 332 1263 q 380 1191 380 1217 q 362 1141 380 1161 q 317 1120 345 1120 q 266 1145 294 1120 q 239 1158 250 1158 q 212 1115 212 1158 q 218 1017 212 1086 q 243 566 243 739 q 235 247 243 520 q 182 -88 227 -26 q 80 -149 138 -149 q 23 -127 47 -149 q 0 -67 0 -105 q 17 -19 0 -38 q 61 0 33 0 q 109 -22 88 0 q 141 -43 127 -43 q 168 -2 168 -43 q 161 79 168 26 q 136 643 136 294 q 174 1153 136 1042 q 295 1263 212 1263 z "},"ª":{"ha":450,"x_min":31,"x_max":412,"o":"m 184 657 l 47 669 q 233 795 75 795 q 333 775 294 795 q 386 727 372 756 q 400 627 400 698 l 400 469 q 412 370 400 391 l 291 370 q 283 429 285 398 q 156 362 235 362 q 67 392 103 362 q 31 481 31 422 q 261 637 31 625 l 261 652 q 225 703 261 703 q 184 657 189 703 m 261 557 q 193 541 211 557 q 175 496 175 526 q 209 454 175 454 q 261 557 261 454 z "},"º":{"ha":426,"x_min":24,"x_max":402,"o":"m 402 582 q 213 362 402 362 q 24 578 24 362 q 213 795 24 795 q 402 582 402 795 m 254 578 q 243 675 254 654 q 213 696 233 696 q 179 666 186 696 q 172 578 172 635 q 178 495 172 530 q 214 461 184 461 q 248 495 241 461 q 254 578 254 530 z "},"Ω":{"ha":1067,"x_min":37,"x_max":1038,"o":"m 313 140 q 52 551 52 250 q 181 889 52 759 q 531 1019 311 1019 q 785 969 682 1019 q 956 807 888 919 q 1024 550 1024 694 q 765 140 1024 257 l 989 156 l 1038 156 l 1038 0 l 602 0 l 602 165 q 810 532 810 264 q 733 784 810 697 q 532 871 656 871 q 334 775 405 871 q 263 536 263 679 q 316 311 263 412 q 475 165 370 210 l 475 0 l 37 0 l 37 156 l 104 156 l 313 140 z "},"æ":{"ha":970,"x_min":50,"x_max":929,"o":"m 929 311 l 574 311 q 574 279 574 290 q 665 118 574 118 q 759 233 747 118 l 923 221 q 665 -14 882 -14 q 469 102 523 -14 q 248 -14 396 -14 q 102 39 154 -14 q 50 178 50 92 q 76 292 50 237 q 167 379 103 347 q 389 426 231 412 q 390 471 390 458 q 368 554 390 536 q 317 572 346 572 q 233 462 240 572 l 66 481 q 328 699 101 699 q 492 629 447 699 q 661 699 557 699 q 819 650 759 699 q 904 525 878 602 q 929 311 929 448 m 750 421 q 663 572 748 572 q 574 421 581 572 l 750 421 m 389 328 q 267 283 293 315 q 240 201 240 252 q 304 112 240 112 q 389 274 389 112 q 389 328 389 292 z "},"ø":{"ha":639,"x_min":41,"x_max":598,"o":"m 490 756 l 581 756 l 515 625 q 598 342 598 534 q 320 -14 598 -14 q 198 7 252 -14 l 155 -79 l 64 -79 l 131 53 q 41 342 41 146 q 320 699 41 699 q 449 675 393 699 l 490 756 m 382 559 q 322 575 352 575 q 234 524 257 575 q 212 342 212 473 q 218 206 212 276 l 382 559 m 265 119 q 320 110 289 110 q 407 165 387 110 q 428 342 428 220 q 423 462 428 395 l 265 119 z "},"¿":{"ha":663,"x_min":66,"x_max":623,"o":"m 449 488 l 268 488 l 268 685 l 449 684 l 449 488 m 449 77 l 623 53 q 546 -172 619 -87 q 338 -256 472 -256 q 131 -177 195 -256 q 66 4 66 -99 q 97 139 66 85 q 202 260 128 194 q 266 331 254 307 q 277 420 277 355 l 439 420 l 439 389 q 430 265 439 302 q 360 171 420 229 q 290 86 310 121 q 271 0 271 50 q 294 -67 271 -45 q 350 -90 317 -90 q 449 77 448 -90 z "},"¡":{"ha":473,"x_min":115,"x_max":359,"o":"m 331 479 l 142 479 l 142 685 l 331 684 l 331 479 m 359 -241 l 115 -241 l 174 408 l 298 408 l 359 -241 z "},"¬":{"ha":694,"x_min":46,"x_max":648,"o":"m 446 0 l 446 222 l 46 222 l 46 404 l 648 404 l 648 0 l 446 0 z "},"√":{"ha":762,"x_min":55,"x_max":760,"o":"m 710 1267 l 760 1267 l 549 -53 l 212 640 l 78 578 l 55 621 l 259 724 l 534 165 l 710 1267 z "},"ƒ":{"ha":710,"x_min":81,"x_max":652,"o":"m 495 667 l 614 667 l 591 517 l 473 517 l 409 60 q 324 -149 387 -95 q 162 -203 260 -203 q 81 -194 122 -203 l 105 -43 q 148 -46 133 -46 q 207 -23 191 -46 q 234 81 222 1 l 295 517 l 197 517 l 218 667 l 316 667 q 401 900 345 852 q 546 948 458 948 q 652 933 588 948 l 631 783 q 572 795 599 795 q 520 769 536 795 q 495 667 503 743 z "},"≈":{"ha":710,"x_min":19,"x_max":690,"o":"m 120 486 l 19 557 q 226 746 94 746 q 382 699 273 746 q 490 664 463 664 q 589 736 543 664 l 690 666 q 473 479 619 479 q 319 528 429 479 q 216 559 250 559 q 120 486 167 559 m 120 186 l 19 258 q 226 446 95 446 q 382 399 272 446 q 490 364 464 364 q 589 437 543 364 l 690 366 q 472 180 620 180 q 319 229 429 180 q 216 260 250 260 q 120 186 167 260 z "},"∆":{"ha":850,"x_min":18,"x_max":831,"o":"m 831 0 l 18 0 l 444 941 l 831 0 m 671 56 l 401 711 l 102 56 l 671 56 z "},"«":{"ha":615,"x_min":67,"x_max":547,"o":"m 547 113 l 446 113 l 304 356 l 446 598 l 547 598 l 463 356 l 547 113 m 311 113 l 210 113 l 67 356 l 210 598 l 311 598 l 226 356 l 311 113 z "},"»":{"ha":615,"x_min":67,"x_max":547,"o":"m 67 598 l 168 598 l 311 356 l 168 113 l 67 113 l 152 356 l 67 598 m 304 598 l 404 598 l 547 356 l 404 113 l 304 113 l 389 356 l 304 598 z "},"…":{"ha":1065,"x_min":83,"x_max":982,"o":"m 83 205 l 272 205 l 272 0 l 83 0 l 83 205 m 437 205 l 627 205 l 627 0 l 437 0 l 437 205 m 793 205 l 982 205 l 982 0 l 793 0 l 793 205 z "}," ":{"ha":259,"x_min":0,"x_max":0,"o":""},"À":{"ha":710,"x_min":-27,"x_max":720,"o":"m 251 926 l 456 926 l 720 0 l 512 0 l 466 191 l 205 191 l 160 0 l -27 0 l 251 926 m 427 350 l 334 728 l 244 350 l 427 350 m 466 1041 l 409 984 l 159 1141 l 235 1254 l 466 1041 z "},"Ã":{"ha":710,"x_min":-27,"x_max":720,"o":"m 251 926 l 456 926 l 720 0 l 512 0 l 466 191 l 205 191 l 160 0 l -27 0 l 251 926 m 427 350 l 334 728 l 244 350 l 427 350 m 517 1156 l 578 1112 q 422 1008 509 1008 q 337 1031 390 1008 q 254 1058 277 1058 q 190 1015 228 1058 l 132 1061 q 280 1158 207 1158 q 370 1134 314 1158 q 452 1107 431 1107 q 517 1156 483 1107 z "},"Õ":{"ha":781,"x_min":54,"x_max":726,"o":"m 726 463 q 391 -14 726 -14 q 139 107 224 -14 q 54 463 54 229 q 390 940 54 940 q 640 821 554 940 q 726 463 726 701 m 512 463 q 483 712 512 650 q 390 774 454 774 q 298 712 327 774 q 269 463 269 650 q 297 216 269 280 q 390 151 326 151 q 483 213 453 151 q 512 463 512 275 m 553 1156 l 614 1112 q 458 1008 545 1008 q 373 1031 426 1008 q 290 1058 313 1058 q 226 1015 264 1058 l 168 1061 q 316 1158 243 1158 q 406 1134 350 1158 q 488 1107 467 1107 q 553 1156 519 1107 z "},"Œ":{"ha":1088,"x_min":54,"x_max":1076,"o":"m 1076 926 l 1076 767 l 713 767 l 713 552 l 997 552 l 997 393 l 713 393 l 713 165 l 1076 165 l 1076 0 l 526 0 q 404 -14 454 -14 q 228 30 309 -14 q 100 190 146 74 q 54 439 54 307 q 146 821 54 703 q 411 940 239 940 q 537 926 463 940 l 1076 926 m 517 738 q 414 774 479 774 q 295 677 321 774 q 269 448 269 580 q 417 151 269 151 q 517 186 479 151 l 517 738 z "},"œ":{"ha":994,"x_min":41,"x_max":953,"o":"m 953 311 l 589 311 q 589 273 589 287 q 615 149 589 180 q 685 118 642 118 q 783 235 771 118 l 953 224 q 685 -14 903 -14 q 496 60 570 -14 q 313 -14 433 -14 q 110 77 178 -14 q 41 342 41 169 q 315 699 41 699 q 505 619 439 699 q 680 699 570 699 q 839 648 775 699 q 928 518 903 597 q 953 311 953 438 m 773 421 l 773 441 q 684 572 773 572 q 591 421 591 572 l 773 421 m 401 342 q 383 519 401 472 q 319 566 365 566 q 257 522 276 566 q 239 342 239 478 q 255 168 239 217 q 319 119 272 119 q 384 169 368 119 q 401 342 401 218 z "},"–":{"ha":615,"x_min":55,"x_max":559,"o":"m 55 422 l 559 422 l 559 280 l 55 280 l 55 422 z "},"—":{"ha":923,"x_min":52,"x_max":871,"o":"m 52 422 l 871 422 l 871 280 l 52 280 l 52 422 z "},"“":{"ha":591,"x_min":90,"x_max":500,"o":"m 500 555 l 327 555 l 327 760 l 426 942 l 500 942 l 424 760 l 500 760 l 500 555 m 264 555 l 90 555 l 90 760 l 189 942 l 264 942 l 187 760 l 264 760 l 264 555 z "},"”":{"ha":591,"x_min":90,"x_max":500,"o":"m 90 926 l 264 926 l 264 721 l 165 539 l 90 539 l 167 721 l 90 721 l 90 926 m 327 926 l 500 926 l 500 721 l 401 539 l 327 539 l 403 721 l 327 721 l 327 926 z "},"‘":{"ha":331,"x_min":79,"x_max":252,"o":"m 252 555 l 79 555 l 79 760 l 178 942 l 252 942 l 176 760 l 252 760 l 252 555 z "},"’":{"ha":331,"x_min":79,"x_max":252,"o":"m 79 926 l 252 926 l 252 721 l 153 539 l 79 539 l 155 721 l 79 721 l 79 926 z "},"÷":{"ha":710,"x_min":71,"x_max":639,"o":"m 437 600 l 273 600 l 273 783 l 437 783 l 437 600 m 639 389 l 71 389 l 71 536 l 639 536 l 639 389 m 437 142 l 273 142 l 273 326 l 437 326 l 437 142 z "},"◊":{"ha":686,"x_min":32,"x_max":656,"o":"m 372 964 l 656 481 l 372 0 l 297 0 l 32 481 l 297 964 l 372 964 m 336 899 l 105 481 l 336 64 l 579 481 l 336 899 z "},"ÿ":{"ha":497,"x_min":-19,"x_max":518,"o":"m -19 685 l 172 685 l 264 267 l 353 685 l 518 685 l 312 -11 q 261 -151 282 -111 q 198 -217 240 -191 q 91 -243 156 -243 q 9 -232 51 -243 l 9 -81 q 63 -85 38 -85 q 139 -67 119 -85 q 178 13 160 -49 l -19 685 m 295 861 q 318 912 295 891 q 372 934 340 934 q 427 912 405 934 q 450 861 450 891 q 425 808 450 828 q 372 788 401 788 q 319 808 343 788 q 295 861 295 829 m 66 861 q 89 912 66 891 q 143 934 111 934 q 198 912 175 934 q 220 861 220 891 q 196 808 220 829 q 143 788 172 788 q 91 808 115 788 q 66 861 66 827 z "},"Ÿ":{"ha":615,"x_min":-39,"x_max":654,"o":"m -39 926 l 184 926 l 315 588 l 455 926 l 654 926 l 397 391 l 397 0 l 193 0 l 193 391 l -39 926 m 345 1086 q 368 1138 345 1116 q 422 1159 391 1159 q 477 1138 455 1159 q 500 1086 500 1116 q 475 1033 500 1053 q 422 1013 451 1013 q 369 1034 393 1013 q 345 1086 345 1054 m 116 1086 q 139 1138 116 1116 q 193 1159 161 1159 q 248 1138 225 1159 q 271 1086 271 1116 q 247 1034 271 1054 q 193 1013 222 1013 q 141 1033 165 1013 q 116 1086 116 1053 z "},"∕":{"ha":119,"x_min":-216,"x_max":335,"o":"m 223 926 l 335 926 l -106 0 l -216 0 l 223 926 z "},"€":{"ha":710,"x_min":5,"x_max":701,"o":"m 701 688 l 528 643 q 401 775 503 775 q 275 614 295 775 l 424 614 l 424 510 l 267 510 l 265 493 l 265 428 l 424 428 l 424 323 l 272 323 q 399 150 294 150 q 479 178 450 150 q 526 271 508 205 l 700 232 q 596 42 665 101 q 399 -17 528 -17 q 186 71 269 -17 q 79 323 104 158 l 5 323 l 5 428 l 71 428 q 69 458 69 437 l 71 510 l 5 510 l 5 614 l 83 614 q 193 858 113 773 q 399 942 274 942 q 597 877 518 942 q 701 688 675 812 z "},"‹":{"ha":378,"x_min":67,"x_max":311,"o":"m 311 113 l 210 113 l 67 356 l 210 598 l 311 598 l 226 356 l 311 113 z "},"›":{"ha":379,"x_min":68,"x_max":311,"o":"m 68 598 l 169 598 l 311 356 l 169 113 l 68 113 l 153 356 l 68 598 z "},"ﬁ":{"ha":733,"x_min":25,"x_max":665,"o":"m 286 685 l 407 685 l 407 534 l 286 534 l 286 0 l 103 0 l 103 534 l 25 534 l 25 685 l 103 685 q 118 836 105 792 q 178 921 130 880 q 327 962 226 962 q 404 957 366 962 l 404 808 q 372 809 384 809 q 307 792 323 809 q 289 758 292 776 q 286 685 286 739 m 665 741 l 471 741 l 471 930 l 665 930 l 665 741 m 472 685 l 663 685 l 663 0 l 472 0 l 472 685 z "},"ﬂ":{"ha":733,"x_min":25,"x_max":663,"o":"m 286 685 l 407 685 l 407 534 l 286 534 l 286 0 l 103 0 l 103 534 l 25 534 l 25 685 l 103 685 q 118 836 105 792 q 178 921 130 880 q 327 962 226 962 q 404 957 366 962 l 404 808 q 372 809 384 809 q 307 792 323 809 q 289 758 292 776 q 286 685 286 739 m 472 926 l 663 926 l 663 0 l 472 0 l 472 926 z "},"‡":{"ha":710,"x_min":71,"x_max":639,"o":"m 263 926 l 447 926 l 447 677 l 639 677 l 639 518 l 447 518 l 447 176 l 639 176 l 639 16 l 447 16 l 447 -232 l 263 -232 l 263 16 l 71 16 l 71 176 l 263 176 l 263 518 l 71 518 l 71 677 l 263 677 l 263 926 z "},"∙":{"ha":355,"x_min":83,"x_max":272,"o":"m 83 459 l 272 459 l 272 254 l 83 254 l 83 459 z "},"‚":{"ha":332,"x_min":79,"x_max":252,"o":"m 79 205 l 252 205 l 252 0 l 153 -182 l 79 -182 l 155 0 l 79 0 l 79 205 z "},"„":{"ha":591,"x_min":90,"x_max":500,"o":"m 90 205 l 264 205 l 264 0 l 165 -181 l 90 -181 l 167 0 l 90 0 l 90 205 m 327 205 l 500 205 l 500 0 l 401 -181 l 327 -181 l 403 0 l 327 0 l 327 205 z "},"‰":{"ha":1349,"x_min":38,"x_max":1307,"o":"m 404 692 q 355 515 404 576 q 221 454 307 454 q 87 514 136 454 q 38 692 38 574 q 86 870 38 809 q 221 930 135 930 q 356 869 307 930 q 404 692 404 808 m 272 692 q 259 804 272 779 q 221 828 245 828 q 182 801 194 828 q 170 692 170 774 q 183 581 170 606 q 221 557 196 557 q 260 585 248 557 q 272 692 272 613 m 629 926 l 734 926 l 297 0 l 192 0 l 629 926 m 885 233 q 836 56 885 117 q 702 -5 787 -5 q 568 56 616 -5 q 519 233 519 117 q 568 411 519 350 q 702 471 617 471 q 836 412 786 471 q 885 233 885 352 m 753 233 q 740 345 753 320 q 702 369 727 369 q 663 341 675 369 q 651 233 651 313 q 664 122 651 147 q 702 98 677 98 q 742 126 730 98 q 753 233 753 154 m 1307 233 q 1258 56 1307 117 q 1124 -5 1209 -5 q 989 56 1038 -5 q 941 233 941 117 q 990 411 941 351 q 1124 471 1039 471 q 1257 412 1208 471 q 1307 233 1307 352 m 1175 233 q 1162 345 1175 320 q 1124 369 1148 369 q 1084 342 1097 369 q 1072 233 1072 315 q 1086 122 1072 146 q 1124 98 1099 98 q 1163 126 1152 98 q 1175 233 1175 155 z "},"Â":{"ha":710,"x_min":-27,"x_max":720,"o":"m 251 926 l 456 926 l 720 0 l 512 0 l 466 191 l 205 191 l 160 0 l -27 0 l 251 926 m 427 350 l 334 728 l 244 350 l 427 350 m 81 1009 l 353 1221 l 625 1009 l 477 1009 l 353 1089 l 229 1009 l 81 1009 z "},"Ê":{"ha":663,"x_min":87,"x_max":650,"o":"m 87 926 l 650 926 l 650 767 l 291 767 l 291 552 l 570 552 l 570 393 l 291 393 l 291 165 l 650 165 l 650 0 l 87 0 l 87 926 m 100 1009 l 372 1221 l 644 1009 l 496 1009 l 372 1089 l 248 1009 l 100 1009 z "},"Á":{"ha":710,"x_min":-27,"x_max":720,"o":"m 251 926 l 456 926 l 720 0 l 512 0 l 466 191 l 205 191 l 160 0 l -27 0 l 251 926 m 427 350 l 334 728 l 244 350 l 427 350 m 256 1041 l 488 1254 l 564 1141 l 313 984 l 256 1041 z "},"Ë":{"ha":663,"x_min":87,"x_max":650,"o":"m 87 926 l 650 926 l 650 767 l 291 767 l 291 552 l 570 552 l 570 393 l 291 393 l 291 165 l 650 165 l 650 0 l 87 0 l 87 926 m 406 1086 q 428 1138 406 1116 q 483 1159 451 1159 q 538 1138 515 1159 q 560 1086 560 1116 q 536 1033 560 1053 q 483 1013 511 1013 q 430 1034 454 1013 q 406 1086 406 1054 m 176 1086 q 199 1138 176 1116 q 254 1159 222 1159 q 308 1138 286 1159 q 331 1086 331 1116 q 307 1034 331 1054 q 254 1013 283 1013 q 201 1033 226 1013 q 176 1086 176 1053 z "},"È":{"ha":663,"x_min":87,"x_max":650,"o":"m 87 926 l 650 926 l 650 767 l 291 767 l 291 552 l 570 552 l 570 393 l 291 393 l 291 165 l 650 165 l 650 0 l 87 0 l 87 926 m 487 1041 l 430 984 l 180 1141 l 256 1254 l 487 1041 z "},"Í":{"ha":378,"x_min":64,"x_max":372,"o":"m 87 926 l 291 926 l 291 0 l 87 0 l 87 926 m 64 1041 l 296 1254 l 372 1141 l 121 984 l 64 1041 z "},"Î":{"ha":378,"x_min":-83,"x_max":461,"o":"m 87 926 l 291 926 l 291 0 l 87 0 l 87 926 m -83 993 l 189 1205 l 461 993 l 313 993 l 189 1073 l 65 993 l -83 993 z "},"Ï":{"ha":378,"x_min":-3,"x_max":381,"o":"m 87 926 l 291 926 l 291 0 l 87 0 l 87 926 m 227 1086 q 249 1138 227 1116 q 304 1159 272 1159 q 359 1138 336 1159 q 381 1086 381 1116 q 357 1033 381 1053 q 304 1013 332 1013 q 251 1034 275 1013 q 227 1086 227 1054 m -3 1086 q 20 1138 -3 1116 q 75 1159 43 1159 q 129 1138 106 1159 q 152 1086 152 1116 q 128 1034 152 1054 q 75 1013 104 1013 q 22 1033 47 1013 q -3 1086 -3 1053 z "},"Ì":{"ha":378,"x_min":4,"x_max":311,"o":"m 87 926 l 291 926 l 291 0 l 87 0 l 87 926 m 311 1041 l 254 984 l 4 1141 l 80 1254 l 311 1041 z "},"Ó":{"ha":781,"x_min":54,"x_max":726,"o":"m 726 463 q 391 -14 726 -14 q 139 107 224 -14 q 54 463 54 229 q 390 940 54 940 q 640 821 554 940 q 726 463 726 701 m 512 463 q 483 712 512 650 q 390 774 454 774 q 298 712 327 774 q 269 463 269 650 q 297 216 269 280 q 390 151 326 151 q 483 213 453 151 q 512 463 512 275 m 274 1054 l 505 1267 l 581 1154 l 331 997 l 274 1054 z "},"Ô":{"ha":781,"x_min":54,"x_max":726,"o":"m 726 463 q 391 -14 726 -14 q 139 107 224 -14 q 54 463 54 229 q 390 940 54 940 q 640 821 554 940 q 726 463 726 701 m 512 463 q 483 712 512 650 q 390 774 454 774 q 298 712 327 774 q 269 463 269 650 q 297 216 269 280 q 390 151 326 151 q 483 213 453 151 q 512 463 512 275 m 123 993 l 395 1205 l 667 993 l 519 993 l 395 1073 l 271 993 l 123 993 z "},"Ò":{"ha":781,"x_min":54,"x_max":726,"o":"m 726 463 q 391 -14 726 -14 q 139 107 224 -14 q 54 463 54 229 q 390 940 54 940 q 640 821 554 940 q 726 463 726 701 m 512 463 q 483 712 512 650 q 390 774 454 774 q 298 712 327 774 q 269 463 269 650 q 297 216 269 280 q 390 151 326 151 q 483 213 453 151 q 512 463 512 275 m 507 1054 l 450 997 l 199 1154 l 275 1267 l 507 1054 z "},"Ú":{"ha":804,"x_min":87,"x_max":717,"o":"m 87 926 l 291 926 l 291 397 q 301 241 291 285 q 343 174 311 197 q 422 151 376 151 q 503 176 473 151 q 540 243 533 201 q 547 397 547 284 l 547 926 l 717 926 l 717 405 q 699 172 717 249 q 607 41 681 96 q 405 -14 534 -14 q 215 26 284 -14 q 117 139 146 66 q 87 397 87 212 l 87 926 m 296 1041 l 528 1254 l 604 1141 l 353 984 l 296 1041 z "},"Û":{"ha":804,"x_min":79,"x_max":717,"o":"m 87 926 l 291 926 l 291 397 q 301 241 291 285 q 343 174 311 197 q 422 151 376 151 q 503 176 473 151 q 540 243 533 201 q 547 397 547 284 l 547 926 l 717 926 l 717 405 q 699 172 717 249 q 607 41 681 96 q 405 -14 534 -14 q 215 26 284 -14 q 117 139 146 66 q 87 397 87 212 l 87 926 m 79 1004 l 351 1217 l 623 1004 l 475 1004 l 351 1084 l 227 1004 l 79 1004 z "},"Ù":{"ha":804,"x_min":87,"x_max":717,"o":"m 87 926 l 291 926 l 291 397 q 301 241 291 285 q 343 174 311 197 q 422 151 376 151 q 503 176 473 151 q 540 243 533 201 q 547 397 547 284 l 547 926 l 717 926 l 717 405 q 699 172 717 249 q 607 41 681 96 q 405 -14 534 -14 q 215 26 284 -14 q 117 139 146 66 q 87 397 87 212 l 87 926 m 528 1041 l 471 984 l 220 1141 l 296 1254 l 528 1041 z "},"ı":{"ha":331,"x_min":70,"x_max":261,"o":"m 70 685 l 261 685 l 261 0 l 70 0 l 70 685 z "},"ˆ":{"ha":639,"x_min":47,"x_max":591,"o":"m 47 768 l 319 980 l 591 768 l 444 768 l 319 848 l 195 768 l 47 768 z "},"˜":{"ha":639,"x_min":96,"x_max":543,"o":"m 482 939 l 543 895 q 387 791 473 791 q 302 814 355 791 q 219 841 242 841 q 155 798 193 841 l 96 844 q 245 941 172 941 q 334 917 279 941 q 417 890 395 890 q 482 939 448 890 z "},"ˉ":{"ha":639,"x_min":129,"x_max":510,"o":"m 129 911 l 510 911 l 510 811 l 129 811 l 129 911 z "},"˘":{"ha":639,"x_min":95,"x_max":544,"o":"m 95 950 l 204 950 q 319 879 233 879 q 435 950 406 879 l 544 950 q 319 780 496 780 q 95 950 144 780 z "},"˙":{"ha":639,"x_min":233,"x_max":406,"o":"m 233 861 q 259 921 233 896 q 319 945 284 945 q 381 920 355 945 q 406 861 406 895 q 380 801 406 825 q 320 777 354 777 q 259 801 286 777 q 233 861 233 825 z "},"˚":{"ha":639,"x_min":189,"x_max":450,"o":"m 189 882 q 228 977 189 939 q 319 1015 267 1015 q 411 977 372 1015 q 450 882 450 939 q 409 788 450 824 q 319 752 368 752 q 230 788 271 752 q 189 882 189 825 m 267 883 q 284 843 267 859 q 319 828 300 828 q 355 843 339 828 q 372 883 372 859 q 356 923 372 907 q 319 939 340 939 q 283 923 299 939 q 267 883 267 907 z "},"¸":{"ha":639,"x_min":189,"x_max":478,"o":"m 290 0 l 368 0 l 341 -69 q 368 -67 359 -67 q 447 -96 415 -67 q 478 -175 478 -125 q 441 -259 478 -227 q 338 -291 404 -291 q 189 -242 267 -291 l 212 -186 q 321 -220 277 -220 q 370 -178 370 -220 q 347 -136 370 -153 q 291 -120 324 -120 q 245 -123 273 -120 l 290 0 z "},"˝":{"ha":639,"x_min":176,"x_max":633,"o":"m 344 996 l 421 912 l 227 758 l 176 810 l 344 996 m 556 996 l 633 912 l 439 758 l 388 809 l 556 996 z "},"˛":{"ha":639,"x_min":258,"x_max":512,"o":"m 426 0 q 364 -109 364 -58 q 453 -181 364 -181 q 498 -178 484 -181 l 512 -242 q 433 -253 469 -253 q 300 -218 342 -253 q 258 -130 258 -182 q 353 0 258 -55 l 426 0 z "},"ˇ":{"ha":639,"x_min":47,"x_max":591,"o":"m 47 967 l 195 967 l 319 886 l 444 967 l 591 967 l 319 755 l 47 967 z "},"Ł":{"ha":591,"x_min":9,"x_max":589,"o":"m 87 926 l 291 926 l 291 604 l 443 755 l 443 591 l 291 440 l 291 174 l 589 174 l 589 0 l 87 0 l 87 301 l 9 222 l 9 385 l 87 465 l 87 926 z "},"ł":{"ha":378,"x_min":10,"x_max":368,"o":"m 94 926 l 284 926 l 284 614 l 368 694 l 368 558 l 284 479 l 284 0 l 94 0 l 94 353 l 10 269 l 10 404 l 94 488 l 94 926 z "},"Š":{"ha":710,"x_min":22,"x_max":672,"o":"m 654 724 l 486 660 q 354 774 450 774 q 283 749 309 774 q 257 690 257 724 q 288 627 257 650 q 417 566 319 604 q 558 500 507 532 q 641 411 609 467 q 672 281 672 355 q 583 69 672 152 q 344 -14 494 -14 q 22 240 92 -14 l 200 291 q 349 151 233 151 q 434 179 401 151 q 467 251 467 206 q 444 312 467 285 q 338 368 421 338 q 180 437 232 406 q 94 525 127 468 q 60 656 60 583 q 140 860 60 781 q 353 940 220 940 q 654 724 594 940 m 93 1195 l 241 1195 l 365 1114 l 489 1195 l 637 1195 l 365 983 l 93 1195 z "},"š":{"ha":568,"x_min":19,"x_max":563,"o":"m 522 520 l 386 479 q 286 572 359 572 q 226 513 226 572 q 248 461 226 479 q 340 419 271 444 q 456 370 419 391 q 517 307 492 349 q 543 210 543 264 q 474 50 543 115 q 283 -14 406 -14 q 26 190 52 -14 l 178 214 q 286 112 197 112 q 362 176 362 112 q 340 227 362 210 q 253 265 317 245 q 91 357 135 303 q 47 481 47 410 q 116 640 47 580 q 290 699 186 699 q 522 520 473 699 m 19 967 l 167 967 l 291 886 l 415 967 l 563 967 l 291 755 l 19 967 z "},"Ž":{"ha":639,"x_min":1,"x_max":637,"o":"m 30 926 l 625 926 l 625 781 l 237 165 l 637 165 l 637 0 l 1 0 l 1 142 l 391 760 l 30 760 l 30 926 m 61 1195 l 209 1195 l 333 1114 l 457 1195 l 605 1195 l 333 983 l 61 1195 z "},"ž":{"ha":497,"x_min":-1,"x_max":543,"o":"m 52 685 l 479 685 l 479 562 l 224 136 l 486 136 l 486 0 l 28 0 l 28 136 l 276 549 l 52 549 l 52 685 m -1 967 l 147 967 l 271 886 l 395 967 l 543 967 l 271 755 l -1 967 z "},"¦":{"ha":694,"x_min":243,"x_max":451,"o":"m 243 926 l 451 926 l 451 438 l 243 438 l 243 926 m 243 213 l 451 213 l 451 -231 l 243 -231 l 243 213 z "},"Ð":{"ha":781,"x_min":9,"x_max":734,"o":"m 87 926 l 307 926 q 539 887 450 926 q 681 745 628 848 q 734 467 734 642 q 702 245 734 342 q 616 93 669 149 q 497 19 564 38 q 331 0 431 0 l 87 0 l 87 399 l 9 399 l 9 538 l 87 538 l 87 926 m 291 767 l 291 538 l 427 538 l 427 399 l 291 399 l 291 159 l 326 159 q 435 186 396 159 q 497 281 473 213 q 520 476 520 349 q 494 658 520 594 q 430 744 469 722 q 326 767 391 767 l 291 767 z "},"ð":{"ha":639,"x_min":41,"x_max":598,"o":"m 382 926 l 471 981 l 513 911 l 426 859 q 598 331 598 585 q 532 80 598 175 q 323 -14 466 -14 q 41 342 41 -14 q 110 608 41 519 q 275 698 178 698 q 365 667 325 698 q 311 789 342 735 l 216 733 l 175 802 l 271 860 l 223 937 l 331 1002 l 382 926 m 401 342 q 383 519 401 473 q 320 566 365 566 q 258 522 277 566 q 239 342 239 478 q 255 168 239 217 q 320 119 271 119 q 384 168 367 119 q 401 342 401 216 z "},"Ý":{"ha":615,"x_min":-39,"x_max":654,"o":"m -39 926 l 184 926 l 315 588 l 455 926 l 654 926 l 397 391 l 397 0 l 193 0 l 193 391 l -39 926 m 207 1041 l 438 1254 l 514 1141 l 264 984 l 207 1041 z "},"ý":{"ha":497,"x_min":-19,"x_max":518,"o":"m -19 685 l 172 685 l 264 267 l 353 685 l 518 685 l 312 -11 q 261 -151 282 -111 q 198 -217 240 -191 q 91 -243 156 -243 q 9 -232 51 -243 l 9 -81 q 63 -85 38 -85 q 139 -67 119 -85 q 178 13 160 -49 l -19 685 m 160 816 l 391 1029 l 467 916 l 217 759 l 160 816 z "},"Þ":{"ha":710,"x_min":87,"x_max":700,"o":"m 87 926 l 291 926 l 291 800 l 354 800 q 543 779 475 800 q 655 687 610 758 q 700 510 700 615 q 663 342 700 408 q 562 246 627 275 q 363 216 497 216 l 291 216 l 291 0 l 87 0 l 87 926 m 291 650 l 291 376 l 354 376 q 461 413 436 376 q 486 515 486 451 q 467 599 486 567 q 424 641 448 631 q 354 650 399 650 l 291 650 z "},"þ":{"ha":663,"x_min":71,"x_max":622,"o":"m 71 926 l 258 926 l 258 598 q 407 694 316 694 q 562 606 501 694 q 622 354 622 519 q 561 82 622 174 q 390 -9 500 -9 q 262 51 311 -9 l 258 -232 l 71 -232 l 71 926 m 258 280 q 274 152 258 182 q 339 123 290 123 q 404 162 382 123 q 425 353 425 201 q 406 526 425 484 q 348 568 388 568 q 281 528 304 568 q 258 410 258 488 l 258 280 z "},"−":{"ha":710,"x_min":71,"x_max":639,"o":"m 639 389 l 71 389 l 71 536 l 639 536 l 639 389 z "},"×":{"ha":710,"x_min":89,"x_max":621,"o":"m 355 571 l 513 729 l 621 621 l 463 463 l 621 305 l 513 197 l 355 355 l 197 197 l 89 305 l 246 463 l 89 621 l 197 729 l 355 571 z "},"¹":{"ha":473,"x_min":87,"x_max":437,"o":"m 223 930 l 339 930 l 339 479 l 437 479 l 437 370 l 87 370 l 87 479 l 186 479 l 186 759 q 87 699 138 720 l 87 828 q 223 930 170 866 z "},"²":{"ha":473,"x_min":21,"x_max":435,"o":"m 162 714 l 21 739 q 230 934 51 934 q 376 885 326 934 q 426 768 426 836 q 383 649 426 711 q 187 497 340 587 l 435 497 l 423 370 l 23 370 l 23 491 q 228 669 190 620 q 267 762 267 718 q 223 817 267 817 q 162 714 170 817 z "},"³":{"ha":473,"x_min":11,"x_max":430,"o":"m 159 754 l 23 777 q 232 934 67 934 q 370 891 321 934 q 418 785 418 849 q 328 663 418 703 q 430 529 430 627 q 374 408 430 453 q 225 362 317 362 q 11 541 34 362 l 149 561 q 214 479 154 479 q 274 541 274 479 q 194 607 274 607 l 146 607 l 146 709 l 194 709 q 267 766 267 709 q 218 821 267 821 q 159 754 171 821 z "},"½":{"ha":1112,"x_min":75,"x_max":1046,"o":"m 211 930 l 327 930 l 327 479 l 425 479 l 425 370 l 75 370 l 75 479 l 174 479 l 174 759 q 75 699 125 720 l 75 828 q 211 930 158 866 m 720 926 l 832 926 l 391 0 l 281 0 l 720 926 m 773 344 l 632 369 q 841 564 662 564 q 987 514 937 564 q 1037 398 1037 465 q 994 279 1037 340 q 798 127 951 217 l 1046 127 l 1034 0 l 634 0 l 634 121 q 839 299 801 250 q 878 391 878 348 q 834 446 878 446 q 773 344 781 446 z "},"¼":{"ha":1112,"x_min":71,"x_max":1068,"o":"m 208 930 l 323 930 l 323 479 l 421 479 l 421 370 l 71 370 l 71 479 l 171 479 l 171 759 q 71 699 122 720 l 71 828 q 208 930 155 866 m 720 926 l 832 926 l 391 0 l 281 0 l 720 926 m 842 564 l 1001 564 l 1001 239 l 1068 239 l 1068 125 l 1001 125 l 1001 0 l 849 0 l 849 125 l 636 125 l 636 231 l 842 564 m 863 224 l 863 436 l 739 224 l 863 224 z "},"¾":{"ha":1112,"x_min":42,"x_max":1076,"o":"m 190 754 l 54 777 q 263 934 98 934 q 401 891 353 934 q 450 785 450 849 q 359 663 450 703 q 461 529 461 627 q 405 408 461 453 q 256 362 349 362 q 42 541 65 362 l 180 561 q 245 479 185 479 q 305 541 305 479 q 225 607 305 607 l 178 607 l 178 709 l 225 709 q 298 766 298 709 q 249 821 298 821 q 190 754 202 821 m 752 926 l 864 926 l 422 0 l 313 0 l 752 926 m 850 564 l 1008 564 l 1008 239 l 1076 239 l 1076 125 l 1008 125 l 1008 0 l 857 0 l 857 125 l 644 125 l 644 231 l 850 564 m 871 224 l 871 436 l 747 224 l 871 224 z "},"₣":{"ha":615,"x_min":7,"x_max":637,"o":"m 291 258 l 425 258 l 425 119 l 291 119 l 291 0 l 87 0 l 87 119 l 7 119 l 7 258 l 87 258 l 87 926 l 637 926 l 637 767 l 291 767 l 291 525 l 557 525 l 557 366 l 291 366 l 291 258 z "},"Ğ":{"ha":805,"x_min":54,"x_max":734,"o":"m 412 494 l 734 494 l 734 0 l 648 0 l 621 106 q 397 -14 547 -14 q 147 110 239 -14 q 54 445 54 235 q 145 807 54 673 q 415 940 237 940 q 734 623 699 940 l 551 593 q 419 774 532 774 q 310 707 351 774 q 269 453 269 640 q 309 219 269 287 q 426 151 349 151 q 551 334 550 151 l 412 334 l 412 494 m 195 1175 l 304 1175 q 419 1104 332 1104 q 534 1175 505 1104 l 644 1175 q 419 1005 595 1005 q 195 1175 244 1005 z "},"ğ":{"ha":639,"x_min":29,"x_max":653,"o":"m 653 798 l 653 673 q 612 678 631 678 q 539 616 552 678 q 590 479 590 563 q 521 331 590 387 q 342 275 452 275 q 253 286 300 275 q 208 230 208 262 q 233 196 208 204 q 370 182 258 188 q 525 161 473 176 q 610 103 576 147 q 644 -13 644 59 q 310 -242 644 -242 q 29 -79 29 -242 q 141 49 29 12 q 52 168 52 91 q 170 318 52 256 q 68 489 68 368 q 138 645 68 591 q 326 699 208 699 q 472 669 404 699 q 509 773 479 742 q 600 804 538 804 q 653 798 630 804 m 393 486 q 332 596 393 596 q 280 569 296 596 q 265 481 265 543 q 331 377 265 377 q 378 401 364 377 q 393 486 393 426 m 247 30 q 186 -53 186 2 q 344 -122 186 -122 q 479 -50 479 -122 q 464 -7 479 -24 q 427 14 450 9 q 332 22 404 18 q 247 30 289 24 m 107 950 l 216 950 q 332 879 245 879 q 447 950 418 879 l 556 950 q 332 780 508 780 q 107 950 157 780 z "},"İ":{"ha":378,"x_min":87,"x_max":291,"o":"m 87 926 l 291 926 l 291 0 l 87 0 l 87 926 m 103 1086 q 129 1146 103 1121 q 189 1171 154 1171 q 251 1145 225 1171 q 276 1086 276 1120 q 250 1026 276 1050 q 190 1002 224 1002 q 129 1026 155 1002 q 103 1086 103 1050 z "},"Ş":{"ha":710,"x_min":22,"x_max":672,"o":"m 457 -100 q 473 -116 457 -100 q 488 -180 488 -132 q 450 -267 488 -233 q 345 -300 411 -300 q 190 -250 270 -300 l 214 -188 q 326 -223 279 -223 q 370 -184 370 -223 q 350 -143 370 -159 q 290 -127 329 -127 l 247 -127 l 290 -12 q 22 240 79 18 l 200 291 q 349 151 233 151 q 434 179 401 151 q 467 251 467 206 q 444 312 467 285 q 338 368 421 338 q 180 437 232 406 q 94 525 127 468 q 60 656 60 583 q 140 860 60 781 q 353 940 220 940 q 654 724 594 940 l 486 660 q 354 774 450 774 q 283 749 310 774 q 257 690 257 724 q 288 627 257 650 q 417 566 319 604 q 558 500 507 532 q 641 411 609 467 q 672 281 672 355 q 590 75 672 157 q 367 -14 507 -7 l 347 -71 q 374 -69 364 -69 q 457 -100 425 -69 z "},"ş":{"ha":568,"x_min":26,"x_max":543,"o":"m 420 -175 q 382 -259 420 -227 q 279 -291 345 -291 q 130 -242 208 -291 l 153 -186 q 262 -220 219 -220 q 311 -178 311 -220 q 289 -136 311 -153 q 232 -120 266 -120 q 186 -123 214 -120 l 227 -10 q 26 190 47 16 l 178 214 q 286 112 197 112 q 362 176 362 112 q 340 227 362 210 q 253 265 317 245 q 91 357 135 303 q 47 481 47 410 q 116 640 47 580 q 290 699 186 699 q 522 520 473 699 l 386 479 q 286 572 359 572 q 226 513 226 572 q 248 461 226 479 q 340 419 271 444 q 456 370 419 391 q 517 307 492 349 q 543 210 543 264 q 480 57 543 121 q 304 -14 418 -7 l 282 -69 q 309 -67 300 -67 q 388 -96 356 -67 q 420 -175 420 -125 z "},"Ć":{"ha":758,"x_min":54,"x_max":726,"o":"m 538 337 l 726 326 q 630 80 715 175 q 404 -14 545 -14 q 144 113 233 -14 q 54 462 54 239 q 143 813 54 686 q 407 940 232 940 q 722 582 696 940 l 536 568 q 408 774 529 774 q 306 708 344 774 q 269 450 269 642 q 303 215 269 279 q 407 151 338 151 q 538 337 518 151 m 289 1041 l 520 1254 l 596 1141 l 346 984 l 289 1041 z "},"ć":{"ha":615,"x_min":41,"x_max":582,"o":"m 582 433 l 404 426 q 384 521 400 489 q 329 553 368 553 q 233 351 233 553 q 256 187 233 234 q 326 140 279 140 q 404 267 397 140 l 582 256 q 313 -14 558 -14 q 111 75 181 -14 q 41 340 41 164 q 114 607 41 515 q 321 699 188 699 q 582 433 561 699 m 225 816 l 456 1029 l 532 916 l 282 759 l 225 816 z "},"Č":{"ha":758,"x_min":54,"x_max":726,"o":"m 538 337 l 726 326 q 630 80 715 175 q 404 -14 545 -14 q 144 113 233 -14 q 54 462 54 239 q 143 813 54 686 q 407 940 232 940 q 722 582 696 940 l 536 568 q 408 774 529 774 q 306 708 344 774 q 269 450 269 642 q 303 215 269 279 q 407 151 338 151 q 538 337 518 151 m 132 1192 l 280 1192 l 404 1112 l 528 1192 l 676 1192 l 404 980 l 132 1192 z "},"č":{"ha":615,"x_min":23,"x_max":582,"o":"m 564 433 l 387 426 q 366 521 382 489 q 311 553 350 553 q 215 351 215 553 q 238 187 215 234 q 308 140 262 140 q 387 267 380 140 l 564 256 q 296 -14 541 -14 q 93 75 163 -14 q 23 340 23 164 q 97 607 23 515 q 303 699 170 699 q 564 433 543 699 m 38 967 l 186 967 l 310 886 l 434 967 l 582 967 l 310 755 l 38 967 z "},"đ":{"ha":663,"x_min":41,"x_max":667,"o":"m 667 753 l 593 753 l 593 0 l 416 0 l 416 113 q 260 -9 373 -9 q 96 87 151 -9 q 41 340 41 184 q 104 607 41 519 q 268 694 166 694 q 406 621 364 694 l 406 753 l 271 753 l 271 846 l 406 846 l 406 926 l 593 926 l 593 846 l 667 846 l 667 753 m 406 398 q 384 533 406 499 q 322 568 363 568 q 257 520 274 568 q 239 323 239 473 q 258 168 239 212 q 321 123 277 123 q 381 153 357 123 q 406 277 406 183 l 406 398 z "},"­":{"ha":378,"x_min":52,"x_max":328,"o":"m 52 426 l 328 426 l 328 276 l 52 276 l 52 426 z "},"¯":{"ha":694,"x_min":0,"x_max":694,"o":"m 0 1128 l 694 1128 l 694 1005 l 0 1005 l 0 1128 z "},"·":{"ha":355,"x_min":83,"x_max":272,"o":"m 83 459 l 272 459 l 272 254 l 83 254 l 83 459 z "},"Ā":{"ha":710,"x_min":-27,"x_max":720,"o":"m 251 926 l 456 926 l 720 0 l 512 0 l 466 191 l 205 191 l 160 0 l -27 0 l 251 926 m 427 350 l 334 728 l 244 350 l 427 350 m 155 1136 l 536 1136 l 536 1036 l 155 1036 l 155 1136 z "},"ā":{"ha":663,"x_min":50,"x_max":604,"o":"m 254 467 l 73 485 q 160 644 85 588 q 349 699 235 699 q 504 662 446 699 q 577 576 562 625 q 593 425 593 528 l 593 152 q 604 0 593 24 l 427 0 q 418 105 418 28 q 230 -14 355 -14 q 100 34 150 -14 q 50 173 50 81 q 125 350 50 288 q 402 425 201 413 l 402 451 q 388 546 402 519 q 334 572 374 572 q 254 467 261 572 m 402 328 q 283 291 319 318 q 248 198 248 263 q 311 111 248 111 q 374 150 346 111 q 402 294 402 189 l 402 328 m 155 911 l 536 911 l 536 811 l 155 811 l 155 911 z "},"Ă":{"ha":710,"x_min":-27,"x_max":720,"o":"m 251 926 l 456 926 l 720 0 l 512 0 l 466 191 l 205 191 l 160 0 l -27 0 l 251 926 m 427 350 l 334 728 l 244 350 l 427 350 m 121 1181 l 231 1181 q 346 1110 259 1110 q 461 1181 432 1110 l 570 1181 q 346 1011 522 1011 q 121 1181 171 1011 z "},"ă":{"ha":663,"x_min":50,"x_max":604,"o":"m 254 467 l 73 485 q 160 644 85 588 q 349 699 235 699 q 504 662 446 699 q 577 576 562 625 q 593 425 593 528 l 593 152 q 604 0 593 24 l 427 0 q 418 105 418 28 q 230 -14 355 -14 q 100 34 150 -14 q 50 173 50 81 q 125 350 50 288 q 402 425 201 413 l 402 451 q 388 546 402 519 q 334 572 374 572 q 254 467 261 572 m 402 328 q 283 291 319 318 q 248 198 248 263 q 311 111 248 111 q 374 150 346 111 q 402 294 402 189 l 402 328 m 121 950 l 231 950 q 346 879 259 879 q 461 950 432 879 l 570 950 q 346 780 522 780 q 121 950 171 780 z "},"Ą":{"ha":710,"x_min":-27,"x_max":809,"o":"m 547 -134 q 646 0 547 -56 l 512 0 l 466 191 l 205 191 l 160 0 l -27 0 l 251 926 l 456 926 l 720 0 q 656 -112 656 -59 q 749 -187 656 -187 q 794 -184 779 -187 l 809 -250 q 726 -261 764 -261 q 591 -225 635 -261 q 547 -134 547 -189 m 427 350 l 334 728 l 244 350 l 427 350 z "},"ą":{"ha":663,"x_min":50,"x_max":690,"o":"m 254 467 l 73 485 q 161 644 85 589 q 347 699 236 699 q 496 668 439 699 q 573 587 553 637 q 593 425 593 537 l 593 152 q 604 0 593 24 q 543 -109 543 -58 q 631 -181 543 -181 q 676 -178 662 -181 l 690 -242 q 611 -253 646 -253 q 478 -218 521 -253 q 436 -130 436 -183 q 532 0 436 -54 l 427 0 q 418 105 418 28 q 230 -14 355 -14 q 100 34 150 -14 q 50 173 50 81 q 125 350 50 288 q 402 425 201 413 l 402 451 q 388 546 402 519 q 334 572 374 572 q 254 467 261 572 m 402 328 q 283 291 319 318 q 248 198 248 263 q 311 111 248 111 q 374 150 346 111 q 402 294 402 189 l 402 328 z "},"Ĉ":{"ha":758,"x_min":54,"x_max":726,"o":"m 538 337 l 726 326 q 630 80 715 175 q 404 -14 545 -14 q 144 113 233 -14 q 54 462 54 239 q 143 813 54 686 q 407 940 232 940 q 722 582 696 940 l 536 568 q 408 774 529 774 q 306 708 344 774 q 269 450 269 642 q 303 215 269 279 q 407 151 338 151 q 538 337 518 151 m 132 1009 l 404 1221 l 676 1009 l 528 1009 l 404 1089 l 280 1009 l 132 1009 z "},"ĉ":{"ha":615,"x_min":41,"x_max":597,"o":"m 582 433 l 404 426 q 384 521 400 489 q 329 553 368 553 q 233 351 233 553 q 256 187 233 234 q 326 140 279 140 q 404 267 397 140 l 582 256 q 313 -14 558 -14 q 111 75 181 -14 q 41 340 41 164 q 114 607 41 515 q 321 699 188 699 q 582 433 561 699 m 53 768 l 325 980 l 597 768 l 449 768 l 325 848 l 201 768 l 53 768 z "},"Ċ":{"ha":758,"x_min":54,"x_max":726,"o":"m 538 337 l 726 326 q 630 80 715 175 q 404 -14 545 -14 q 144 113 233 -14 q 54 462 54 239 q 143 813 54 686 q 407 940 232 940 q 722 582 696 940 l 536 568 q 408 774 529 774 q 306 708 344 774 q 269 450 269 642 q 303 215 269 279 q 407 151 338 151 q 538 337 518 151 m 315 1086 q 341 1146 315 1121 q 401 1171 366 1171 q 463 1145 437 1171 q 488 1086 488 1120 q 462 1026 488 1050 q 402 1002 436 1002 q 341 1026 368 1002 q 315 1086 315 1050 z "},"ċ":{"ha":615,"x_min":41,"x_max":582,"o":"m 582 433 l 404 426 q 384 521 400 489 q 329 553 368 553 q 233 351 233 553 q 256 187 233 234 q 326 140 279 140 q 404 267 397 140 l 582 256 q 313 -14 558 -14 q 111 75 181 -14 q 41 340 41 164 q 114 607 41 515 q 321 699 188 699 q 582 433 561 699 m 241 861 q 267 921 241 896 q 328 945 292 945 q 389 920 363 945 q 414 861 414 895 q 388 801 414 825 q 328 777 362 777 q 268 801 294 777 q 241 861 241 825 z "},"Ď":{"ha":781,"x_min":87,"x_max":734,"o":"m 87 926 l 307 926 q 538 887 449 926 q 681 746 627 849 q 734 467 734 643 q 702 246 734 342 q 616 94 669 149 q 497 19 564 38 q 331 0 431 0 l 87 0 l 87 926 m 291 767 l 291 159 l 326 159 q 435 186 396 159 q 496 281 473 214 q 519 476 519 349 q 494 658 519 594 q 430 744 469 722 q 326 767 392 767 l 291 767 m 93 1192 l 241 1192 l 365 1112 l 489 1192 l 637 1192 l 365 980 l 93 1192 z "},"ď":{"ha":808,"x_min":41,"x_max":817,"o":"m 406 926 l 593 926 l 593 0 l 416 0 l 416 113 q 260 -9 373 -9 q 96 87 150 -9 q 41 340 41 183 q 103 606 41 518 q 269 694 165 694 q 406 621 365 694 l 406 926 m 406 398 q 384 533 406 499 q 322 568 363 568 q 257 520 274 568 q 239 323 239 473 q 258 168 239 212 q 321 123 277 123 q 381 153 357 123 q 406 277 406 183 l 406 398 m 675 926 l 817 926 l 709 654 l 637 654 l 675 926 z "},"Đ":{"ha":781,"x_min":9,"x_max":734,"o":"m 87 926 l 307 926 q 539 887 450 926 q 681 745 628 848 q 734 467 734 642 q 702 245 734 342 q 616 93 669 149 q 497 19 564 38 q 331 0 431 0 l 87 0 l 87 399 l 9 399 l 9 538 l 87 538 l 87 926 m 291 767 l 291 538 l 427 538 l 427 399 l 291 399 l 291 159 l 326 159 q 435 186 396 159 q 497 281 473 213 q 520 476 520 349 q 494 658 520 594 q 430 744 469 722 q 326 767 391 767 l 291 767 z "},"Ē":{"ha":663,"x_min":87,"x_max":650,"o":"m 87 926 l 650 926 l 650 767 l 291 767 l 291 552 l 570 552 l 570 393 l 291 393 l 291 165 l 650 165 l 650 0 l 87 0 l 87 926 m 178 1136 l 559 1136 l 559 1036 l 178 1036 l 178 1136 z "},"ē":{"ha":639,"x_min":41,"x_max":597,"o":"m 597 311 l 238 311 l 238 273 q 263 149 238 180 q 329 118 288 118 q 427 235 416 118 l 597 224 q 326 -14 552 -14 q 113 80 186 -14 q 41 332 41 174 q 118 605 41 511 q 324 699 195 699 q 519 615 441 699 q 597 311 597 532 m 417 421 q 418 440 418 433 q 328 572 418 572 q 239 421 240 572 l 417 421 m 142 911 l 524 911 l 524 811 l 142 811 l 142 911 z "},"Ĕ":{"ha":663,"x_min":87,"x_max":650,"o":"m 87 926 l 650 926 l 650 767 l 291 767 l 291 552 l 570 552 l 570 393 l 291 393 l 291 165 l 650 165 l 650 0 l 87 0 l 87 926 m 144 1181 l 253 1181 q 368 1110 281 1110 q 484 1181 454 1110 l 593 1181 q 368 1011 545 1011 q 144 1181 193 1011 z "},"ĕ":{"ha":639,"x_min":41,"x_max":597,"o":"m 597 311 l 238 311 l 238 273 q 263 149 238 180 q 329 118 288 118 q 427 235 416 118 l 597 224 q 326 -14 552 -14 q 113 80 186 -14 q 41 332 41 174 q 118 605 41 511 q 324 699 195 699 q 519 615 441 699 q 597 311 597 532 m 417 421 q 418 440 418 433 q 328 572 418 572 q 239 421 240 572 l 417 421 m 109 950 l 218 950 q 333 879 246 879 q 448 950 419 879 l 557 950 q 333 780 509 780 q 109 950 158 780 z "},"Ė":{"ha":663,"x_min":87,"x_max":650,"o":"m 87 926 l 650 926 l 650 767 l 291 767 l 291 552 l 570 552 l 570 393 l 291 393 l 291 165 l 650 165 l 650 0 l 87 0 l 87 926 m 283 1086 q 308 1146 283 1121 q 369 1171 334 1171 q 430 1145 405 1171 q 456 1086 456 1120 q 430 1026 456 1050 q 370 1002 404 1002 q 309 1026 335 1002 q 283 1086 283 1050 z "},"ė":{"ha":639,"x_min":41,"x_max":597,"o":"m 597 311 l 238 311 l 238 273 q 263 149 238 180 q 329 118 288 118 q 427 235 416 118 l 597 224 q 326 -14 552 -14 q 113 80 186 -14 q 41 332 41 174 q 118 605 41 511 q 324 699 195 699 q 519 615 441 699 q 597 311 597 532 m 417 421 q 418 440 418 433 q 328 572 418 572 q 239 421 240 572 l 417 421 m 246 861 q 272 921 246 896 q 332 945 297 945 q 394 920 368 945 q 419 861 419 895 q 393 801 419 825 q 333 777 367 777 q 272 801 298 777 q 246 861 246 825 z "},"Ę":{"ha":663,"x_min":87,"x_max":740,"o":"m 87 926 l 650 926 l 650 767 l 291 767 l 291 552 l 570 552 l 570 393 l 291 393 l 291 165 l 650 165 l 650 0 q 587 -112 587 -59 q 680 -187 587 -187 q 725 -184 710 -187 l 740 -250 q 656 -261 695 -261 q 522 -225 566 -261 q 477 -134 477 -189 q 576 0 477 -56 l 87 0 l 87 926 z "},"ę":{"ha":639,"x_min":41,"x_max":597,"o":"m 557 -169 l 571 -233 q 492 -243 528 -243 q 359 -209 401 -243 q 317 -121 317 -174 q 390 -8 317 -54 q 339 -15 357 -15 q 110 84 180 -15 q 41 332 41 182 q 118 605 41 511 q 324 699 195 699 q 525 608 452 699 q 597 311 597 518 l 238 311 l 238 273 q 263 149 238 180 q 329 118 288 118 q 427 235 416 118 l 597 224 q 562 118 583 156 q 492 32 541 80 q 424 -98 424 -36 q 511 -172 424 -172 q 557 -169 547 -172 m 417 421 q 418 440 418 433 q 328 572 418 572 q 239 421 240 572 l 417 421 z "},"Ě":{"ha":663,"x_min":87,"x_max":650,"o":"m 87 926 l 650 926 l 650 767 l 291 767 l 291 552 l 570 552 l 570 393 l 291 393 l 291 165 l 650 165 l 650 0 l 87 0 l 87 926 m 97 1192 l 245 1192 l 369 1112 l 493 1192 l 641 1192 l 369 980 l 97 1192 z "},"ě":{"ha":639,"x_min":41,"x_max":605,"o":"m 597 311 l 238 311 l 238 273 q 263 149 238 180 q 329 118 288 118 q 427 235 416 118 l 597 224 q 326 -14 552 -14 q 113 80 186 -14 q 41 332 41 174 q 118 605 41 511 q 324 699 195 699 q 519 615 441 699 q 597 311 597 532 m 417 421 q 418 440 418 433 q 328 572 418 572 q 239 421 240 572 l 417 421 m 61 967 l 209 967 l 333 886 l 457 967 l 605 967 l 333 755 l 61 967 z "},"Ĝ":{"ha":805,"x_min":54,"x_max":734,"o":"m 412 494 l 734 494 l 734 0 l 648 0 l 621 106 q 397 -14 547 -14 q 147 110 239 -14 q 54 445 54 235 q 145 807 54 673 q 415 940 237 940 q 734 623 699 940 l 551 593 q 419 774 532 774 q 310 707 351 774 q 269 453 269 640 q 309 219 269 287 q 426 151 349 151 q 551 334 550 151 l 412 334 l 412 494 m 146 1009 l 418 1221 l 690 1009 l 542 1009 l 418 1089 l 294 1009 l 146 1009 z "},"ĝ":{"ha":639,"x_min":27,"x_max":653,"o":"m 653 798 l 653 673 q 612 678 631 678 q 539 616 552 678 q 590 479 590 563 q 521 331 590 387 q 342 275 452 275 q 253 286 300 275 q 208 230 208 262 q 233 196 208 204 q 370 182 258 188 q 525 161 473 176 q 610 103 576 147 q 644 -13 644 59 q 310 -242 644 -242 q 29 -79 29 -242 q 141 49 29 12 q 52 168 52 91 q 170 318 52 256 q 68 489 68 368 q 138 645 68 591 q 326 699 208 699 q 472 669 404 699 q 509 773 479 742 q 600 804 538 804 q 653 798 630 804 m 393 486 q 332 596 393 596 q 280 569 296 596 q 265 481 265 543 q 331 377 265 377 q 378 401 364 377 q 393 486 393 426 m 247 30 q 186 -53 186 2 q 344 -122 186 -122 q 479 -50 479 -122 q 464 -7 479 -24 q 427 14 450 9 q 332 22 404 18 q 247 30 289 24 m 27 836 l 299 1048 l 571 836 l 423 836 l 299 916 l 175 836 l 27 836 z "},"Ġ":{"ha":805,"x_min":54,"x_max":734,"o":"m 412 494 l 734 494 l 734 0 l 648 0 l 621 106 q 397 -14 547 -14 q 147 110 239 -14 q 54 445 54 235 q 145 807 54 673 q 415 940 237 940 q 734 623 699 940 l 551 593 q 419 774 532 774 q 310 707 351 774 q 269 453 269 640 q 309 219 269 287 q 426 151 349 151 q 551 334 550 151 l 412 334 l 412 494 m 331 1086 q 356 1146 331 1121 q 417 1171 382 1171 q 478 1145 453 1171 q 504 1086 504 1120 q 478 1026 504 1050 q 418 1002 452 1002 q 357 1026 383 1002 q 331 1086 331 1050 z "},"ġ":{"ha":639,"x_min":29,"x_max":653,"o":"m 653 798 l 653 673 q 612 678 631 678 q 539 616 552 678 q 590 479 590 563 q 521 331 590 387 q 342 275 452 275 q 253 286 300 275 q 208 230 208 262 q 233 196 208 204 q 370 182 258 188 q 525 161 473 176 q 610 103 576 147 q 644 -13 644 59 q 310 -242 644 -242 q 29 -79 29 -242 q 141 49 29 12 q 52 168 52 91 q 170 318 52 256 q 68 489 68 368 q 138 645 68 591 q 326 699 208 699 q 472 669 404 699 q 509 773 479 742 q 600 804 538 804 q 653 798 630 804 m 393 486 q 332 596 393 596 q 280 569 296 596 q 265 481 265 543 q 331 377 265 377 q 378 401 364 377 q 393 486 393 426 m 247 30 q 186 -53 186 2 q 344 -122 186 -122 q 479 -50 479 -122 q 464 -7 479 -24 q 427 14 450 9 q 332 22 404 18 q 247 30 289 24 m 245 861 q 271 921 245 896 q 332 945 296 945 q 393 920 368 945 q 418 861 418 895 q 392 801 418 825 q 332 777 366 777 q 272 801 298 777 q 245 861 245 825 z "},"Ģ":{"ha":805,"x_min":54,"x_max":734,"o":"m 412 494 l 734 494 l 734 0 l 648 0 l 621 106 q 397 -14 547 -14 q 147 110 239 -14 q 54 445 54 235 q 145 807 54 673 q 415 940 237 940 q 734 623 699 940 l 551 593 q 419 774 532 774 q 310 707 351 774 q 269 453 269 640 q 309 219 269 287 q 426 151 349 151 q 551 334 550 151 l 412 334 l 412 494 m 349 -74 l 491 -74 l 382 -332 l 311 -332 l 349 -74 z "},"ģ":{"ha":639,"x_min":29,"x_max":653,"o":"m 653 798 l 653 673 q 612 678 631 678 q 539 616 552 678 q 590 479 590 563 q 521 331 590 387 q 342 275 452 275 q 253 286 300 275 q 208 230 208 262 q 233 196 208 204 q 370 182 258 188 q 525 161 473 176 q 610 103 576 147 q 644 -13 644 59 q 310 -242 644 -242 q 29 -79 29 -242 q 141 49 29 12 q 52 168 52 91 q 170 318 52 256 q 68 489 68 368 q 138 645 68 591 q 326 699 208 699 q 472 669 404 699 q 509 773 479 742 q 600 804 538 804 q 653 798 630 804 m 393 486 q 332 596 393 596 q 280 569 296 596 q 265 481 265 543 q 331 377 265 377 q 378 401 364 377 q 393 486 393 426 m 247 30 q 186 -53 186 2 q 344 -122 186 -122 q 479 -50 479 -122 q 464 -7 479 -24 q 427 14 450 9 q 332 22 404 18 q 247 30 289 24 m 393 770 l 252 770 l 359 1027 l 431 1027 l 393 770 z "},"Ĥ":{"ha":804,"x_min":87,"x_max":717,"o":"m 87 926 l 291 926 l 291 552 l 513 552 l 513 926 l 717 926 l 717 0 l 513 0 l 513 378 l 291 378 l 291 0 l 87 0 l 87 926 m 130 1009 l 402 1221 l 674 1009 l 526 1009 l 402 1089 l 278 1009 l 130 1009 z "},"ĥ":{"ha":663,"x_min":-96,"x_max":602,"o":"m 71 926 l 262 926 l 262 612 q 430 699 313 699 q 540 667 500 699 q 591 584 581 634 q 602 439 602 534 l 602 0 l 411 0 l 411 439 q 398 529 411 507 q 347 551 386 551 q 285 530 308 551 q 262 434 262 509 l 262 0 l 71 0 l 71 926 m -96 1006 l 176 1219 l 448 1006 l 300 1006 l 176 1086 l 52 1006 l -96 1006 z "},"Ħ":{"ha":804,"x_min":-5,"x_max":809,"o":"m 291 814 l 514 814 l 514 926 l 718 926 l 718 814 l 809 814 l 809 663 l 718 663 l 718 0 l 514 0 l 514 378 l 291 378 l 291 0 l 88 0 l 88 663 l -5 663 l -5 814 l 88 814 l 88 926 l 291 926 l 291 814 m 291 663 l 291 552 l 514 552 l 514 663 l 291 663 z "},"ħ":{"ha":663,"x_min":-23,"x_max":602,"o":"m 261 872 l 510 872 l 510 761 l 261 761 l 261 612 q 430 699 313 699 q 539 667 499 699 q 591 585 580 635 q 602 439 602 534 l 602 0 l 411 0 l 411 439 q 398 529 411 507 q 347 551 386 551 q 284 529 307 551 q 261 434 261 508 l 261 0 l 71 0 l 71 761 l -23 761 l -23 872 l 71 872 l 71 926 l 261 926 l 261 872 z "},"Ĩ":{"ha":378,"x_min":-31,"x_max":415,"o":"m 87 926 l 291 926 l 291 0 l 87 0 l 87 926 m 355 1160 l 415 1115 q 260 1011 346 1011 q 174 1035 227 1011 q 92 1061 115 1061 q 27 1019 65 1061 l -31 1064 q 117 1161 44 1161 q 207 1137 151 1161 q 290 1111 268 1111 q 355 1160 320 1111 z "},"ĩ":{"ha":331,"x_min":-60,"x_max":386,"o":"m 70 685 l 261 685 l 261 0 l 70 0 l 70 685 m 326 939 l 386 895 q 231 791 317 791 q 145 814 198 791 q 62 841 85 841 q -2 798 36 841 l -60 844 q 88 941 15 941 q 178 917 122 941 q 260 890 239 890 q 326 939 291 890 z "},"Ī":{"ha":378,"x_min":-1,"x_max":380,"o":"m 87 926 l 291 926 l 291 0 l 87 0 l 87 926 m -1 1137 l 380 1137 l 380 1038 l -1 1038 l -1 1137 z "},"ī":{"ha":331,"x_min":-25,"x_max":356,"o":"m 70 685 l 261 685 l 261 0 l 70 0 l 70 685 m -25 911 l 356 911 l 356 811 l -25 811 l -25 911 z "},"Ĭ":{"ha":378,"x_min":-35,"x_max":414,"o":"m 87 926 l 291 926 l 291 0 l 87 0 l 87 926 m -35 1181 l 75 1181 q 190 1109 103 1109 q 305 1181 276 1109 l 414 1181 q 190 1010 366 1010 q -35 1181 15 1010 z "},"ĭ":{"ha":331,"x_min":-62,"x_max":387,"o":"m 70 685 l 261 685 l 261 0 l 70 0 l 70 685 m -62 950 l 47 950 q 163 879 76 879 q 278 950 249 879 l 387 950 q 163 780 339 780 q -62 950 -12 780 z "},"Į":{"ha":378,"x_min":87,"x_max":348,"o":"m 291 0 q 225 -64 237 -43 q 214 -111 214 -84 q 303 -187 214 -187 q 333 -184 315 -187 l 348 -250 q 267 -261 302 -261 q 151 -227 199 -261 q 104 -134 104 -193 q 212 0 104 -51 l 87 0 l 87 926 l 291 926 l 291 0 z "},"į":{"ha":331,"x_min":68,"x_max":315,"o":"m 262 741 l 68 741 l 68 930 l 262 930 l 262 741 m 261 0 q 207 -54 222 -31 q 191 -108 191 -77 q 215 -163 191 -143 q 266 -182 240 -182 q 300 -178 277 -182 l 315 -242 q 237 -253 271 -253 q 131 -221 178 -253 q 83 -129 83 -189 q 184 0 83 -58 l 70 0 l 70 685 l 261 685 l 261 0 z "},"Ĳ":{"ha":823,"x_min":87,"x_max":741,"o":"m 87 926 l 291 926 l 291 0 l 87 0 l 87 926 m 537 926 l 741 926 l 741 311 q 723 129 741 194 q 652 24 706 63 q 491 -14 597 -14 q 367 0 445 -14 l 367 170 q 449 161 416 161 q 520 190 503 161 q 537 311 537 218 l 537 926 z "},"ĳ":{"ha":663,"x_min":68,"x_max":600,"o":"m 262 741 l 68 741 l 68 930 l 262 930 l 262 741 m 70 685 l 261 685 l 261 0 l 70 0 l 70 685 m 600 741 l 406 741 l 406 930 l 600 930 l 600 741 m 408 685 l 599 685 l 599 22 q 587 -136 599 -83 q 532 -220 576 -189 q 422 -251 489 -251 q 319 -241 379 -251 l 319 -85 q 345 -87 334 -87 q 397 -66 387 -87 q 408 28 408 -45 l 408 685 z "},"Ĵ":{"ha":450,"x_min":-7,"x_max":537,"o":"m 163 926 l 367 926 l 367 311 q 350 129 367 194 q 278 24 332 63 q 117 -14 224 -14 q -7 0 71 -14 l -7 170 q 75 161 42 161 q 146 190 129 161 q 163 311 163 218 l 163 926 m -7 1004 l 265 1216 l 537 1004 l 389 1004 l 265 1084 l 141 1004 l -7 1004 z "},"ĵ":{"ha":331,"x_min":-89,"x_max":455,"o":"m -89 772 l 183 984 l 455 772 l 307 772 l 183 852 l 59 772 l -89 772 m 77 685 l 267 685 l 267 22 q 256 -137 267 -84 q 201 -220 244 -190 q 90 -251 157 -251 q -12 -241 47 -251 l -12 -85 q 14 -87 3 -87 q 66 -66 56 -87 q 77 28 77 -45 l 77 685 z "},"Ķ":{"ha":733,"x_min":87,"x_max":741,"o":"m 87 926 l 291 926 l 291 540 l 516 926 l 722 926 l 490 585 l 741 0 l 531 0 l 368 427 l 291 315 l 291 0 l 87 0 l 87 926 m 346 -74 l 488 -74 l 379 -332 l 308 -332 l 346 -74 z "},"ķ":{"ha":639,"x_min":71,"x_max":645,"o":"m 71 926 l 262 926 l 262 420 l 454 685 l 628 685 l 455 455 l 645 0 l 439 0 l 332 318 l 262 222 l 262 0 l 71 0 l 71 926 m 278 -74 l 420 -74 l 311 -332 l 240 -332 l 278 -74 z "},"ĸ":{"ha":639,"x_min":71,"x_max":645,"o":"m 71 685 l 262 685 l 262 420 l 454 685 l 628 685 l 455 455 l 645 0 l 439 0 l 332 318 l 262 222 l 262 0 l 71 0 l 71 685 z "},"Ĺ":{"ha":591,"x_min":87,"x_max":589,"o":"m 87 926 l 291 926 l 291 174 l 589 174 l 589 0 l 87 0 l 87 926 m 87 1041 l 319 1254 l 395 1141 l 144 984 l 87 1041 z "},"ĺ":{"ha":331,"x_min":65,"x_max":372,"o":"m 70 926 l 261 926 l 261 0 l 70 0 l 70 926 m 65 1041 l 296 1254 l 372 1141 l 122 984 l 65 1041 z "},"Ļ":{"ha":591,"x_min":87,"x_max":589,"o":"m 87 926 l 291 926 l 291 174 l 589 174 l 589 0 l 87 0 l 87 926 m 275 -74 l 416 -74 l 308 -332 l 237 -332 l 275 -74 z "},"ļ":{"ha":331,"x_min":60,"x_max":261,"o":"m 70 926 l 261 926 l 261 0 l 70 0 l 70 926 m 98 -74 l 239 -74 l 131 -332 l 60 -332 l 98 -74 z "},"Ľ":{"ha":591,"x_min":87,"x_max":589,"o":"m 87 926 l 291 926 l 291 174 l 589 174 l 589 0 l 87 0 l 87 926 m 425 926 l 566 926 l 458 654 l 387 654 l 425 926 z "},"ľ":{"ha":476,"x_min":70,"x_max":487,"o":"m 70 926 l 261 926 l 261 0 l 70 0 l 70 926 m 345 926 l 487 926 l 378 654 l 307 654 l 345 926 z "},"Ŀ":{"ha":591,"x_min":87,"x_max":589,"o":"m 87 926 l 291 926 l 291 174 l 589 174 l 589 0 l 87 0 l 87 926 m 381 577 l 589 577 l 589 367 l 381 368 l 381 577 z "},"ŀ":{"ha":526,"x_min":70,"x_max":526,"o":"m 70 926 l 261 926 l 261 0 l 70 0 l 70 926 m 331 572 l 526 572 l 526 368 l 331 368 l 331 572 z "},"Ń":{"ha":781,"x_min":80,"x_max":701,"o":"m 80 926 l 306 926 l 544 351 l 544 926 l 701 926 l 701 0 l 519 0 l 237 670 l 237 0 l 80 0 l 80 926 m 280 1041 l 511 1254 l 587 1141 l 337 984 l 280 1041 z "},"ń":{"ha":663,"x_min":71,"x_max":602,"o":"m 71 685 l 252 685 l 252 591 q 423 699 299 699 q 534 668 490 699 q 590 591 578 638 q 602 449 602 545 l 602 0 l 411 0 l 411 449 q 393 534 411 518 q 346 551 376 551 q 278 519 294 551 q 262 401 262 488 l 262 0 l 71 0 l 71 685 m 234 816 l 465 1029 l 541 916 l 291 759 l 234 816 z "},"Ņ":{"ha":781,"x_min":80,"x_max":701,"o":"m 80 926 l 306 926 l 544 351 l 544 926 l 701 926 l 701 0 l 519 0 l 237 670 l 237 0 l 80 0 l 80 926 m 327 -74 l 469 -74 l 360 -332 l 289 -332 l 327 -74 z "},"ņ":{"ha":663,"x_min":71,"x_max":602,"o":"m 71 685 l 252 685 l 252 591 q 423 699 299 699 q 534 668 490 699 q 590 591 578 638 q 602 449 602 545 l 602 0 l 411 0 l 411 449 q 393 534 411 518 q 346 551 376 551 q 278 519 294 551 q 262 401 262 488 l 262 0 l 71 0 l 71 685 m 271 -74 l 412 -74 l 304 -332 l 233 -332 l 271 -74 z "},"Ň":{"ha":781,"x_min":80,"x_max":701,"o":"m 80 926 l 306 926 l 544 351 l 544 926 l 701 926 l 701 0 l 519 0 l 237 670 l 237 0 l 80 0 l 80 926 m 119 1192 l 267 1192 l 391 1112 l 515 1192 l 663 1192 l 391 980 l 119 1192 z "},"ň":{"ha":663,"x_min":55,"x_max":602,"o":"m 71 685 l 252 685 l 252 591 q 423 699 299 699 q 534 668 490 699 q 590 591 578 638 q 602 449 602 545 l 602 0 l 411 0 l 411 449 q 393 534 411 518 q 346 551 376 551 q 278 519 294 551 q 262 401 262 488 l 262 0 l 71 0 l 71 685 m 55 967 l 203 967 l 327 886 l 451 967 l 599 967 l 327 755 l 55 967 z "},"ŉ":{"ha":753,"x_min":-39,"x_max":663,"o":"m 132 685 l 313 685 l 313 591 q 484 699 360 699 q 595 668 551 699 q 651 591 639 638 q 663 449 663 545 l 663 0 l 472 0 l 472 449 q 454 534 472 518 q 407 551 437 551 q 339 519 355 551 q 323 401 323 488 l 323 0 l 132 0 l 132 685 m -39 951 l 135 951 l 135 747 l 36 565 l -39 565 l 38 747 l -39 747 l -39 951 z "},"Ŋ":{"ha":812,"x_min":66,"x_max":749,"o":"m 66 0 l 66 926 l 264 926 l 264 832 q 477 939 348 939 q 675 861 602 939 q 749 591 749 783 l 749 90 q 721 -97 749 -28 q 621 -212 692 -166 q 441 -257 550 -257 q 327 -240 388 -257 l 327 -75 q 419 -87 390 -87 q 520 -61 495 -87 q 545 54 545 -35 l 545 614 q 441 766 545 766 q 319 701 369 766 q 269 517 269 637 l 269 0 l 66 0 z "},"ŋ":{"ha":639,"x_min":71,"x_max":602,"o":"m 290 -220 l 290 -61 q 370 -73 340 -73 q 405 -55 398 -73 q 412 0 412 -37 l 411 449 q 393 534 411 518 q 346 551 376 551 q 278 519 294 551 q 262 401 262 488 l 262 0 l 71 0 l 71 685 l 252 685 l 252 591 q 423 699 299 699 q 534 668 490 699 q 590 591 578 638 q 602 449 602 545 l 602 0 q 400 -234 602 -234 q 290 -220 358 -234 z "},"Ō":{"ha":781,"x_min":54,"x_max":726,"o":"m 726 463 q 391 -14 726 -14 q 139 107 224 -14 q 54 463 54 229 q 390 940 54 940 q 640 821 554 940 q 726 463 726 701 m 512 463 q 483 712 512 650 q 390 774 454 774 q 298 712 327 774 q 269 463 269 650 q 297 216 269 280 q 390 151 326 151 q 483 213 453 151 q 512 463 512 275 m 205 1136 l 586 1136 l 586 1036 l 205 1036 l 205 1136 z "},"ō":{"ha":639,"x_min":41,"x_max":598,"o":"m 598 342 q 320 -14 598 -14 q 41 342 41 -14 q 320 699 41 699 q 598 342 598 699 m 401 342 q 383 519 401 473 q 320 566 365 566 q 258 522 277 566 q 239 342 239 478 q 255 168 239 217 q 320 119 271 119 q 384 168 367 119 q 401 342 401 216 m 132 911 l 513 911 l 513 811 l 132 811 l 132 911 z "},"Ŏ":{"ha":781,"x_min":54,"x_max":726,"o":"m 726 463 q 391 -14 726 -14 q 139 107 224 -14 q 54 463 54 229 q 390 940 54 940 q 640 821 554 940 q 726 463 726 701 m 512 463 q 483 712 512 650 q 390 774 454 774 q 298 712 327 774 q 269 463 269 650 q 297 216 269 280 q 390 151 326 151 q 483 213 453 151 q 512 463 512 275 m 166 1183 l 275 1183 q 391 1112 304 1112 q 506 1183 477 1112 l 615 1183 q 391 1013 567 1013 q 166 1183 216 1013 z "},"ŏ":{"ha":639,"x_min":41,"x_max":598,"o":"m 598 342 q 320 -14 598 -14 q 41 342 41 -14 q 320 699 41 699 q 598 342 598 699 m 401 342 q 383 519 401 473 q 320 566 365 566 q 258 522 277 566 q 239 342 239 478 q 255 168 239 217 q 320 119 271 119 q 384 168 367 119 q 401 342 401 216 m 93 938 l 202 938 q 317 867 231 867 q 433 938 404 867 l 542 938 q 317 768 494 768 q 93 938 142 768 z "},"Ő":{"ha":781,"x_min":54,"x_max":726,"o":"m 726 463 q 391 -14 726 -14 q 139 107 224 -14 q 54 463 54 229 q 390 940 54 940 q 640 821 554 940 q 726 463 726 701 m 512 463 q 483 712 512 650 q 390 774 454 774 q 298 712 327 774 q 269 463 269 650 q 297 216 269 280 q 390 151 326 151 q 483 213 453 151 q 512 463 512 275 m 388 1230 l 465 1145 l 271 991 l 220 1043 l 388 1230 m 600 1230 l 677 1145 l 484 991 l 432 1042 l 600 1230 z "},"ő":{"ha":639,"x_min":41,"x_max":602,"o":"m 598 342 q 320 -14 598 -14 q 41 342 41 -14 q 320 699 41 699 q 598 342 598 699 m 401 342 q 383 519 401 473 q 320 566 365 566 q 258 522 277 566 q 239 342 239 478 q 255 168 239 217 q 320 119 271 119 q 384 168 367 119 q 401 342 401 216 m 313 996 l 390 912 l 196 758 l 144 810 l 313 996 m 525 996 l 602 912 l 408 758 l 357 809 l 525 996 z "},"Ŕ":{"ha":757,"x_min":87,"x_max":738,"o":"m 87 926 l 378 926 q 508 918 463 926 q 600 876 553 910 q 672 782 646 842 q 698 649 698 723 q 568 405 698 475 l 738 0 l 516 0 l 393 366 l 291 366 l 291 0 l 87 0 l 87 926 m 291 776 l 291 516 l 380 516 q 500 650 500 516 q 482 725 500 696 q 441 765 465 755 q 372 776 418 776 l 291 776 m 249 1049 l 480 1262 l 556 1149 l 306 992 l 249 1049 z "},"ŕ":{"ha":426,"x_min":71,"x_max":471,"o":"m 71 685 l 239 685 l 239 519 q 401 694 284 694 q 433 690 415 694 l 433 504 q 401 507 412 507 q 262 295 262 507 l 262 0 l 71 0 l 71 685 m 163 816 l 395 1029 l 471 916 l 220 759 l 163 816 z "},"Ŗ":{"ha":757,"x_min":87,"x_max":738,"o":"m 87 926 l 378 926 q 508 918 463 926 q 600 876 553 910 q 672 782 646 842 q 698 649 698 723 q 568 405 698 475 l 738 0 l 516 0 l 393 366 l 291 366 l 291 0 l 87 0 l 87 926 m 291 776 l 291 516 l 380 516 q 500 650 500 516 q 482 725 500 696 q 441 765 465 755 q 372 776 418 776 l 291 776 m 331 -74 l 473 -74 l 364 -332 l 293 -332 l 331 -74 z "},"ŗ":{"ha":426,"x_min":58,"x_max":433,"o":"m 71 685 l 239 685 l 239 519 q 401 694 284 694 q 433 690 415 694 l 433 504 q 401 507 412 507 q 262 295 262 507 l 262 0 l 71 0 l 71 685 m 96 -74 l 237 -74 l 129 -332 l 58 -332 l 96 -74 z "},"Ř":{"ha":757,"x_min":87,"x_max":738,"o":"m 87 926 l 378 926 q 508 918 463 926 q 600 876 553 910 q 672 782 646 842 q 698 649 698 723 q 568 405 698 475 l 738 0 l 516 0 l 393 366 l 291 366 l 291 0 l 87 0 l 87 926 m 291 776 l 291 516 l 380 516 q 500 650 500 516 q 482 725 500 696 q 441 765 465 755 q 372 776 418 776 l 291 776 m 104 1192 l 252 1192 l 376 1112 l 500 1192 l 648 1192 l 376 980 l 104 1192 z "},"ř":{"ha":426,"x_min":-20,"x_max":524,"o":"m 71 685 l 239 685 l 239 519 q 401 694 284 694 q 433 690 415 694 l 433 504 q 401 507 412 507 q 262 295 262 507 l 262 0 l 71 0 l 71 685 m -20 967 l 128 967 l 252 886 l 376 967 l 524 967 l 252 755 l -20 967 z "},"Ś":{"ha":710,"x_min":22,"x_max":672,"o":"m 654 724 l 486 660 q 354 774 450 774 q 283 749 309 774 q 257 690 257 724 q 288 627 257 650 q 417 566 319 604 q 558 500 507 532 q 641 411 609 467 q 672 281 672 355 q 583 69 672 152 q 344 -14 494 -14 q 22 240 92 -14 l 200 291 q 349 151 233 151 q 434 179 401 151 q 467 251 467 206 q 444 312 467 285 q 338 368 421 338 q 180 437 232 406 q 94 525 127 468 q 60 656 60 583 q 140 860 60 781 q 353 940 220 940 q 654 724 594 940 m 237 1044 l 468 1257 l 544 1143 l 294 987 l 237 1044 z "},"ś":{"ha":568,"x_min":26,"x_max":543,"o":"m 522 520 l 386 479 q 286 572 359 572 q 226 513 226 572 q 248 461 226 479 q 340 419 271 444 q 456 370 419 391 q 517 307 492 349 q 543 210 543 264 q 474 50 543 115 q 283 -14 406 -14 q 26 190 52 -14 l 178 214 q 286 112 197 112 q 362 176 362 112 q 340 227 362 210 q 253 265 317 245 q 91 357 135 303 q 47 481 47 410 q 116 640 47 580 q 290 699 186 699 q 522 520 473 699 m 191 816 l 422 1029 l 498 916 l 248 759 l 191 816 z "},"Ŝ":{"ha":710,"x_min":22,"x_max":672,"o":"m 654 724 l 486 660 q 354 774 450 774 q 283 749 309 774 q 257 690 257 724 q 288 627 257 650 q 417 566 319 604 q 558 500 507 532 q 641 411 609 467 q 672 281 672 355 q 583 69 672 152 q 344 -14 494 -14 q 22 240 92 -14 l 200 291 q 349 151 233 151 q 434 179 401 151 q 467 251 467 206 q 444 312 467 285 q 338 368 421 338 q 180 437 232 406 q 94 525 127 468 q 60 656 60 583 q 140 860 60 781 q 353 940 220 940 q 654 724 594 940 m 94 1009 l 366 1221 l 638 1009 l 490 1009 l 366 1089 l 242 1009 l 94 1009 z "},"ŝ":{"ha":568,"x_min":20,"x_max":564,"o":"m 522 520 l 386 479 q 286 572 359 572 q 226 513 226 572 q 248 461 226 479 q 340 419 271 444 q 456 370 419 391 q 517 307 492 349 q 543 210 543 264 q 474 50 543 115 q 283 -14 406 -14 q 26 190 52 -14 l 178 214 q 286 112 197 112 q 362 176 362 112 q 340 227 362 210 q 253 265 317 245 q 91 357 135 303 q 47 481 47 410 q 116 640 47 580 q 290 699 186 699 q 522 520 473 699 m 20 768 l 292 980 l 564 768 l 416 768 l 292 848 l 168 768 l 20 768 z "},"Ţ":{"ha":544,"x_min":-16,"x_max":561,"o":"m -16 926 l 561 926 l 561 752 l 372 752 l 372 0 l 168 0 l 168 752 l -16 752 l -16 926 m 204 -74 l 346 -74 l 237 -332 l 166 -332 l 204 -74 z "},"ţ":{"ha":426,"x_min":23,"x_max":420,"o":"m 99 895 l 285 901 l 285 685 l 411 685 l 411 534 l 285 534 l 285 283 q 288 192 285 213 q 308 158 291 172 q 366 144 326 144 q 420 145 388 144 l 420 0 q 304 -14 357 -14 q 171 19 217 -14 q 112 102 125 52 q 99 262 99 153 l 99 534 l 23 534 l 23 685 l 99 685 l 99 895 m 189 -74 l 330 -74 l 222 -332 l 151 -332 l 189 -74 z "},"Ť":{"ha":544,"x_min":-16,"x_max":561,"o":"m -16 926 l 561 926 l 561 752 l 372 752 l 372 0 l 168 0 l 168 752 l -16 752 l -16 926 m 1 1195 l 149 1195 l 273 1114 l 397 1195 l 545 1195 l 273 983 l 1 1195 z "},"ť":{"ha":511,"x_min":23,"x_max":529,"o":"m 99 895 l 285 901 l 285 685 l 411 685 l 411 534 l 285 534 l 285 283 q 288 192 285 213 q 308 158 291 172 q 366 144 326 144 q 420 145 388 144 l 420 0 q 304 -14 357 -14 q 171 19 217 -14 q 112 102 125 52 q 99 262 99 153 l 99 534 l 23 534 l 23 685 l 99 685 l 99 895 m 387 1031 l 529 1031 l 420 760 l 349 760 l 387 1031 z "},"Ŧ":{"ha":544,"x_min":-51,"x_max":605,"o":"m 372 620 l 605 620 l 605 445 l 372 445 l 372 0 l 168 0 l 168 445 l -51 445 l -51 620 l 168 620 l 168 752 l -16 752 l -16 926 l 561 926 l 561 752 l 372 752 l 372 620 z "},"ŧ":{"ha":426,"x_min":23,"x_max":420,"o":"m 285 477 l 381 477 l 381 343 l 285 343 l 285 283 q 288 192 285 213 q 308 158 291 172 q 366 144 326 144 q 420 145 388 144 l 420 0 q 304 -14 357 -14 q 171 19 217 -14 q 112 102 125 52 q 99 262 99 153 l 99 343 l 24 343 l 24 477 l 99 477 l 99 534 l 23 534 l 23 685 l 109 685 l 124 887 l 285 901 l 285 685 l 411 685 l 411 534 l 285 534 l 285 477 z "},"Ũ":{"ha":804,"x_min":87,"x_max":717,"o":"m 87 926 l 291 926 l 291 397 q 301 241 291 285 q 343 174 311 197 q 422 151 376 151 q 503 176 473 151 q 540 243 533 201 q 547 397 547 284 l 547 926 l 717 926 l 717 405 q 699 172 717 249 q 607 41 681 96 q 405 -14 534 -14 q 215 26 284 -14 q 117 139 146 66 q 87 397 87 212 l 87 926 m 568 1157 l 629 1112 q 473 1008 559 1008 q 388 1032 441 1008 q 305 1059 328 1059 q 241 1016 279 1059 l 182 1061 q 331 1158 258 1158 q 420 1135 365 1158 q 503 1108 481 1108 q 568 1157 534 1108 z "},"ũ":{"ha":663,"x_min":61,"x_max":593,"o":"m 61 685 l 252 685 l 252 245 q 264 157 252 179 q 317 134 277 134 q 374 153 355 134 q 397 203 393 171 q 401 336 401 235 l 401 685 l 593 685 l 593 0 l 413 0 l 413 94 q 332 5 372 24 q 237 -14 292 -14 q 123 16 163 -14 q 73 94 84 47 q 61 239 61 140 l 61 685 m 494 939 l 555 895 q 399 791 486 791 q 314 814 367 791 q 231 841 254 841 q 167 798 205 841 l 109 844 q 257 941 184 941 q 347 917 291 941 q 429 890 408 890 q 494 939 460 890 z "},"Ū":{"ha":804,"x_min":87,"x_max":717,"o":"m 87 926 l 291 926 l 291 397 q 301 241 291 285 q 343 174 311 197 q 422 151 376 151 q 503 176 473 151 q 540 243 533 201 q 547 397 547 284 l 547 926 l 717 926 l 717 405 q 699 172 717 249 q 607 41 681 96 q 405 -14 534 -14 q 215 26 284 -14 q 117 139 146 66 q 87 397 87 212 l 87 926 m 216 1137 l 597 1137 l 597 1038 l 216 1038 l 216 1137 z "},"ū":{"ha":663,"x_min":61,"x_max":593,"o":"m 61 685 l 252 685 l 252 245 q 264 157 252 179 q 317 134 277 134 q 374 153 355 134 q 397 203 393 171 q 401 336 401 235 l 401 685 l 593 685 l 593 0 l 413 0 l 413 94 q 332 5 372 24 q 237 -14 292 -14 q 123 16 163 -14 q 73 94 84 47 q 61 239 61 140 l 61 685 m 136 911 l 517 911 l 517 811 l 136 811 l 136 911 z "},"Ŭ":{"ha":804,"x_min":87,"x_max":717,"o":"m 87 926 l 291 926 l 291 397 q 301 241 291 285 q 343 174 311 197 q 422 151 376 151 q 503 176 473 151 q 540 243 533 201 q 547 397 547 284 l 547 926 l 717 926 l 717 405 q 699 172 717 249 q 607 41 681 96 q 405 -14 534 -14 q 215 26 284 -14 q 117 139 146 66 q 87 397 87 212 l 87 926 m 178 1179 l 288 1179 q 403 1107 316 1107 q 518 1179 489 1107 l 627 1179 q 403 1008 579 1008 q 178 1179 228 1008 z "},"ŭ":{"ha":663,"x_min":61,"x_max":593,"o":"m 61 685 l 252 685 l 252 245 q 264 157 252 179 q 317 134 277 134 q 374 153 355 134 q 397 203 393 171 q 401 336 401 235 l 401 685 l 593 685 l 593 0 l 413 0 l 413 94 q 332 5 372 24 q 237 -14 292 -14 q 123 16 163 -14 q 73 94 84 47 q 61 239 61 140 l 61 685 m 102 950 l 212 950 q 327 879 240 879 q 442 950 413 879 l 551 950 q 327 780 503 780 q 102 950 152 780 z "},"Ů":{"ha":804,"x_min":87,"x_max":717,"o":"m 87 926 l 291 926 l 291 397 q 301 241 291 285 q 343 174 311 197 q 422 151 376 151 q 503 176 473 151 q 540 243 533 201 q 547 397 547 284 l 547 926 l 717 926 l 717 405 q 699 172 717 249 q 607 41 681 96 q 405 -14 534 -14 q 215 26 284 -14 q 117 139 146 66 q 87 397 87 212 l 87 926 m 277 1115 q 316 1209 277 1171 q 408 1247 355 1247 q 499 1210 460 1247 q 538 1115 538 1172 q 497 1021 538 1057 q 408 985 456 985 q 318 1021 359 985 q 277 1115 277 1057 m 355 1116 q 372 1076 355 1091 q 408 1061 389 1061 q 444 1076 427 1061 q 460 1116 460 1091 q 444 1155 460 1139 q 408 1171 428 1171 q 371 1155 387 1171 q 355 1116 355 1139 z "},"ů":{"ha":663,"x_min":61,"x_max":593,"o":"m 61 685 l 252 685 l 252 245 q 264 157 252 179 q 317 134 277 134 q 374 153 355 134 q 397 203 393 171 q 401 336 401 235 l 401 685 l 593 685 l 593 0 l 413 0 l 413 94 q 332 5 372 24 q 237 -14 292 -14 q 123 16 163 -14 q 73 94 84 47 q 61 239 61 140 l 61 685 m 196 882 q 235 977 196 939 q 327 1015 275 1015 q 418 977 379 1015 q 458 882 458 939 q 417 788 458 824 q 327 752 376 752 q 237 788 278 752 q 196 882 196 825 m 275 883 q 291 843 275 859 q 327 828 308 828 q 363 843 347 828 q 379 883 379 859 q 363 923 379 907 q 327 939 347 939 q 291 923 307 939 q 275 883 275 907 z "},"Ű":{"ha":804,"x_min":87,"x_max":717,"o":"m 87 926 l 291 926 l 291 397 q 301 241 291 285 q 343 174 311 197 q 422 151 376 151 q 503 176 473 151 q 540 243 533 201 q 547 397 547 284 l 547 926 l 717 926 l 717 405 q 699 172 717 249 q 607 41 681 96 q 405 -14 534 -14 q 215 26 284 -14 q 117 139 146 66 q 87 397 87 212 l 87 926 m 393 1227 l 471 1143 l 277 989 l 225 1041 l 393 1227 m 606 1227 l 683 1143 l 489 989 l 437 1040 l 606 1227 z "},"ű":{"ha":663,"x_min":61,"x_max":625,"o":"m 61 685 l 252 685 l 252 245 q 264 157 252 179 q 317 134 277 134 q 374 153 355 134 q 397 203 393 171 q 401 336 401 235 l 401 685 l 593 685 l 593 0 l 413 0 l 413 94 q 332 5 372 24 q 237 -14 292 -14 q 123 16 163 -14 q 73 94 84 47 q 61 239 61 140 l 61 685 m 336 996 l 413 912 l 219 758 l 168 810 l 336 996 m 548 996 l 625 912 l 431 758 l 380 809 l 548 996 z "},"Ų":{"ha":804,"x_min":87,"x_max":717,"o":"m 658 -174 l 672 -240 q 590 -252 627 -252 q 454 -216 498 -252 q 410 -125 410 -180 q 484 -9 410 -56 q 401 -15 433 -15 q 218 25 294 -15 q 115 143 143 64 q 87 397 87 222 l 87 926 l 291 926 l 291 397 q 301 241 291 285 q 343 174 311 197 q 422 151 376 151 q 503 176 473 151 q 540 243 533 201 q 547 397 547 284 l 547 926 l 717 926 l 717 405 q 701 174 717 248 q 602 33 686 101 q 520 -100 520 -33 q 611 -178 520 -178 q 658 -174 644 -178 z "},"ų":{"ha":663,"x_min":61,"x_max":679,"o":"m 593 0 q 531 -109 531 -58 q 620 -181 531 -181 q 665 -178 651 -181 l 679 -242 q 600 -253 635 -253 q 467 -218 509 -253 q 425 -130 425 -182 q 520 0 425 -55 l 413 0 l 413 94 q 332 5 372 24 q 237 -14 292 -14 q 123 16 163 -14 q 73 94 84 47 q 61 239 61 140 l 61 685 l 252 685 l 252 245 q 264 157 252 179 q 317 134 277 134 q 374 153 355 134 q 397 203 393 171 q 401 336 401 235 l 401 685 l 593 685 l 593 0 z "},"Ŵ":{"ha":994,"x_min":-7,"x_max":1004,"o":"m -7 926 l 201 926 l 298 285 l 419 926 l 606 926 l 720 283 l 833 926 l 1004 926 l 806 -5 l 623 -5 l 500 639 l 374 -5 l 193 -5 l -7 926 m 240 1009 l 512 1221 l 784 1009 l 636 1009 l 512 1089 l 388 1009 l 240 1009 z "},"ŵ":{"ha":804,"x_min":-12,"x_max":822,"o":"m -12 685 l 174 685 l 255 269 l 332 685 l 517 685 l 580 269 l 672 685 l 822 685 l 650 0 l 490 0 l 402 466 l 316 0 l 161 0 l -12 685 m 136 768 l 408 980 l 680 768 l 532 768 l 408 848 l 283 768 l 136 768 z "},"Ŷ":{"ha":615,"x_min":-39,"x_max":654,"o":"m -39 926 l 184 926 l 315 588 l 455 926 l 654 926 l 397 391 l 397 0 l 193 0 l 193 391 l -39 926 m 35 1009 l 307 1221 l 579 1009 l 431 1009 l 307 1089 l 183 1009 l 35 1009 z "},"ŷ":{"ha":497,"x_min":-19,"x_max":526,"o":"m -19 685 l 172 685 l 264 267 l 353 685 l 518 685 l 312 -11 q 261 -151 282 -111 q 198 -217 240 -191 q 91 -243 156 -243 q 9 -232 51 -243 l 9 -81 q 63 -85 38 -85 q 139 -67 119 -85 q 178 13 160 -49 l -19 685 m -18 768 l 254 980 l 526 768 l 378 768 l 254 848 l 130 768 l -18 768 z "},"Ź":{"ha":639,"x_min":1,"x_max":637,"o":"m 30 926 l 625 926 l 625 781 l 237 165 l 637 165 l 637 0 l 1 0 l 1 142 l 391 760 l 30 760 l 30 926 m 207 1057 l 438 1270 l 514 1157 l 264 1000 l 207 1057 z "},"ź":{"ha":497,"x_min":28,"x_max":486,"o":"m 52 685 l 479 685 l 479 562 l 224 136 l 486 136 l 486 0 l 28 0 l 28 136 l 276 549 l 52 549 l 52 685 m 177 816 l 408 1029 l 484 916 l 234 759 l 177 816 z "},"Ż":{"ha":639,"x_min":1,"x_max":637,"o":"m 30 926 l 625 926 l 625 781 l 237 165 l 637 165 l 637 0 l 1 0 l 1 142 l 391 760 l 30 760 l 30 926 m 248 1086 q 274 1146 248 1121 q 334 1171 299 1171 q 396 1145 370 1171 q 421 1086 421 1120 q 395 1026 421 1050 q 335 1002 369 1002 q 274 1026 300 1002 q 248 1086 248 1050 z "},"ż":{"ha":497,"x_min":28,"x_max":486,"o":"m 52 685 l 479 685 l 479 562 l 224 136 l 486 136 l 486 0 l 28 0 l 28 136 l 276 549 l 52 549 l 52 685 m 186 861 q 212 921 186 896 q 273 945 237 945 q 334 920 309 945 q 359 861 359 895 q 333 801 359 825 q 273 777 307 777 q 213 801 239 777 q 186 861 186 825 z "},"ſ":{"ha":331,"x_min":70,"x_max":381,"o":"m 381 956 l 381 806 l 323 808 q 267 787 280 808 q 253 685 253 766 l 253 0 l 70 0 l 70 685 q 91 854 70 806 q 161 931 112 902 q 296 960 210 960 q 381 956 319 960 z "},"Ǻ":{"ha":710,"x_min":-27,"x_max":720,"o":"m 490 1008 q 458 920 490 956 l 720 0 l 512 0 l 466 191 l 205 191 l 160 0 l -27 0 l 250 923 q 220 1008 220 959 q 260 1104 220 1065 q 355 1143 300 1143 q 450 1104 410 1143 q 490 1008 490 1065 m 193 1241 l 479 1392 l 524 1259 l 234 1169 l 193 1241 m 302 1007 q 319 966 302 981 q 355 951 337 951 q 392 966 375 951 q 409 1007 409 982 q 392 1049 409 1034 q 355 1065 375 1065 q 318 1048 334 1065 q 302 1007 302 1032 m 427 350 l 334 728 l 244 350 l 427 350 z "},"ǻ":{"ha":663,"x_min":50,"x_max":604,"o":"m 254 467 l 73 485 q 160 644 85 588 q 349 699 235 699 q 504 662 446 699 q 577 576 562 625 q 593 425 593 528 l 593 152 q 604 0 593 24 l 427 0 q 418 105 418 28 q 230 -14 355 -14 q 100 34 150 -14 q 50 173 50 81 q 125 350 50 288 q 402 425 201 413 l 402 451 q 388 546 402 519 q 334 572 374 572 q 254 467 261 572 m 402 328 q 283 291 319 318 q 248 198 248 263 q 311 111 248 111 q 374 150 346 111 q 402 294 402 189 l 402 328 m 217 882 q 256 977 217 939 q 348 1015 296 1015 q 439 977 400 1015 q 479 882 479 939 q 438 788 479 824 q 348 752 397 752 q 258 788 299 752 q 217 882 217 825 m 296 883 q 312 843 296 859 q 348 828 329 828 q 384 843 368 828 q 400 883 400 859 q 384 923 400 907 q 348 939 368 939 q 312 923 328 939 q 296 883 296 907 m 197 1065 l 429 1278 l 505 1165 l 254 1008 l 197 1065 z "},"Ǽ":{"ha":947,"x_min":-56,"x_max":935,"o":"m 308 926 l 935 926 l 935 767 l 592 767 l 592 552 l 862 552 l 862 393 l 592 393 l 592 165 l 935 165 l 935 0 l 397 0 l 397 214 l 195 214 l 120 0 l -56 0 l 308 926 m 401 364 l 401 790 l 246 364 l 401 364 m 486 1054 l 718 1267 l 793 1154 l 543 997 l 486 1054 z "},"ǽ":{"ha":970,"x_min":50,"x_max":929,"o":"m 929 311 l 574 311 q 574 279 574 290 q 665 118 574 118 q 759 233 747 118 l 923 221 q 665 -14 882 -14 q 469 102 523 -14 q 248 -14 396 -14 q 102 39 154 -14 q 50 178 50 92 q 76 292 50 237 q 167 379 103 347 q 389 426 231 412 q 390 471 390 458 q 368 554 390 536 q 317 572 346 572 q 233 462 240 572 l 66 481 q 328 699 101 699 q 492 629 447 699 q 661 699 557 699 q 819 650 759 699 q 904 525 878 602 q 929 311 929 448 m 750 421 q 663 572 748 572 q 574 421 581 572 l 750 421 m 389 328 q 267 283 293 315 q 240 201 240 252 q 304 112 240 112 q 389 274 389 112 q 389 328 389 292 m 370 816 l 601 1029 l 677 916 l 427 759 l 370 816 z "},"Ǿ":{"ha":781,"x_min":54,"x_max":726,"o":"m 599 979 l 705 979 l 631 832 q 726 463 726 715 q 390 -14 726 -14 q 229 23 306 -14 l 186 -57 l 80 -57 l 153 89 q 54 463 54 212 q 390 940 54 940 q 557 899 486 940 l 599 979 m 473 751 q 390 786 439 786 q 286 725 323 786 q 250 463 250 665 q 260 295 250 357 l 473 751 m 310 165 q 396 138 342 138 q 500 214 469 138 q 531 493 531 290 q 522 624 531 558 l 310 165 m 233 1054 l 465 1267 l 541 1154 l 290 997 l 233 1054 z "},"ǿ":{"ha":639,"x_min":41,"x_max":598,"o":"m 490 756 l 581 756 l 515 625 q 598 342 598 534 q 320 -14 598 -14 q 198 7 252 -14 l 155 -79 l 64 -79 l 131 53 q 41 342 41 146 q 320 699 41 699 q 449 675 393 699 l 490 756 m 382 559 q 322 575 352 575 q 234 524 257 575 q 212 342 212 473 q 218 206 212 276 l 382 559 m 265 119 q 320 110 289 110 q 407 165 387 110 q 428 342 428 220 q 423 462 428 395 l 265 119 m 191 818 l 422 1031 l 498 918 l 248 761 l 191 818 z "},"΄":{"ha":709,"x_min":-150,"x_max":147,"o":"m -150 739 l 27 1009 l 147 929 l -71 689 l -150 739 z "},"΅":{"ha":690,"x_min":153,"x_max":536,"o":"m 276 1017 l 467 1188 l 533 1096 l 317 960 l 276 1017 m 382 865 q 405 917 382 896 q 459 939 427 939 q 513 917 490 939 q 536 865 536 896 q 512 813 536 833 q 459 793 487 793 q 407 812 432 793 q 382 865 382 831 m 153 865 q 175 917 153 896 q 230 939 198 939 q 285 917 262 939 q 307 865 307 896 q 283 813 307 833 q 230 793 258 793 q 177 813 201 793 q 153 865 153 833 z "},"Ά":{"ha":715,"x_min":-111,"x_max":725,"o":"m 256 926 l 460 926 l 725 0 l 517 0 l 471 191 l 210 191 l 165 0 l -22 0 l 256 926 m 432 350 l 339 728 l 249 350 l 432 350 m -111 735 l 66 1006 l 186 926 l -33 686 l -111 735 z "},"·":{"ha":355,"x_min":83,"x_max":272,"o":"m 83 459 l 272 459 l 272 254 l 83 254 l 83 459 z "},"Έ":{"ha":692,"x_min":-294,"x_max":657,"o":"m 94 926 l 657 926 l 657 767 l 298 767 l 298 552 l 577 552 l 577 393 l 298 393 l 298 165 l 657 165 l 657 0 l 94 0 l 94 926 m -294 739 l -117 1009 l 3 929 l -215 689 l -294 739 z "},"Ή":{"ha":810,"x_min":-264,"x_max":722,"o":"m 93 926 l 296 926 l 296 552 l 519 552 l 519 926 l 722 926 l 722 0 l 519 0 l 519 378 l 296 378 l 296 0 l 93 0 l 93 926 m -264 735 l -87 1006 l 33 926 l -186 686 l -264 735 z "},"Ί":{"ha":383,"x_min":-265,"x_max":296,"o":"m 92 926 l 296 926 l 296 0 l 92 0 l 92 926 m -265 735 l -88 1006 l 32 926 l -186 686 l -265 735 z "},"Ό":{"ha":793,"x_min":-163,"x_max":747,"o":"m 747 463 q 411 -14 747 -14 q 159 107 244 -14 q 75 463 75 229 q 410 940 75 940 q 661 821 574 940 q 747 463 747 701 m 532 463 q 503 712 532 650 q 410 774 474 774 q 318 712 347 774 q 289 463 289 650 q 318 216 289 280 q 410 151 347 151 q 503 213 473 151 q 532 463 532 275 m -163 735 l 14 1006 l 134 926 l -85 686 l -163 735 z "},"Ύ":{"ha":635,"x_min":-367,"x_max":674,"o":"m -19 926 l 205 926 l 336 588 l 475 926 l 674 926 l 417 391 l 417 0 l 214 0 l 214 391 l -19 926 m -367 735 l -190 1006 l -70 926 l -288 686 l -367 735 z "},"Ώ":{"ha":813,"x_min":-167,"x_max":790,"o":"m 36 0 l 36 169 l 194 169 q 49 513 49 281 q 149 831 49 720 q 413 942 249 942 q 678 830 578 942 q 778 519 778 718 q 632 169 778 281 l 790 169 l 790 0 l 433 0 l 433 163 q 508 239 488 189 q 533 374 528 288 q 538 500 538 460 q 413 776 538 776 q 286 508 286 776 q 292 369 286 453 q 317 238 298 284 q 393 163 336 192 l 393 0 l 36 0 m -167 735 l 10 1006 l 130 926 l -88 686 l -167 735 z "},"ΐ":{"ha":331,"x_min":-24,"x_max":360,"o":"m 100 1009 l 291 1181 l 357 1088 l 140 952 l 100 1009 m 205 858 q 228 910 205 888 q 283 931 251 931 q 337 910 314 931 q 360 857 360 888 q 335 805 360 825 q 283 785 311 785 q 231 805 256 785 q 205 858 205 824 m -24 858 q -1 910 -24 888 q 54 931 22 931 q 109 910 86 931 q 131 857 131 888 q 106 805 131 825 q 54 785 82 785 q 1 805 25 785 q -24 858 -24 825 z "},"Α":{"ha":710,"x_min":-27,"x_max":720,"o":"m 251 926 l 456 926 l 720 0 l 512 0 l 466 191 l 205 191 l 160 0 l -27 0 l 251 926 m 427 350 l 334 728 l 244 350 l 427 350 z "},"Β":{"ha":773,"x_min":87,"x_max":730,"o":"m 87 926 l 404 926 q 571 908 515 926 q 666 831 628 890 q 705 682 705 771 q 572 483 705 527 q 730 256 730 427 q 687 103 730 165 q 582 21 644 41 q 404 0 519 0 l 87 0 l 87 926 m 283 552 l 349 552 q 472 587 447 552 q 498 668 498 623 q 472 743 498 710 q 363 776 447 776 l 283 776 l 283 552 m 283 159 l 382 159 q 523 280 523 159 q 488 375 523 347 q 382 402 453 402 l 283 402 l 283 159 z "},"Γ":{"ha":650,"x_min":87,"x_max":650,"o":"m 650 926 l 650 758 l 291 758 l 291 0 l 87 0 l 87 926 l 650 926 z "},"Δ":{"ha":705,"x_min":-20,"x_max":727,"o":"m 234 926 l 463 926 l 727 0 l -20 0 l 234 926 m 481 174 l 341 728 l 209 174 l 481 174 z "},"Ε":{"ha":686,"x_min":87,"x_max":650,"o":"m 87 926 l 650 926 l 650 767 l 291 767 l 291 552 l 570 552 l 570 393 l 291 393 l 291 165 l 650 165 l 650 0 l 87 0 l 87 926 z "},"Ζ":{"ha":639,"x_min":1,"x_max":637,"o":"m 30 926 l 625 926 l 625 781 l 237 165 l 637 165 l 637 0 l 1 0 l 1 142 l 391 760 l 30 760 l 30 926 z "},"Η":{"ha":804,"x_min":87,"x_max":717,"o":"m 87 926 l 291 926 l 291 552 l 513 552 l 513 926 l 717 926 l 717 0 l 513 0 l 513 378 l 291 378 l 291 0 l 87 0 l 87 926 z "},"Θ":{"ha":791,"x_min":46,"x_max":745,"o":"m 745 472 q 395 -14 745 -14 q 139 101 233 -14 q 46 454 46 216 q 395 940 46 940 q 651 825 558 940 q 745 472 745 710 m 522 463 q 492 713 522 651 q 395 774 461 774 q 299 712 330 774 q 269 463 269 650 q 300 213 269 275 q 395 151 330 151 q 491 213 460 151 q 522 463 522 274 m 488 550 l 488 391 l 303 391 l 303 550 l 488 550 z "},"Ι":{"ha":378,"x_min":87,"x_max":291,"o":"m 87 926 l 291 926 l 291 0 l 87 0 l 87 926 z "},"Κ":{"ha":757,"x_min":87,"x_max":741,"o":"m 87 926 l 291 926 l 291 540 l 516 926 l 722 926 l 490 585 l 741 0 l 531 0 l 368 427 l 291 315 l 291 0 l 87 0 l 87 926 z "},"Λ":{"ha":711,"x_min":-22,"x_max":726,"o":"m 166 0 l -22 0 l 233 926 l 461 926 l 726 0 l 524 0 l 340 728 l 166 0 z "},"Μ":{"ha":1041,"x_min":87,"x_max":954,"o":"m 87 926 l 386 926 l 517 354 l 664 926 l 954 926 l 954 0 l 763 0 l 763 775 l 574 0 l 426 0 l 253 775 l 253 0 l 87 0 l 87 926 z "},"Ν":{"ha":781,"x_min":80,"x_max":701,"o":"m 80 926 l 306 926 l 544 351 l 544 926 l 701 926 l 701 0 l 519 0 l 237 670 l 237 0 l 80 0 l 80 926 z "},"Ξ":{"ha":626,"x_min":44,"x_max":582,"o":"m 582 926 l 582 755 l 44 755 l 44 926 l 582 926 m 498 557 l 498 387 l 129 387 l 129 557 l 498 557 m 582 170 l 582 -1 l 44 -1 l 44 170 l 582 170 z "},"Ο":{"ha":781,"x_min":54,"x_max":726,"o":"m 726 463 q 391 -14 726 -14 q 139 107 224 -14 q 54 463 54 229 q 390 940 54 940 q 640 821 554 940 q 726 463 726 701 m 512 463 q 483 712 512 650 q 390 774 454 774 q 298 712 327 774 q 269 463 269 650 q 297 216 269 280 q 390 151 326 151 q 483 213 453 151 q 512 463 512 275 z "},"Π":{"ha":804,"x_min":87,"x_max":717,"o":"m 87 926 l 717 926 l 717 0 l 513 0 l 513 752 l 291 752 l 291 0 l 87 0 l 87 926 z "},"Ρ":{"ha":710,"x_min":87,"x_max":700,"o":"m 87 926 l 354 926 q 542 905 475 926 q 654 813 609 885 q 700 636 700 742 q 663 468 700 534 q 562 372 627 401 q 363 342 497 342 l 291 342 l 291 0 l 87 0 l 87 926 m 291 776 l 291 502 l 354 502 q 461 541 437 502 q 486 641 486 579 q 467 725 486 693 q 424 767 448 758 q 354 776 399 776 l 291 776 z "},"Σ":{"ha":621,"x_min":39,"x_max":602,"o":"m 39 926 l 579 926 l 579 767 l 243 767 l 427 512 l 224 165 l 602 165 l 602 0 l 39 0 l 39 165 l 233 498 l 39 767 l 39 926 z "},"Τ":{"ha":544,"x_min":-16,"x_max":561,"o":"m -16 926 l 561 926 l 561 752 l 372 752 l 372 0 l 168 0 l 168 752 l -16 752 l -16 926 z "},"Υ":{"ha":615,"x_min":-39,"x_max":654,"o":"m -39 926 l 184 926 l 315 588 l 455 926 l 654 926 l 397 391 l 397 0 l 193 0 l 193 391 l -39 926 z "},"Φ":{"ha":903,"x_min":48,"x_max":855,"o":"m 364 85 q 120 217 193 113 q 48 464 48 321 q 128 716 48 615 q 364 842 208 817 l 364 954 l 539 954 l 539 842 q 773 720 690 821 q 855 464 855 618 q 539 87 855 144 l 539 -27 l 364 -27 l 364 85 m 364 685 q 245 458 245 640 q 364 242 245 288 l 364 685 m 539 242 q 659 470 659 287 q 539 685 659 639 l 539 242 z "},"Χ":{"ha":663,"x_min":-21,"x_max":684,"o":"m 7 926 l 233 926 l 344 685 l 460 926 l 655 926 l 437 507 l 684 0 l 460 0 l 326 302 l 174 0 l -21 0 l 233 475 l 7 926 z "},"Ψ":{"ha":986,"x_min":75,"x_max":911,"o":"m 391 0 l 391 167 q 236 209 295 180 q 139 290 176 238 q 89 418 102 342 q 75 645 75 494 l 75 926 l 279 926 l 279 645 q 299 409 279 464 q 391 334 319 354 l 391 926 l 595 926 l 595 334 q 687 409 667 354 q 707 645 707 463 l 707 926 l 911 926 l 911 645 q 897 416 911 490 q 844 288 884 341 q 747 207 805 234 q 595 167 690 180 l 595 0 l 391 0 z "},"Ω":{"ha":826,"x_min":36,"x_max":790,"o":"m 36 0 l 36 169 l 194 169 q 49 513 49 281 q 149 831 49 720 q 413 942 249 942 q 678 830 578 942 q 778 519 778 718 q 632 169 778 281 l 790 169 l 790 0 l 433 0 l 433 163 q 508 239 488 189 q 533 374 528 288 q 538 500 538 460 q 413 776 538 776 q 286 508 286 776 q 292 369 286 453 q 317 238 298 284 q 393 163 336 192 l 393 0 l 36 0 z "},"Ϊ":{"ha":378,"x_min":-3,"x_max":381,"o":"m 87 926 l 291 926 l 291 0 l 87 0 l 87 926 m 227 1086 q 249 1138 227 1116 q 304 1159 272 1159 q 359 1138 336 1159 q 381 1086 381 1116 q 357 1033 381 1053 q 304 1013 332 1013 q 251 1034 275 1013 q 227 1086 227 1054 m -3 1086 q 20 1138 -3 1116 q 75 1159 43 1159 q 129 1138 106 1159 q 152 1086 152 1116 q 128 1034 152 1054 q 75 1013 104 1013 q 22 1033 47 1013 q -3 1086 -3 1053 z "},"Ϋ":{"ha":615,"x_min":-39,"x_max":654,"o":"m -39 926 l 184 926 l 315 588 l 455 926 l 654 926 l 397 391 l 397 0 l 193 0 l 193 391 l -39 926 m 345 1086 q 368 1138 345 1116 q 422 1159 391 1159 q 477 1138 455 1159 q 500 1086 500 1116 q 475 1033 500 1053 q 422 1013 451 1013 q 369 1034 393 1013 q 345 1086 345 1054 m 116 1086 q 139 1138 116 1116 q 193 1159 161 1159 q 248 1138 225 1159 q 271 1086 271 1116 q 247 1034 271 1054 q 193 1013 222 1013 q 141 1033 165 1013 q 116 1086 116 1053 z "},"ά":{"ha":755,"x_min":37,"x_max":745,"o":"m 745 0 l 548 0 l 498 159 q 294 -14 424 -14 q 108 92 178 -14 q 37 343 37 197 q 114 604 37 509 q 311 699 191 699 q 505 557 437 699 l 541 685 l 729 685 l 612 361 l 745 0 m 461 347 q 403 523 427 481 q 342 564 378 564 q 277 505 304 564 q 250 348 250 446 q 279 180 250 240 q 346 121 307 121 q 406 168 381 121 q 461 347 431 214 m 233 816 l 465 1029 l 541 916 l 290 759 l 233 816 z "},"έ":{"ha":589,"x_min":41,"x_max":575,"o":"m 389 414 l 389 284 q 294 281 317 284 q 254 261 271 279 q 237 208 237 243 q 259 137 237 161 q 312 113 281 113 q 412 218 381 113 l 575 189 q 460 21 526 58 q 303 -16 395 -16 q 105 46 169 -16 q 41 200 41 107 q 150 359 41 309 q 58 505 58 410 q 120 642 58 585 q 304 699 183 699 q 560 509 527 699 l 390 476 q 317 572 374 572 q 254 489 254 572 q 268 437 254 454 q 301 417 281 420 q 389 414 321 414 m 214 816 l 445 1029 l 521 916 l 271 759 l 214 816 z "},"ή":{"ha":669,"x_min":71,"x_max":602,"o":"m 71 685 l 262 685 l 262 591 q 429 699 307 699 q 529 673 489 699 q 586 605 570 647 q 602 449 602 563 l 602 -233 l 411 -233 l 411 449 q 400 559 411 540 q 351 578 389 578 q 299 552 325 578 q 267 491 273 526 q 262 401 262 456 l 262 0 l 71 0 l 71 685 m 253 816 l 484 1029 l 560 916 l 310 759 l 253 816 z "},"ί":{"ha":331,"x_min":58,"x_max":365,"o":"m 70 685 l 261 685 l 261 0 l 70 0 l 70 685 m 58 816 l 289 1029 l 365 916 l 115 759 l 58 816 z "},"ΰ":{"ha":654,"x_min":66,"x_max":589,"o":"m 66 685 l 257 685 l 257 289 q 270 159 257 186 q 327 132 282 132 q 386 159 373 132 q 399 289 399 186 l 399 685 l 589 685 l 589 289 q 567 110 589 169 q 483 18 544 51 q 332 -16 422 -16 q 176 15 237 -16 q 91 104 116 45 q 66 289 66 162 l 66 685 m 266 1009 l 457 1181 l 523 1088 l 307 952 l 266 1009 m 372 858 q 394 910 372 888 q 449 931 417 931 q 503 910 480 931 q 526 857 526 888 q 502 805 526 825 q 449 785 477 785 q 397 805 422 785 q 372 858 372 824 m 142 858 q 165 910 142 888 q 220 931 188 931 q 275 910 252 931 q 297 857 297 888 q 273 805 297 825 q 220 785 248 785 q 167 805 191 785 q 142 858 142 825 z "},"α":{"ha":755,"x_min":37,"x_max":745,"o":"m 745 0 l 548 0 l 498 159 q 294 -14 424 -14 q 108 92 178 -14 q 37 343 37 197 q 114 604 37 509 q 311 699 191 699 q 505 557 437 699 l 541 685 l 729 685 l 612 361 l 745 0 m 461 347 q 403 523 427 481 q 342 564 378 564 q 277 505 304 564 q 250 348 250 446 q 279 180 250 240 q 346 121 307 121 q 406 168 381 121 q 461 347 431 214 z "},"β":{"ha":701,"x_min":75,"x_max":663,"o":"m 75 -231 l 75 597 q 98 791 75 721 q 181 902 121 862 q 351 941 242 941 q 548 876 482 941 q 614 715 614 810 q 466 523 614 563 q 621 427 579 494 q 663 281 663 359 q 591 75 663 163 q 406 -14 519 -14 q 266 55 309 -14 l 266 -231 l 75 -231 m 266 186 q 277 150 266 164 q 310 123 288 136 q 353 111 332 111 q 432 163 403 111 q 462 305 462 215 q 447 391 462 354 q 408 440 432 427 q 340 454 385 454 l 340 568 q 425 603 405 570 q 444 688 444 637 q 417 792 444 758 q 347 826 390 826 q 284 790 302 826 q 266 624 266 754 l 266 186 z "},"γ":{"ha":534,"x_min":-16,"x_max":559,"o":"m 168 -231 l 168 1 l -16 685 l 174 685 l 287 244 l 399 685 l 559 685 l 359 1 l 359 -231 l 168 -231 z "},"δ":{"ha":686,"x_min":41,"x_max":645,"o":"m 567 926 l 567 798 l 337 798 l 416 728 l 451 699 q 645 323 645 538 q 565 76 645 168 q 344 -17 485 -17 q 123 74 205 -17 q 41 324 41 164 q 116 538 41 452 q 294 635 191 624 l 122 798 l 122 926 l 567 926 m 357 516 q 254 317 254 516 q 355 119 254 119 q 458 321 458 119 q 433 470 458 423 q 357 516 409 516 z "},"ε":{"ha":589,"x_min":41,"x_max":575,"o":"m 389 414 l 389 284 q 294 281 317 284 q 254 261 271 279 q 237 208 237 243 q 259 137 237 161 q 312 113 281 113 q 412 218 381 113 l 575 189 q 460 21 526 58 q 303 -16 395 -16 q 105 46 169 -16 q 41 200 41 107 q 150 359 41 309 q 58 505 58 410 q 120 642 58 585 q 304 699 183 699 q 560 509 527 699 l 390 476 q 317 572 374 572 q 254 489 254 572 q 268 437 254 454 q 301 417 281 420 q 389 414 321 414 z "},"ζ":{"ha":486,"x_min":41,"x_max":480,"o":"m 64 778 l 64 926 l 468 926 l 468 806 q 233 297 233 572 q 252 190 233 213 q 338 161 271 167 q 445 123 410 156 q 480 -1 480 90 q 426 -234 480 -98 l 256 -216 q 302 -45 302 -103 q 290 -12 302 -20 q 248 -3 279 -3 q 131 29 173 -1 q 65 117 90 58 q 41 266 41 176 q 282 778 41 537 l 64 778 z "},"η":{"ha":669,"x_min":71,"x_max":602,"o":"m 71 685 l 262 685 l 262 591 q 429 699 307 699 q 529 673 489 699 q 586 605 570 647 q 602 449 602 563 l 602 -233 l 411 -233 l 411 449 q 400 559 411 540 q 351 578 389 578 q 299 552 325 578 q 267 491 273 526 q 262 401 262 456 l 262 0 l 71 0 l 71 685 z "},"θ":{"ha":686,"x_min":43,"x_max":644,"o":"m 343 940 q 568 811 492 940 q 644 463 644 683 q 566 113 644 241 q 343 -14 489 -14 q 120 113 197 -14 q 43 463 43 241 q 118 810 43 680 q 343 940 193 940 m 225 539 l 460 539 q 342 805 452 805 q 225 539 234 805 m 225 418 q 344 121 227 121 q 460 418 457 121 l 225 418 z "},"ι":{"ha":331,"x_min":70,"x_max":261,"o":"m 70 685 l 261 685 l 261 0 l 70 0 l 70 685 z "},"κ":{"ha":639,"x_min":71,"x_max":645,"o":"m 71 685 l 262 685 l 262 420 l 454 685 l 628 685 l 455 455 l 645 0 l 439 0 l 332 318 l 262 222 l 262 0 l 71 0 l 71 685 z "},"λ":{"ha":540,"x_min":-16,"x_max":559,"o":"m -16 0 l 176 625 l 93 926 l 284 926 l 559 0 l 364 0 l 263 393 l 148 0 l -16 0 z "},"μ":{"ha":677,"x_min":70,"x_max":606,"o":"m 70 -234 l 70 685 l 261 685 l 261 323 q 264 201 261 231 q 286 152 267 172 q 336 132 304 132 q 394 162 372 132 q 416 323 416 192 l 416 685 l 606 685 l 606 0 l 421 0 l 422 93 q 334 -16 401 -16 q 250 90 263 -16 l 250 -234 l 70 -234 z "},"ν":{"ha":497,"x_min":-15,"x_max":517,"o":"m -15 685 l 169 685 l 263 280 l 359 685 l 517 685 l 330 0 l 178 0 l -15 685 z "},"ξ":{"ha":553,"x_min":37,"x_max":550,"o":"m 359 -213 q 381 -78 381 -113 q 360 -32 381 -43 q 305 -19 339 -21 q 148 14 199 -14 q 67 100 96 41 q 37 241 37 159 q 83 398 37 342 q 220 489 128 453 q 105 558 130 524 q 80 633 80 593 q 216 779 80 732 l 65 779 l 65 926 l 528 926 l 528 779 l 443 779 q 364 771 391 779 q 315 735 337 764 q 294 665 294 706 q 413 551 294 551 l 480 551 l 480 406 l 413 406 q 319 396 349 406 q 269 356 288 387 q 250 278 250 325 q 276 195 250 219 q 364 161 302 171 q 475 139 443 150 q 529 93 508 127 q 550 -12 550 59 q 509 -237 550 -98 l 359 -213 z "},"ο":{"ha":639,"x_min":41,"x_max":598,"o":"m 598 342 q 320 -14 598 -14 q 41 342 41 -14 q 320 699 41 699 q 598 342 598 699 m 401 342 q 383 519 401 473 q 320 566 365 566 q 258 522 277 566 q 239 342 239 478 q 255 168 239 217 q 320 119 271 119 q 384 168 367 119 q 401 342 401 216 z "},"π":{"ha":752,"x_min":21,"x_max":731,"o":"m 662 530 l 662 0 l 471 0 l 471 530 l 281 530 l 281 0 l 90 0 l 90 530 l 21 530 l 21 685 l 731 685 l 731 530 l 662 530 z "},"ρ":{"ha":662,"x_min":62,"x_max":625,"o":"m 253 51 l 253 -232 l 62 -232 l 62 250 q 83 499 62 406 q 171 645 104 592 q 345 699 237 699 q 625 342 625 699 q 557 70 625 162 q 382 -22 490 -22 q 253 51 271 -22 m 428 342 q 410 519 428 473 q 347 566 391 566 q 284 522 303 566 q 265 342 265 478 q 286 159 265 199 q 347 119 306 119 q 411 168 394 119 q 428 342 428 216 z "},"ς":{"ha":600,"x_min":37,"x_max":580,"o":"m 363 -203 q 399 -65 399 -119 q 388 -27 399 -38 q 340 -13 376 -16 q 117 91 196 -1 q 37 340 37 182 q 114 605 37 510 q 324 701 191 701 q 484 649 420 701 q 580 460 549 598 l 404 427 q 323 554 389 554 q 260 510 286 554 q 234 367 234 466 q 255 238 234 281 q 310 179 277 195 q 416 150 344 163 q 539 100 499 135 q 579 -11 579 65 q 535 -238 579 -96 l 363 -203 z "},"σ":{"ha":673,"x_min":37,"x_max":659,"o":"m 416 686 l 659 685 l 659 549 l 530 549 q 581 464 568 507 q 594 337 594 420 q 316 -14 594 -14 q 37 342 37 -14 q 316 699 37 699 q 416 686 372 699 m 397 342 q 379 519 397 473 q 316 566 361 566 q 254 522 273 566 q 235 342 235 478 q 251 168 235 217 q 316 119 267 119 q 380 168 363 119 q 397 342 397 216 z "},"τ":{"ha":507,"x_min":-5,"x_max":512,"o":"m -5 685 l 512 685 l 512 533 l 347 533 l 347 0 l 156 0 l 156 533 l -5 533 l -5 685 z "},"υ":{"ha":654,"x_min":66,"x_max":589,"o":"m 66 685 l 257 685 l 257 289 q 270 159 257 186 q 327 132 282 132 q 386 159 373 132 q 399 289 399 186 l 399 685 l 589 685 l 589 289 q 567 110 589 169 q 483 18 544 51 q 332 -16 422 -16 q 176 15 237 -16 q 91 104 116 45 q 66 289 66 162 l 66 685 z "},"φ":{"ha":863,"x_min":41,"x_max":823,"o":"m 342 -231 l 342 -16 q 122 89 203 -7 q 41 341 41 186 q 231 667 41 579 l 284 508 q 234 338 234 447 q 342 122 234 161 l 342 694 q 429 699 387 699 q 645 659 564 699 q 774 532 726 618 q 823 338 823 446 q 747 100 823 202 q 516 -16 671 -3 l 516 -231 l 342 -231 m 516 121 q 626 343 626 159 q 516 568 626 532 l 516 121 z "},"χ":{"ha":572,"x_min":-31,"x_max":594,"o":"m 191 250 l 8 685 l 191 685 l 300 425 l 431 685 l 593 685 l 394 230 l 594 -229 l 412 -229 l 283 90 l 130 -229 l -31 -229 l 191 250 z "},"ψ":{"ha":877,"x_min":66,"x_max":810,"o":"m 342 -231 l 342 -11 q 187 32 249 -5 q 96 130 125 69 q 66 328 66 190 l 66 685 l 258 685 l 258 328 q 273 185 258 224 q 342 138 289 146 l 342 685 l 534 685 l 534 138 q 604 186 589 146 q 619 328 619 226 l 619 685 l 810 685 l 810 328 q 784 140 810 206 q 695 35 759 73 q 534 -11 631 -3 l 534 -231 l 342 -231 z "},"ω":{"ha":857,"x_min":37,"x_max":820,"o":"m 515 513 l 515 308 q 523 177 515 222 q 559 132 531 132 q 623 313 623 132 q 535 629 623 503 l 679 706 q 799 489 779 574 q 820 315 820 405 q 755 71 820 157 q 572 -16 690 -16 q 429 56 473 -16 q 285 -16 384 -16 q 100 73 163 -16 q 37 311 37 162 q 76 539 37 447 q 179 707 114 631 l 323 631 q 234 313 234 504 q 298 132 234 132 q 334 175 326 132 q 342 308 342 218 l 342 513 l 515 513 z "},"ϊ":{"ha":331,"x_min":-26,"x_max":357,"o":"m 70 685 l 261 685 l 261 0 l 70 0 l 70 685 m 203 861 q 225 912 203 891 q 280 934 248 934 q 335 912 313 934 q 357 861 357 891 q 333 808 357 828 q 280 788 309 788 q 227 808 251 788 q 203 861 203 829 m -26 861 q -4 912 -26 891 q 51 934 19 934 q 105 912 83 934 q 128 861 128 891 q 104 808 128 829 q 51 788 80 788 q -2 808 23 788 q -26 861 -26 827 z "},"ϋ":{"ha":654,"x_min":66,"x_max":589,"o":"m 66 685 l 257 685 l 257 289 q 270 159 257 186 q 327 132 282 132 q 386 159 373 132 q 399 289 399 186 l 399 685 l 589 685 l 589 289 q 567 110 589 169 q 483 18 544 51 q 332 -16 422 -16 q 176 15 237 -16 q 91 104 116 45 q 66 289 66 162 l 66 685 m 371 861 q 394 912 371 891 q 448 934 416 934 q 503 912 481 934 q 526 861 526 891 q 501 808 526 828 q 448 788 477 788 q 395 808 419 788 q 371 861 371 829 m 142 861 q 164 912 142 891 q 219 934 187 934 q 274 912 251 934 q 296 861 296 891 q 272 808 296 829 q 219 788 248 788 q 166 808 191 788 q 142 861 142 827 z "},"ό":{"ha":639,"x_min":41,"x_max":598,"o":"m 598 342 q 320 -14 598 -14 q 41 342 41 -14 q 320 699 41 699 q 598 342 598 699 m 401 342 q 383 519 401 473 q 320 566 365 566 q 258 522 277 566 q 239 342 239 478 q 255 168 239 217 q 320 119 271 119 q 384 168 367 119 q 401 342 401 216 m 220 816 l 452 1029 l 528 916 l 277 759 l 220 816 z "},"ύ":{"ha":654,"x_min":66,"x_max":589,"o":"m 66 685 l 257 685 l 257 289 q 270 159 257 186 q 327 132 282 132 q 386 159 373 132 q 399 289 399 186 l 399 685 l 589 685 l 589 289 q 567 110 589 169 q 483 18 544 51 q 332 -16 422 -16 q 176 15 237 -16 q 91 104 116 45 q 66 289 66 162 l 66 685 m 229 816 l 460 1029 l 536 916 l 286 759 l 229 816 z "},"ώ":{"ha":857,"x_min":37,"x_max":820,"o":"m 515 513 l 515 308 q 523 177 515 222 q 559 132 531 132 q 623 313 623 132 q 535 629 623 503 l 679 706 q 799 489 779 574 q 820 315 820 405 q 755 71 820 157 q 572 -16 690 -16 q 429 56 473 -16 q 285 -16 384 -16 q 100 73 163 -16 q 37 311 37 162 q 76 539 37 447 q 179 707 114 631 l 323 631 q 234 313 234 504 q 298 132 234 132 q 334 175 326 132 q 342 308 342 218 l 342 513 l 515 513 m 353 816 l 585 1029 l 661 916 l 410 759 l 353 816 z "},"Ё":{"ha":663,"x_min":87,"x_max":650,"o":"m 87 926 l 650 926 l 650 767 l 291 767 l 291 552 l 570 552 l 570 393 l 291 393 l 291 165 l 650 165 l 650 0 l 87 0 l 87 926 m 406 1086 q 428 1138 406 1116 q 483 1159 451 1159 q 538 1138 515 1159 q 560 1086 560 1116 q 536 1033 560 1053 q 483 1013 511 1013 q 430 1034 454 1013 q 406 1086 406 1054 m 176 1086 q 199 1138 176 1116 q 254 1159 222 1159 q 308 1138 286 1159 q 331 1086 331 1116 q 307 1034 331 1054 q 254 1013 283 1013 q 201 1033 226 1013 q 176 1086 176 1053 z "},"Ђ":{"ha":704,"x_min":-12,"x_max":650,"o":"m 337 -220 l 337 -61 q 418 -73 387 -73 q 451 -57 444 -73 q 458 0 458 -41 l 458 448 q 447 538 458 515 q 395 561 435 561 q 333 533 350 561 q 315 442 315 505 l 315 0 l 112 0 l 112 767 l -12 767 l -12 926 l 566 926 l 566 767 l 315 767 l 315 624 q 481 712 366 712 q 588 680 549 712 q 639 596 628 647 q 650 448 650 545 l 649 0 q 448 -234 649 -234 q 337 -220 404 -234 z "},"Ѓ":{"ha":650,"x_min":87,"x_max":650,"o":"m 650 926 l 650 758 l 291 758 l 291 0 l 87 0 l 87 926 l 650 926 m 203 1054 l 434 1267 l 510 1154 l 260 997 l 203 1054 z "},"Є":{"ha":776,"x_min":46,"x_max":758,"o":"m 525 556 l 525 401 l 250 401 q 409 151 267 151 q 578 317 544 151 l 758 277 q 409 -16 719 -16 q 134 116 222 -16 q 46 458 46 248 q 138 814 46 686 q 409 942 229 942 q 654 866 569 942 q 755 687 739 790 l 555 643 q 412 775 530 775 q 252 556 273 775 l 525 556 z "},"Ѕ":{"ha":710,"x_min":22,"x_max":672,"o":"m 654 724 l 486 660 q 354 774 450 774 q 283 749 309 774 q 257 690 257 724 q 288 627 257 650 q 417 566 319 604 q 558 500 507 532 q 641 411 609 467 q 672 281 672 355 q 583 69 672 152 q 344 -14 494 -14 q 22 240 92 -14 l 200 291 q 349 151 233 151 q 434 179 401 151 q 467 251 467 206 q 444 312 467 285 q 338 368 421 338 q 180 437 232 406 q 94 525 127 468 q 60 656 60 583 q 140 860 60 781 q 353 940 220 940 q 654 724 594 940 z "},"І":{"ha":378,"x_min":87,"x_max":291,"o":"m 87 926 l 291 926 l 291 0 l 87 0 l 87 926 z "},"Ї":{"ha":378,"x_min":-3,"x_max":381,"o":"m 87 926 l 291 926 l 291 0 l 87 0 l 87 926 m 227 1086 q 249 1138 227 1116 q 304 1159 272 1159 q 359 1138 336 1159 q 381 1086 381 1116 q 357 1033 381 1053 q 304 1013 332 1013 q 251 1034 275 1013 q 227 1086 227 1054 m -3 1086 q 20 1138 -3 1116 q 75 1159 43 1159 q 129 1138 106 1159 q 152 1086 152 1116 q 128 1034 152 1054 q 75 1013 104 1013 q 22 1033 47 1013 q -3 1086 -3 1053 z "},"Ј":{"ha":450,"x_min":-7,"x_max":367,"o":"m 163 926 l 367 926 l 367 311 q 350 129 367 194 q 278 24 332 63 q 117 -14 224 -14 q -7 0 71 -14 l -7 170 q 75 161 42 161 q 146 190 129 161 q 163 311 163 218 l 163 926 z "},"Љ":{"ha":1073,"x_min":-22,"x_max":1051,"o":"m 559 584 l 714 584 q 905 556 834 584 q 1014 461 976 528 q 1051 289 1051 394 q 1014 125 1051 193 q 915 29 976 58 q 726 0 854 0 l 524 0 l 340 728 l 166 0 l -22 0 l 233 926 l 461 926 l 559 584 m 683 150 l 705 150 q 776 159 751 150 q 819 201 801 169 q 836 285 836 233 q 812 386 836 347 q 705 425 789 425 l 604 425 l 683 150 z "},"Њ":{"ha":1149,"x_min":87,"x_max":1127,"o":"m 718 926 l 718 584 l 790 584 q 981 555 911 584 q 1089 460 1052 527 q 1127 288 1127 393 q 1088 123 1127 191 q 988 28 1049 56 q 781 0 927 0 l 515 0 l 515 386 l 291 386 l 291 0 l 87 0 l 87 926 l 291 926 l 291 545 l 515 545 l 515 926 l 718 926 m 718 159 l 781 159 q 851 168 826 159 q 894 208 876 177 q 912 290 912 239 q 888 387 912 350 q 781 425 864 425 l 718 425 l 718 159 z "},"Ћ":{"ha":723,"x_min":-12,"x_max":650,"o":"m 649 0 l 458 0 l 458 448 q 447 538 458 515 q 395 561 435 561 q 333 533 350 561 q 315 442 315 505 l 315 0 l 112 0 l 112 767 l -12 767 l -12 926 l 566 926 l 566 767 l 315 767 l 315 624 q 481 712 366 712 q 588 680 549 712 q 639 596 628 647 q 650 448 650 545 l 649 0 z "},"Ќ":{"ha":733,"x_min":87,"x_max":741,"o":"m 87 926 l 291 926 l 291 540 l 516 926 l 722 926 l 490 585 l 741 0 l 531 0 l 368 427 l 291 315 l 291 0 l 87 0 l 87 926 m 280 1054 l 511 1267 l 587 1154 l 337 997 l 280 1054 z "},"Ў":{"ha":633,"x_min":-28,"x_max":666,"o":"m 252 277 l -28 926 l 180 926 l 339 522 l 477 926 l 666 926 l 418 230 q 316 47 370 94 q 164 0 261 0 l 78 0 l 78 172 l 164 172 q 205 185 184 172 q 252 277 226 198 m 121 1175 l 231 1175 q 346 1104 259 1104 q 461 1175 432 1104 l 570 1175 q 346 1005 522 1005 q 121 1175 171 1005 z "},"Џ":{"ha":804,"x_min":87,"x_max":717,"o":"m 328 0 l 87 0 l 87 926 l 291 926 l 291 174 l 513 174 l 513 926 l 717 926 l 717 0 l 475 0 l 460 -197 l 339 -195 l 328 0 z "},"А":{"ha":710,"x_min":-27,"x_max":720,"o":"m 251 926 l 456 926 l 720 0 l 512 0 l 466 191 l 205 191 l 160 0 l -27 0 l 251 926 m 427 350 l 334 728 l 244 350 l 427 350 z "},"Б":{"ha":741,"x_min":87,"x_max":700,"o":"m 87 926 l 614 926 l 614 767 l 291 767 l 291 584 l 362 584 q 626 508 553 584 q 700 288 700 432 q 651 107 700 177 q 536 18 602 37 q 354 0 470 0 l 87 0 l 87 926 m 291 425 l 291 159 l 354 159 q 453 189 422 159 q 485 289 485 218 q 460 388 485 351 q 354 425 436 425 l 291 425 z "},"В":{"ha":781,"x_min":87,"x_max":730,"o":"m 87 926 l 404 926 q 571 908 515 926 q 666 831 628 890 q 705 682 705 771 q 572 483 705 527 q 730 256 730 427 q 687 103 730 165 q 582 21 644 41 q 404 0 519 0 l 87 0 l 87 926 m 283 552 l 349 552 q 472 587 447 552 q 498 668 498 623 q 472 743 498 710 q 363 776 447 776 l 283 776 l 283 552 m 283 159 l 382 159 q 523 280 523 159 q 488 375 523 347 q 382 402 453 402 l 283 402 l 283 159 z "},"Г":{"ha":650,"x_min":87,"x_max":650,"o":"m 650 926 l 650 767 l 291 767 l 291 0 l 87 0 l 87 926 l 650 926 z "},"Д":{"ha":720,"x_min":-20,"x_max":741,"o":"m 38 169 l 239 926 l 500 926 l 683 169 l 741 169 l 741 -188 l 590 -188 l 572 0 l 148 0 l 130 -188 l -20 -188 l -20 169 l 38 169 m 223 169 l 477 169 l 366 730 l 340 730 l 223 169 z "},"Е":{"ha":663,"x_min":87,"x_max":650,"o":"m 87 926 l 650 926 l 650 767 l 291 767 l 291 552 l 570 552 l 570 393 l 291 393 l 291 165 l 650 165 l 650 0 l 87 0 l 87 926 z "},"Ж":{"ha":996,"x_min":-20,"x_max":1050,"o":"m 758 527 l 1050 0 l 836 0 l 616 404 l 608 397 l 608 0 l 404 0 l 404 397 l 397 404 l 176 0 l -20 0 l 254 481 l -1 926 l 212 926 l 390 587 l 404 584 l 404 926 l 608 926 l 608 584 l 615 587 l 800 926 l 997 926 l 758 527 z "},"З":{"ha":687,"x_min":16,"x_max":645,"o":"m 218 645 l 41 678 q 157 889 79 839 q 353 940 236 940 q 553 875 479 940 q 627 690 627 810 q 489 486 627 545 q 645 264 645 439 q 563 59 645 134 q 317 -15 481 -15 q 101 68 158 -15 q 16 288 43 152 l 195 317 q 247 178 216 205 q 326 151 279 151 q 408 186 380 151 q 435 277 435 222 q 293 406 435 406 l 262 406 l 262 555 l 293 555 q 363 563 338 555 q 407 598 389 571 q 425 670 425 625 q 330 783 425 783 q 266 764 297 783 q 218 645 234 745 z "},"И":{"ha":819,"x_min":87,"x_max":732,"o":"m 291 95 l 291 0 l 87 0 l 87 926 l 291 926 l 291 406 l 321 463 l 528 823 l 528 926 l 732 926 l 732 0 l 528 0 l 528 479 l 529 516 l 496 455 l 291 95 z "},"Й":{"ha":819,"x_min":87,"x_max":732,"o":"m 291 95 l 291 0 l 87 0 l 87 926 l 291 926 l 291 406 l 321 463 l 528 823 l 528 926 l 732 926 l 732 0 l 528 0 l 528 479 l 529 516 l 496 455 l 291 95 m 196 1175 l 305 1175 q 420 1104 334 1104 q 536 1175 507 1104 l 645 1175 q 420 1005 597 1005 q 196 1175 245 1005 z "},"К":{"ha":733,"x_min":87,"x_max":741,"o":"m 87 926 l 291 926 l 291 540 l 516 926 l 722 926 l 490 585 l 741 0 l 531 0 l 368 427 l 291 315 l 291 0 l 87 0 l 87 926 z "},"Л":{"ha":711,"x_min":-22,"x_max":726,"o":"m 166 0 l -22 0 l 233 926 l 461 926 l 726 0 l 524 0 l 340 728 l 166 0 z "},"М":{"ha":1041,"x_min":87,"x_max":954,"o":"m 87 926 l 386 926 l 517 354 l 664 926 l 954 926 l 954 0 l 763 0 l 763 775 l 574 0 l 426 0 l 253 775 l 253 0 l 87 0 l 87 926 z "},"Н":{"ha":804,"x_min":87,"x_max":717,"o":"m 87 926 l 291 926 l 291 552 l 513 552 l 513 926 l 717 926 l 717 0 l 513 0 l 513 378 l 291 378 l 291 0 l 87 0 l 87 926 z "},"О":{"ha":781,"x_min":54,"x_max":726,"o":"m 726 463 q 391 -14 726 -14 q 139 107 224 -14 q 54 463 54 229 q 390 940 54 940 q 640 821 554 940 q 726 463 726 701 m 512 463 q 483 712 512 650 q 390 774 454 774 q 298 712 327 774 q 269 463 269 650 q 297 216 269 280 q 390 151 326 151 q 483 213 453 151 q 512 463 512 275 z "},"П":{"ha":804,"x_min":87,"x_max":717,"o":"m 87 926 l 717 926 l 717 0 l 513 0 l 513 752 l 291 752 l 291 0 l 87 0 l 87 926 z "},"Р":{"ha":710,"x_min":87,"x_max":700,"o":"m 87 926 l 354 926 q 542 905 475 926 q 654 813 609 885 q 700 636 700 742 q 663 468 700 534 q 562 372 627 401 q 363 342 497 342 l 291 342 l 291 0 l 87 0 l 87 926 m 291 776 l 291 502 l 354 502 q 461 541 437 502 q 486 641 486 579 q 467 725 486 693 q 424 767 448 758 q 354 776 399 776 l 291 776 z "},"С":{"ha":758,"x_min":54,"x_max":726,"o":"m 538 337 l 726 326 q 630 80 715 175 q 404 -14 545 -14 q 144 113 233 -14 q 54 462 54 239 q 143 813 54 686 q 407 940 232 940 q 722 582 696 940 l 536 568 q 408 774 529 774 q 306 708 344 774 q 269 450 269 642 q 303 215 269 279 q 407 151 338 151 q 538 337 518 151 z "},"Т":{"ha":544,"x_min":-16,"x_max":561,"o":"m -16 926 l 561 926 l 561 752 l 372 752 l 372 0 l 168 0 l 168 752 l -16 752 l -16 926 z "},"У":{"ha":633,"x_min":-28,"x_max":666,"o":"m 252 277 l -28 926 l 180 926 l 339 522 l 477 926 l 666 926 l 418 230 q 316 47 370 94 q 164 0 261 0 l 78 0 l 78 172 l 164 172 q 205 185 184 172 q 252 277 226 198 z "},"Ф":{"ha":902,"x_min":48,"x_max":854,"o":"m 364 85 q 120 217 193 113 q 48 464 48 321 q 128 716 48 615 q 364 842 208 817 l 364 954 l 538 954 l 538 842 q 724 766 651 826 q 825 628 796 707 q 854 464 854 549 q 538 87 854 144 l 538 -27 l 364 -27 l 364 85 m 364 685 q 245 458 245 640 q 364 242 245 288 l 364 685 m 538 242 q 657 470 657 288 q 538 685 657 639 l 538 242 z "},"Х":{"ha":663,"x_min":-21,"x_max":684,"o":"m 7 926 l 233 926 l 344 685 l 460 926 l 655 926 l 437 507 l 684 0 l 460 0 l 326 302 l 174 0 l -21 0 l 233 475 l 7 926 z "},"Ц":{"ha":857,"x_min":94,"x_max":862,"o":"m 724 174 l 862 174 l 862 -188 l 711 -188 l 693 0 l 94 0 l 94 926 l 298 926 l 298 174 l 520 174 l 520 926 l 724 926 l 724 174 z "},"Ч":{"ha":762,"x_min":68,"x_max":675,"o":"m 471 0 l 471 339 q 314 286 403 286 q 181 322 238 286 q 96 421 123 359 q 68 596 68 483 l 68 926 l 272 926 l 272 589 q 289 483 272 513 q 350 452 306 452 q 471 517 415 452 l 471 926 l 675 926 l 675 0 l 471 0 z "},"Ш":{"ha":1137,"x_min":94,"x_max":1043,"o":"m 94 0 l 94 926 l 298 926 l 298 174 l 467 174 l 467 926 l 671 926 l 671 174 l 840 174 l 840 926 l 1043 926 l 1043 0 l 94 0 z "},"Щ":{"ha":1168,"x_min":87,"x_max":1175,"o":"m 1036 174 l 1175 174 l 1175 -188 l 1025 -188 l 1006 0 l 87 0 l 87 926 l 291 926 l 291 174 l 460 174 l 460 926 l 664 926 l 664 174 l 833 174 l 833 926 l 1036 926 l 1036 174 z "},"Ъ":{"ha":818,"x_min":-35,"x_max":794,"o":"m 182 0 l 182 741 l -35 741 l -35 926 l 385 926 l 385 584 l 457 584 q 721 508 648 584 q 794 287 794 431 q 745 107 794 177 q 630 18 696 37 q 448 0 564 0 l 182 0 m 385 150 l 448 150 q 517 159 492 150 q 561 200 543 168 q 580 285 580 232 q 555 386 580 348 q 448 425 531 425 l 385 425 l 385 150 z "},"Ы":{"ha":1088,"x_min":87,"x_max":1001,"o":"m 87 0 l 87 926 l 291 926 l 291 584 l 363 584 q 626 508 553 584 q 700 288 700 432 q 651 107 700 177 q 536 18 602 37 q 354 0 470 0 l 87 0 m 291 150 l 354 150 q 424 159 399 150 q 467 201 449 169 q 486 285 486 233 q 461 386 486 347 q 354 425 437 425 l 291 425 l 291 150 m 798 926 l 1001 926 l 1001 0 l 798 0 l 798 926 z "},"Ь":{"ha":724,"x_min":87,"x_max":700,"o":"m 87 0 l 87 926 l 291 926 l 291 584 l 363 584 q 626 508 553 584 q 700 288 700 432 q 651 107 700 177 q 536 18 602 37 q 354 0 470 0 l 87 0 m 291 150 l 354 150 q 424 159 399 150 q 467 201 449 169 q 486 285 486 233 q 461 386 486 347 q 354 425 437 425 l 291 425 l 291 150 z "},"Э":{"ha":776,"x_min":18,"x_max":730,"o":"m 252 556 l 524 556 q 364 775 504 775 q 221 643 247 775 l 22 687 q 122 866 37 790 q 368 942 208 942 q 639 814 547 942 q 730 458 730 686 q 692 216 730 325 q 575 45 654 106 q 367 -16 496 -16 q 18 277 58 -16 l 199 317 q 368 151 232 151 q 527 401 510 151 l 252 401 l 252 556 z "},"Ю":{"ha":1119,"x_min":87,"x_max":1073,"o":"m 402 378 l 291 378 l 291 0 l 87 0 l 87 926 l 291 926 l 291 552 l 402 552 q 737 940 441 940 q 989 818 905 940 q 1073 463 1073 695 q 737 -14 1073 -14 q 402 378 439 -14 m 859 463 q 829 713 859 651 q 737 774 800 774 q 645 712 673 774 q 616 463 616 650 q 645 214 616 276 q 737 151 674 151 q 829 212 800 151 q 859 463 859 273 z "},"Я":{"ha":757,"x_min":19,"x_max":669,"o":"m 669 0 l 466 0 l 466 366 l 364 366 l 241 0 l 19 0 l 189 405 q 59 649 59 475 q 85 782 59 723 q 157 876 111 842 q 249 918 203 910 q 378 926 294 926 l 669 926 l 669 0 m 385 776 q 316 765 339 776 q 275 725 292 755 q 257 650 257 696 q 376 516 257 516 l 466 516 l 466 776 l 385 776 z "},"а":{"ha":663,"x_min":50,"x_max":604,"o":"m 254 467 l 73 485 q 160 644 85 588 q 349 699 235 699 q 504 662 446 699 q 577 576 562 625 q 593 425 593 528 l 593 152 q 604 0 593 24 l 427 0 q 418 105 418 28 q 230 -14 355 -14 q 100 34 150 -14 q 50 173 50 81 q 125 350 50 288 q 402 425 201 413 l 402 451 q 388 546 402 519 q 334 572 374 572 q 254 467 261 572 m 402 328 q 283 291 319 318 q 248 198 248 263 q 311 111 248 111 q 374 150 346 111 q 402 294 402 189 l 402 328 z "},"б":{"ha":668,"x_min":41,"x_max":627,"o":"m 392 983 l 566 983 q 546 904 566 933 q 481 851 526 875 q 367 810 436 827 q 298 786 318 797 q 262 749 278 775 q 231 671 245 723 q 364 713 285 713 q 555 617 484 713 q 627 351 627 521 q 550 80 627 176 q 332 -16 473 -16 q 41 376 41 -16 q 106 753 41 616 q 298 916 172 891 q 374 940 358 928 q 392 983 390 951 m 330 565 q 227 343 227 565 q 331 132 227 132 q 431 343 431 132 q 330 565 431 565 z "},"в":{"ha":675,"x_min":71,"x_max":640,"o":"m 71 0 l 71 685 l 418 685 q 520 671 482 685 q 589 614 559 657 q 619 511 619 570 q 534 366 619 416 q 640 201 640 315 q 588 56 640 113 q 445 0 536 0 l 71 0 m 274 419 l 378 419 q 427 434 412 419 q 441 487 441 448 q 432 538 441 515 q 378 560 422 560 l 274 560 l 274 419 m 274 148 l 388 148 q 441 167 427 148 q 454 224 454 186 q 440 282 454 262 q 388 302 426 302 l 274 302 l 274 148 z "},"г":{"ha":464,"x_min":71,"x_max":459,"o":"m 71 685 l 459 685 l 459 536 l 262 536 l 262 0 l 71 0 l 71 685 z "},"д":{"ha":596,"x_min":-13,"x_max":608,"o":"m 43 148 l 181 685 l 429 685 l 553 148 l 608 148 l 608 -153 l 470 -153 l 454 -1 l 142 -1 l 125 -153 l -13 -153 l -13 148 l 43 148 m 186 148 l 361 148 l 290 501 l 277 501 l 186 148 z "},"е":{"ha":639,"x_min":41,"x_max":597,"o":"m 597 311 l 238 311 l 238 273 q 263 149 238 180 q 329 118 288 118 q 427 235 416 118 l 597 224 q 326 -14 552 -14 q 113 80 186 -14 q 41 332 41 174 q 118 605 41 511 q 324 699 195 699 q 519 615 441 699 q 597 311 597 532 m 417 421 q 418 440 418 433 q 328 572 418 572 q 239 421 240 572 l 417 421 z "},"ж":{"ha":827,"x_min":-19,"x_max":866,"o":"m 653 412 l 866 0 l 669 0 l 514 296 l 510 294 l 510 0 l 330 0 l 330 294 l 326 296 l 165 0 l -19 0 l 191 368 l 1 685 l 194 685 l 311 465 l 330 455 l 330 685 l 510 685 l 510 455 l 526 465 l 646 685 l 833 685 l 653 412 z "},"з":{"ha":587,"x_min":15,"x_max":549,"o":"m 200 414 q 288 417 269 414 q 321 437 308 420 q 335 489 335 454 q 273 572 335 572 q 199 476 216 572 l 29 509 q 285 699 63 699 q 469 642 407 699 q 532 505 532 585 q 440 359 532 410 q 549 200 549 309 q 489 49 549 114 q 287 -16 428 -16 q 130 21 195 -16 q 15 189 64 58 l 178 218 q 278 113 208 113 q 331 137 309 113 q 352 208 352 161 q 336 261 352 243 q 296 281 319 279 q 200 284 273 284 l 200 414 z "},"и":{"ha":677,"x_min":71,"x_max":607,"o":"m 262 82 l 262 0 l 71 0 l 71 685 l 262 685 l 261 356 l 416 597 l 416 685 l 607 685 l 607 0 l 416 0 l 416 319 l 385 268 l 262 82 z "},"й":{"ha":677,"x_min":71,"x_max":607,"o":"m 262 82 l 262 0 l 71 0 l 71 685 l 262 685 l 261 356 l 416 597 l 416 685 l 607 685 l 607 0 l 416 0 l 416 319 l 385 268 l 262 82 m 120 938 l 229 938 q 345 867 258 867 q 460 938 431 867 l 569 938 q 345 768 521 768 q 120 938 170 768 z "},"к":{"ha":639,"x_min":71,"x_max":645,"o":"m 71 685 l 262 685 l 262 420 l 454 685 l 628 685 l 455 455 l 645 0 l 439 0 l 332 318 l 262 222 l 262 0 l 71 0 l 71 685 z "},"л":{"ha":559,"x_min":-19,"x_max":572,"o":"m -19 0 l 184 685 l 384 685 l 572 0 l 375 0 l 271 445 l 157 0 l -19 0 z "},"м":{"ha":869,"x_min":71,"x_max":800,"o":"m 71 0 l 71 685 l 318 685 l 444 220 l 566 685 l 800 685 l 800 0 l 625 0 l 625 385 l 517 0 l 336 0 l 232 382 l 232 0 l 71 0 z "},"н":{"ha":675,"x_min":71,"x_max":605,"o":"m 71 0 l 71 685 l 262 685 l 262 439 l 414 439 l 414 685 l 605 685 l 605 0 l 414 0 l 414 291 l 262 291 l 262 0 l 71 0 z "},"о":{"ha":639,"x_min":41,"x_max":598,"o":"m 598 342 q 320 -14 598 -14 q 41 342 41 -14 q 320 699 41 699 q 598 342 598 699 m 401 342 q 383 519 401 473 q 320 566 365 566 q 258 522 277 566 q 239 342 239 478 q 255 168 239 217 q 320 119 271 119 q 384 168 367 119 q 401 342 401 216 z "},"п":{"ha":650,"x_min":71,"x_max":580,"o":"m 71 0 l 71 685 l 580 685 l 580 0 l 389 0 l 389 560 l 262 560 l 262 0 l 71 0 z "},"р":{"ha":663,"x_min":71,"x_max":622,"o":"m 71 685 l 247 685 l 247 583 q 403 694 303 694 q 559 610 497 694 q 622 354 622 526 q 561 82 622 174 q 389 -9 500 -9 q 258 51 310 -9 l 258 -232 l 71 -232 l 71 685 m 258 280 q 274 152 258 182 q 339 123 290 123 q 404 162 382 123 q 425 353 425 201 q 406 524 425 479 q 345 568 388 568 q 283 540 309 568 q 258 410 258 512 l 258 280 z "},"с":{"ha":615,"x_min":41,"x_max":582,"o":"m 582 433 l 404 426 q 384 521 400 489 q 329 553 368 553 q 233 351 233 553 q 256 187 233 234 q 326 140 279 140 q 404 267 397 140 l 582 256 q 313 -14 558 -14 q 111 75 181 -14 q 41 340 41 164 q 114 607 41 515 q 321 699 188 699 q 582 433 561 699 z "},"т":{"ha":507,"x_min":-5,"x_max":512,"o":"m -5 685 l 512 685 l 512 533 l 347 533 l 347 0 l 156 0 l 156 533 l -5 533 l -5 685 z "},"у":{"ha":497,"x_min":-19,"x_max":518,"o":"m -19 685 l 172 685 l 264 267 l 353 685 l 518 685 l 312 -11 q 261 -151 282 -111 q 198 -217 240 -191 q 91 -243 156 -243 q 9 -232 51 -243 l 9 -81 q 63 -85 38 -85 q 139 -67 119 -85 q 178 13 160 -49 l -19 685 z "},"ф":{"ha":805,"x_min":41,"x_max":764,"o":"m 323 -229 l 323 3 q 115 115 189 23 q 41 342 41 208 q 323 693 41 632 l 323 914 l 481 914 l 481 693 q 764 345 764 632 q 689 115 764 207 q 481 3 615 23 l 481 -229 l 323 -229 m 323 142 l 323 553 q 226 347 226 505 q 323 142 226 189 m 481 142 q 578 347 578 190 q 481 553 578 505 l 481 142 z "},"х":{"ha":521,"x_min":-34,"x_max":554,"o":"m -7 685 l 200 685 l 273 526 l 361 685 l 527 685 l 350 382 l 554 0 l 347 0 l 247 205 l 132 0 l -34 0 l 169 351 l -7 685 z "},"ц":{"ha":664,"x_min":71,"x_max":674,"o":"m 71 -1 l 71 685 l 262 685 l 262 148 l 399 148 l 399 685 l 589 685 l 589 148 l 674 148 l 674 -161 l 536 -161 l 519 -1 l 71 -1 z "},"ч":{"ha":625,"x_min":54,"x_max":555,"o":"m 363 0 l 363 228 q 251 202 310 202 q 106 255 159 202 q 54 406 54 307 l 54 685 l 245 685 l 245 427 q 298 350 245 350 q 363 371 337 350 l 363 685 l 555 685 l 555 0 l 363 0 z "},"ш":{"ha":958,"x_min":74,"x_max":883,"o":"m 74 0 l 74 685 l 265 685 l 265 149 l 383 149 l 383 685 l 574 685 l 574 149 l 692 149 l 692 685 l 883 685 l 883 0 l 74 0 z "},"щ":{"ha":956,"x_min":71,"x_max":966,"o":"m 71 0 l 71 685 l 258 685 l 258 148 l 381 148 l 381 685 l 569 685 l 569 148 l 692 148 l 692 685 l 880 685 l 880 148 l 966 148 l 966 -161 l 829 -161 l 812 0 l 71 0 z "},"ъ":{"ha":661,"x_min":-39,"x_max":638,"o":"m 110 0 l 110 549 l -39 549 l -39 685 l 301 685 l 301 448 l 427 448 q 589 381 539 448 q 638 224 638 315 q 586 63 638 127 q 418 0 534 0 l 110 0 m 302 134 l 393 134 q 433 155 412 134 q 454 224 454 177 q 393 311 454 311 l 302 311 l 302 134 z "},"ы":{"ha":934,"x_min":71,"x_max":864,"o":"m 71 0 l 71 685 l 262 685 l 262 448 l 387 448 q 549 381 499 448 q 599 224 599 315 q 547 63 599 127 q 378 0 494 0 l 71 0 m 262 134 l 353 134 q 393 155 372 134 q 414 224 414 177 q 353 311 414 311 l 262 311 l 262 134 m 673 0 l 673 685 l 864 685 l 864 0 l 673 0 z "},"ь":{"ha":622,"x_min":71,"x_max":599,"o":"m 71 0 l 71 685 l 262 685 l 262 448 l 387 448 q 549 381 499 448 q 599 224 599 315 q 547 63 599 127 q 378 0 494 0 l 71 0 m 262 134 l 353 134 q 393 155 372 134 q 414 224 414 177 q 353 311 414 311 l 262 311 l 262 134 z "},"э":{"ha":597,"x_min":14,"x_max":561,"o":"m 153 413 l 367 413 q 336 530 360 500 q 269 560 312 560 q 195 479 209 560 l 16 498 q 270 701 68 701 q 479 615 398 701 q 561 351 561 530 q 490 80 561 176 q 277 -16 419 -16 q 14 195 57 -16 l 192 230 q 270 141 203 141 q 369 288 361 141 l 153 288 l 153 413 z "},"ю":{"ha":918,"x_min":70,"x_max":880,"o":"m 326 290 l 261 290 l 261 0 l 70 0 l 70 678 l 261 678 l 261 434 l 329 434 q 602 699 363 699 q 880 342 880 699 q 602 -14 880 -14 q 326 290 349 -14 m 683 342 q 665 519 683 473 q 602 566 648 566 q 539 522 559 566 q 520 342 520 479 q 541 159 520 199 q 602 119 561 119 q 666 168 649 119 q 683 342 683 216 z "},"я":{"ha":661,"x_min":15,"x_max":591,"o":"m 399 0 l 399 260 l 315 260 l 210 0 l 15 0 l 153 300 q 58 471 58 354 q 106 620 58 555 q 294 685 155 685 l 591 685 l 591 0 l 399 0 m 399 397 l 399 560 l 317 560 q 258 539 273 560 q 243 473 243 519 q 256 418 243 440 q 326 397 270 397 l 399 397 z "},"ё":{"ha":639,"x_min":41,"x_max":597,"o":"m 597 311 l 238 311 l 238 273 q 263 149 238 180 q 329 118 288 118 q 427 235 416 118 l 597 224 q 326 -14 552 -14 q 113 80 186 -14 q 41 332 41 174 q 118 605 41 511 q 324 699 195 699 q 519 615 441 699 q 597 311 597 532 m 417 421 q 418 440 418 433 q 328 572 418 572 q 239 421 240 572 l 417 421 m 370 861 q 393 912 370 891 q 448 934 416 934 q 503 912 480 934 q 525 861 525 891 q 500 808 525 828 q 448 788 476 788 q 394 808 418 788 q 370 861 370 829 m 141 861 q 164 912 141 891 q 218 934 186 934 q 273 912 250 934 q 296 861 296 891 q 272 808 296 829 q 218 788 248 788 q 166 808 191 788 q 141 861 141 827 z "},"ђ":{"ha":654,"x_min":-31,"x_max":601,"o":"m 68 0 l 68 736 l -31 736 l -31 864 l 68 864 l 68 941 l 257 941 l 257 864 l 479 864 l 479 736 l 257 736 l 257 635 q 396 684 310 684 q 524 637 475 684 q 587 513 573 591 q 601 216 601 435 q 585 -54 601 20 q 516 -174 570 -127 q 378 -221 463 -221 q 331 -219 362 -221 l 315 -81 q 343 -83 333 -83 q 399 -46 375 -83 q 423 221 423 -10 q 410 475 423 423 q 355 526 396 526 q 284 483 311 526 q 257 355 257 439 l 257 0 l 68 0 z "},"ѓ":{"ha":464,"x_min":71,"x_max":459,"o":"m 71 685 l 459 685 l 459 536 l 262 536 l 262 0 l 71 0 l 71 685 m 150 823 l 381 1036 l 457 922 l 207 766 l 150 823 z "},"є":{"ha":598,"x_min":37,"x_max":584,"o":"m 444 413 l 444 288 l 229 288 q 328 141 236 141 q 406 230 395 141 l 584 195 q 321 -16 542 -16 q 108 80 178 -16 q 37 351 37 176 q 119 615 37 530 q 328 701 200 701 q 582 498 529 701 l 403 479 q 328 560 389 560 q 262 530 286 560 q 231 413 238 500 l 444 413 z "},"ѕ":{"ha":568,"x_min":26,"x_max":543,"o":"m 522 520 l 386 479 q 286 572 359 572 q 226 513 226 572 q 248 461 226 479 q 340 419 271 444 q 456 370 419 391 q 517 307 492 349 q 543 210 543 264 q 474 50 543 115 q 283 -14 406 -14 q 26 190 52 -14 l 178 214 q 286 112 197 112 q 362 176 362 112 q 340 227 362 210 q 253 265 317 245 q 91 357 135 303 q 47 481 47 410 q 116 640 47 580 q 290 699 186 699 q 522 520 473 699 z "},"і":{"ha":331,"x_min":68,"x_max":262,"o":"m 262 741 l 68 741 l 68 930 l 262 930 l 262 741 m 70 685 l 261 685 l 261 0 l 70 0 l 70 685 z "},"ї":{"ha":331,"x_min":-26,"x_max":357,"o":"m 70 685 l 261 685 l 261 0 l 70 0 l 70 685 m 203 861 q 225 912 203 891 q 280 934 248 934 q 335 912 313 934 q 357 861 357 891 q 333 808 357 828 q 280 788 309 788 q 227 808 251 788 q 203 861 203 829 m -26 861 q -4 912 -26 891 q 51 934 19 934 q 105 912 83 934 q 128 861 128 891 q 104 808 128 829 q 51 788 80 788 q -2 808 23 788 q -26 861 -26 827 z "},"ј":{"ha":331,"x_min":-12,"x_max":269,"o":"m 269 741 l 75 741 l 75 930 l 269 930 l 269 741 m 77 685 l 268 685 l 268 22 q 256 -136 268 -83 q 201 -220 245 -189 q 91 -251 158 -251 q -12 -241 48 -251 l -12 -85 q 14 -87 3 -87 q 66 -66 56 -87 q 77 28 77 -45 l 77 685 z "},"љ":{"ha":869,"x_min":-19,"x_max":850,"o":"m 457 448 l 639 448 q 801 382 751 448 q 850 224 850 315 q 798 63 850 127 q 630 0 746 0 l 361 0 l 286 439 l 157 0 l -19 0 l 205 685 l 404 685 l 457 448 m 522 138 l 604 138 q 647 159 629 138 q 665 224 665 180 q 604 311 665 311 l 487 311 l 522 138 z "},"њ":{"ha":966,"x_min":71,"x_max":943,"o":"m 606 685 l 606 448 l 731 448 q 893 382 844 448 q 943 224 943 315 q 891 63 943 127 q 722 0 839 0 l 414 0 l 414 291 l 262 291 l 262 0 l 71 0 l 71 685 l 262 685 l 262 439 l 414 439 l 414 685 l 606 685 m 606 134 l 696 134 q 736 155 715 134 q 758 224 758 177 q 696 311 758 311 l 606 311 l 606 134 z "},"ћ":{"ha":660,"x_min":-31,"x_max":604,"o":"m 68 864 l 68 943 l 257 943 l 257 864 l 475 864 l 475 736 l 257 736 l 257 623 q 399 683 314 683 q 520 650 473 683 q 585 562 566 617 q 604 405 604 507 l 604 0 l 416 0 l 416 390 q 402 499 416 472 q 357 527 389 527 q 287 482 317 527 q 257 355 257 437 l 257 0 l 68 0 l 68 736 l -31 736 l -31 864 l 68 864 z "},"ќ":{"ha":639,"x_min":71,"x_max":645,"o":"m 71 685 l 262 685 l 262 420 l 454 685 l 628 685 l 455 455 l 645 0 l 439 0 l 332 318 l 262 222 l 262 0 l 71 0 l 71 685 m 234 820 l 465 1033 l 541 920 l 291 763 l 234 820 z "},"ў":{"ha":497,"x_min":-19,"x_max":518,"o":"m -19 685 l 172 685 l 264 267 l 353 685 l 518 685 l 312 -11 q 261 -151 282 -111 q 198 -217 240 -191 q 91 -243 156 -243 q 9 -232 51 -243 l 9 -81 q 63 -85 38 -85 q 139 -67 119 -85 q 178 13 160 -49 l -19 685 m 25 938 l 134 938 q 250 867 163 867 q 365 938 336 867 l 474 938 q 250 768 426 768 q 25 938 75 768 z "},"џ":{"ha":659,"x_min":70,"x_max":588,"o":"m 70 0 l 70 685 l 261 685 l 261 148 l 397 148 l 397 685 l 588 685 l 588 0 l 406 0 l 395 -161 l 263 -161 l 251 0 l 70 0 z "},"Ґ":{"ha":650,"x_min":87,"x_max":650,"o":"m 650 1099 l 650 758 l 291 758 l 291 0 l 87 0 l 87 926 l 486 926 l 486 1099 l 650 1099 z "},"ґ":{"ha":483,"x_min":71,"x_max":479,"o":"m 288 697 l 288 838 l 479 838 l 479 549 l 262 549 l 262 0 l 71 0 l 71 697 l 288 697 z "},"Ẁ":{"ha":994,"x_min":-7,"x_max":1004,"o":"m -7 926 l 201 926 l 298 285 l 419 926 l 606 926 l 720 283 l 833 926 l 1004 926 l 806 -5 l 623 -5 l 500 639 l 374 -5 l 193 -5 l -7 926 m 635 1041 l 578 984 l 328 1141 l 404 1254 l 635 1041 z "},"ẁ":{"ha":804,"x_min":-12,"x_max":822,"o":"m -12 685 l 174 685 l 255 269 l 332 685 l 517 685 l 580 269 l 672 685 l 822 685 l 650 0 l 490 0 l 402 466 l 316 0 l 161 0 l -12 685 m 551 821 l 494 764 l 243 920 l 319 1034 l 551 821 z "},"Ẃ":{"ha":994,"x_min":-7,"x_max":1004,"o":"m -7 926 l 201 926 l 298 285 l 419 926 l 606 926 l 720 283 l 833 926 l 1004 926 l 806 -5 l 623 -5 l 500 639 l 374 -5 l 193 -5 l -7 926 m 384 1041 l 615 1254 l 691 1141 l 441 984 l 384 1041 z "},"ẃ":{"ha":804,"x_min":-12,"x_max":822,"o":"m -12 685 l 174 685 l 255 269 l 332 685 l 517 685 l 580 269 l 672 685 l 822 685 l 650 0 l 490 0 l 402 466 l 316 0 l 161 0 l -12 685 m 300 827 l 531 1040 l 607 927 l 357 770 l 300 827 z "},"Ẅ":{"ha":994,"x_min":-7,"x_max":1004,"o":"m -7 926 l 201 926 l 298 285 l 419 926 l 606 926 l 720 283 l 833 926 l 1004 926 l 806 -5 l 623 -5 l 500 639 l 374 -5 l 193 -5 l -7 926 m 550 1086 q 573 1138 550 1116 q 627 1159 595 1159 q 682 1138 660 1159 q 705 1086 705 1116 q 680 1033 705 1053 q 627 1013 656 1013 q 574 1034 598 1013 q 550 1086 550 1054 m 321 1086 q 343 1138 321 1116 q 398 1159 366 1159 q 453 1138 430 1159 q 475 1086 475 1116 q 451 1034 475 1054 q 398 1013 427 1013 q 346 1033 370 1013 q 321 1086 321 1053 z "},"ẅ":{"ha":804,"x_min":-12,"x_max":822,"o":"m -12 685 l 174 685 l 255 269 l 332 685 l 517 685 l 580 269 l 672 685 l 822 685 l 650 0 l 490 0 l 402 466 l 316 0 l 161 0 l -12 685 m 447 857 q 470 909 447 888 q 524 930 492 930 q 579 909 557 930 q 602 857 602 888 q 577 805 602 825 q 524 785 553 785 q 471 805 495 785 q 447 857 447 825 m 218 857 q 240 909 218 888 q 295 930 263 930 q 350 909 327 930 q 372 857 372 888 q 348 805 372 825 q 295 785 324 785 q 242 804 267 785 q 218 857 218 824 z "},"Ỳ":{"ha":615,"x_min":-39,"x_max":654,"o":"m -39 926 l 184 926 l 315 588 l 455 926 l 654 926 l 397 391 l 397 0 l 193 0 l 193 391 l -39 926 m 416 1041 l 359 984 l 109 1141 l 185 1254 l 416 1041 z "},"ỳ":{"ha":497,"x_min":-19,"x_max":518,"o":"m -19 685 l 172 685 l 264 267 l 353 685 l 518 685 l 312 -11 q 261 -151 282 -111 q 198 -217 240 -191 q 91 -243 156 -243 q 9 -232 51 -243 l 9 -81 q 63 -85 38 -85 q 139 -67 119 -85 q 178 13 160 -49 l -19 685 m 389 823 l 332 766 l 81 922 l 157 1036 l 389 823 z "},"―":{"ha":923,"x_min":52,"x_max":871,"o":"m 52 422 l 871 422 l 871 280 l 52 280 l 52 422 z "},"‗":{"ha":694,"x_min":0,"x_max":694,"o":"m 0 -67 l 694 -67 l 694 -175 l 0 -175 l 0 -67 m 0 -230 l 694 -230 l 694 -338 l 0 -338 l 0 -230 z "},"‛":{"ha":331,"x_min":79,"x_max":252,"o":"m 252 926 l 252 721 l 176 721 l 252 539 l 178 539 l 79 721 l 79 926 l 252 926 z "},"′":{"ha":269,"x_min":27,"x_max":297,"o":"m 143 541 l 27 541 l 133 926 l 297 926 l 143 541 z "},"″":{"ha":515,"x_min":27,"x_max":561,"o":"m 143 541 l 27 541 l 133 926 l 297 926 l 143 541 m 407 541 l 292 541 l 397 926 l 561 926 l 407 541 z "},"‼":{"ha":753,"x_min":78,"x_max":665,"o":"m 78 926 l 322 926 l 262 276 l 138 276 l 78 926 m 105 205 l 294 205 l 294 0 l 105 0 l 105 205 m 421 926 l 665 926 l 605 276 l 481 276 l 421 926 m 448 205 l 637 205 l 637 0 l 448 0 l 448 205 z "},"‾":{"ha":778,"x_min":-28,"x_max":806,"o":"m -28 1267 l 806 1267 l 806 1217 l -28 1217 l -28 1267 z "},"⁄":{"ha":119,"x_min":-216,"x_max":335,"o":"m 223 926 l 335 926 l -106 0 l -216 0 l 223 926 z "},"ⁿ":{"ha":449,"x_min":46,"x_max":409,"o":"m 46 787 l 159 787 l 159 728 q 279 795 201 795 q 361 775 330 795 q 400 726 392 755 q 409 640 409 697 l 409 370 l 264 370 l 264 640 q 233 688 264 688 q 204 676 218 688 q 191 612 191 665 l 191 370 l 46 370 l 46 787 z "},"₤":{"ha":710,"x_min":12,"x_max":746,"o":"m 395 431 l 557 431 l 557 310 l 391 310 q 294 157 374 227 l 396 157 q 538 195 500 157 q 596 296 576 233 l 746 240 q 701 118 729 165 q 632 45 673 71 q 544 9 591 19 q 396 0 497 0 l 12 0 l 12 157 l 83 157 q 151 169 129 157 q 189 213 172 180 q 210 310 205 246 l 101 310 l 101 431 l 206 431 l 195 499 l 101 499 l 101 620 l 178 620 q 176 679 176 659 q 241 867 176 795 q 429 940 306 940 q 663 765 617 940 l 515 695 q 429 792 494 792 q 368 696 368 792 q 373 620 368 670 l 557 620 l 557 499 l 386 499 l 395 431 z "},"₧":{"ha":1335,"x_min":87,"x_max":1325,"o":"m 87 926 l 354 926 q 542 905 475 926 q 654 813 609 885 q 700 636 700 742 q 663 468 700 534 q 562 372 627 401 q 363 342 497 342 l 291 342 l 291 0 l 87 0 l 87 926 m 291 776 l 291 502 l 354 502 q 461 541 437 502 q 486 641 486 579 q 467 725 486 693 q 424 767 448 758 q 354 776 399 776 l 291 776 m 749 532 l 863 543 l 863 416 l 949 416 l 949 308 l 863 308 l 863 174 q 870 116 863 127 q 905 104 876 104 q 955 106 923 104 l 955 2 q 867 -8 905 -8 q 778 13 810 -8 q 736 65 745 34 q 726 162 726 96 l 726 308 l 670 308 l 670 416 l 739 416 l 749 532 m 1312 313 l 1203 284 q 1149 338 1190 338 q 1116 307 1116 338 q 1127 283 1116 293 q 1184 260 1138 273 q 1300 201 1274 234 q 1325 131 1325 168 q 1278 33 1325 73 q 1148 -8 1231 -8 q 972 119 994 -8 l 1092 136 q 1152 78 1102 78 q 1194 113 1194 78 q 1181 137 1194 129 q 1129 157 1168 145 q 1010 219 1036 186 q 985 290 985 252 q 1033 387 985 350 q 1153 425 1081 425 q 1312 313 1277 425 z "},"℅":{"ha":1073,"x_min":57,"x_max":1015,"o":"m 318 745 q 305 800 313 782 q 273 818 297 818 q 230 794 246 818 q 214 679 214 770 q 272 561 214 561 q 304 576 295 561 q 319 646 314 592 l 469 634 q 264 434 448 434 q 110 502 162 434 q 57 686 57 569 q 113 876 57 810 q 271 942 169 942 q 467 760 442 942 l 318 745 m 700 926 l 812 926 l 370 0 l 261 0 l 700 926 m 1015 242 q 959 48 1015 113 q 799 -16 902 -16 q 639 51 694 -16 q 584 238 584 118 q 639 425 584 358 q 801 492 694 492 q 958 428 900 492 q 1015 242 1015 365 m 857 243 q 800 376 857 376 q 743 243 743 376 q 800 111 743 111 q 857 243 857 111 z "},"ℓ":{"ha":814,"x_min":178,"x_max":667,"o":"m 422 368 q 385 121 385 171 q 406 78 385 78 q 460 143 430 78 q 492 172 474 172 q 518 141 518 172 q 472 32 518 86 q 362 -22 425 -22 q 280 22 311 -22 q 250 182 250 66 q 252 243 250 205 q 205 206 216 206 q 188 217 197 206 q 178 245 178 228 q 197 283 178 262 q 262 359 243 335 q 375 768 304 599 q 555 938 447 938 q 637 901 608 938 q 667 806 667 863 q 422 368 667 612 m 443 494 q 543 646 504 562 q 582 795 582 730 q 557 845 582 845 q 443 494 506 845 z "},"№":{"ha":1240,"x_min":87,"x_max":1191,"o":"m 87 926 l 313 926 l 551 351 l 551 926 l 709 926 l 709 0 l 527 0 l 245 670 l 245 0 l 87 0 l 87 926 m 1191 470 q 1002 250 1191 250 q 812 467 812 250 q 1002 683 812 683 q 1191 470 1191 683 m 1042 467 q 1035 553 1042 523 q 1002 584 1028 584 q 968 554 975 584 q 960 466 960 524 q 966 385 960 420 q 1002 349 972 349 q 1036 384 1030 349 q 1042 467 1042 419 m 812 142 l 1191 142 l 1191 0 l 812 0 l 812 142 z "},"℮":{"ha":833,"x_min":61,"x_max":779,"o":"m 218 360 l 218 109 q 420 26 299 26 q 688 193 592 26 l 736 164 q 579 13 656 49 q 420 -23 503 -23 q 162 84 262 -23 q 61 360 61 192 q 162 637 61 531 q 420 743 264 743 q 668 647 565 743 q 779 360 771 551 l 218 360 m 622 410 l 622 612 q 418 694 538 694 q 218 611 300 694 l 218 410 l 622 410 z "},"⅛":{"ha":1112,"x_min":55,"x_max":1056,"o":"m 191 930 l 307 930 l 307 479 l 405 479 l 405 370 l 55 370 l 55 479 l 155 479 l 155 759 q 55 699 106 720 l 55 828 q 191 930 138 866 m 704 926 l 816 926 l 374 0 l 265 0 l 704 926 m 956 304 q 1056 162 1056 251 q 1001 43 1056 94 q 838 -8 947 -8 q 681 38 730 -8 q 631 148 631 83 q 733 274 631 229 q 649 401 649 320 q 699 515 649 467 q 849 564 749 564 q 994 520 949 564 q 1040 419 1040 477 q 956 304 1040 347 m 872 342 q 905 410 905 375 q 851 465 905 465 q 793 418 793 465 q 872 342 793 377 m 815 233 q 768 159 768 203 q 842 95 768 95 q 893 110 876 95 q 911 147 911 125 q 815 233 911 191 z "},"⅜":{"ha":1112,"x_min":3,"x_max":1080,"o":"m 151 754 l 16 777 q 224 934 60 934 q 362 891 314 934 q 411 785 411 849 q 321 663 411 703 q 422 529 422 627 q 366 408 422 453 q 218 362 310 362 q 3 541 26 362 l 141 561 q 207 479 146 479 q 267 541 267 479 q 186 607 267 607 l 139 607 l 139 709 l 186 709 q 260 766 260 709 q 210 821 260 821 q 151 754 163 821 m 711 926 l 823 926 l 382 0 l 273 0 l 711 926 m 981 304 q 1080 162 1080 251 q 1026 43 1080 94 q 862 -8 971 -8 q 705 38 755 -8 q 656 148 656 83 q 758 274 656 229 q 673 401 673 320 q 723 515 673 467 q 873 564 773 564 q 1019 520 973 564 q 1064 419 1064 477 q 981 304 1064 347 m 897 342 q 930 410 930 375 q 876 465 930 465 q 818 418 818 465 q 897 342 818 377 m 840 233 q 793 159 793 203 q 867 95 793 95 q 918 110 900 95 q 936 147 936 125 q 840 233 936 191 z "},"⅝":{"ha":1112,"x_min":28,"x_max":1088,"o":"m 76 926 l 416 926 l 400 802 l 184 802 l 176 698 q 281 743 217 743 q 398 697 350 743 q 446 562 446 651 q 387 413 446 464 q 235 362 328 362 q 94 405 151 362 q 28 522 37 448 l 168 543 q 235 479 178 479 q 297 555 297 479 q 233 629 297 629 q 174 587 189 629 l 54 608 l 76 926 m 722 926 l 834 926 l 393 0 l 283 0 l 722 926 m 988 304 q 1088 162 1088 251 q 1033 43 1088 94 q 869 -8 979 -8 q 713 38 762 -8 q 663 148 663 83 q 765 274 663 229 q 681 401 681 320 q 731 515 681 467 q 881 564 781 564 q 1026 520 981 564 q 1072 419 1072 477 q 988 304 1072 347 m 904 342 q 937 410 937 375 q 883 465 937 465 q 825 418 825 465 q 904 342 825 377 m 847 233 q 800 159 800 203 q 874 95 800 95 q 925 110 907 95 q 943 147 943 125 q 847 233 943 191 z "},"⅞":{"ha":1112,"x_min":49,"x_max":1025,"o":"m 60 926 l 434 926 l 434 821 q 290 370 291 656 l 126 370 q 292 799 127 614 l 49 800 l 60 926 m 658 926 l 770 926 l 328 0 l 219 0 l 658 926 m 925 304 q 1025 162 1025 251 q 970 43 1025 94 q 806 -8 916 -8 q 650 38 699 -8 q 600 148 600 83 q 702 274 600 229 q 618 401 618 320 q 668 515 618 467 q 818 564 718 564 q 963 520 918 564 q 1008 419 1008 477 q 925 304 1008 347 m 841 342 q 874 410 874 375 q 820 465 874 465 q 762 418 762 465 q 841 342 762 377 m 784 233 q 737 159 737 203 q 811 95 737 95 q 862 110 844 95 q 880 147 880 125 q 784 233 880 191 z "},"←":{"ha":1389,"x_min":54,"x_max":1335,"o":"m 334 594 l 387 594 q 253 385 331 479 l 1335 385 l 1335 316 l 253 316 q 387 106 321 247 l 334 106 q 54 338 183 278 l 54 368 q 334 594 173 416 z "},"↑":{"ha":694,"x_min":104,"x_max":591,"o":"m 104 711 q 330 992 281 871 l 361 992 q 591 711 419 863 l 591 659 q 382 792 451 724 l 382 -290 l 313 -290 l 313 792 q 104 659 219 715 l 104 711 z "},"→":{"ha":1389,"x_min":54,"x_max":1335,"o":"m 1055 594 q 1335 368 1215 416 l 1335 338 q 1055 106 1205 278 l 1002 106 q 1135 316 1067 247 l 54 316 l 54 385 l 1135 385 q 1002 594 1057 479 l 1055 594 z "},"↓":{"ha":694,"x_min":104,"x_max":591,"o":"m 104 -9 l 104 43 q 313 -90 219 -12 l 313 992 l 382 992 l 382 -90 q 591 43 451 -22 l 591 -9 q 361 -290 419 -160 l 330 -290 q 104 -9 281 -169 z "},"↔":{"ha":1389,"x_min":54,"x_max":1335,"o":"m 1335 366 l 1335 336 q 1059 107 1212 282 l 1005 107 q 1137 318 1052 224 l 252 318 q 383 107 336 224 l 329 107 q 54 336 177 282 l 54 366 q 329 595 177 420 l 383 595 q 252 385 336 479 l 1137 385 q 1005 595 1052 479 l 1059 595 q 1335 366 1212 420 z "},"↕":{"ha":694,"x_min":103,"x_max":591,"o":"m 332 992 l 362 992 q 591 716 416 869 l 591 662 q 380 794 475 709 l 380 -92 q 591 40 475 -6 l 591 -14 q 362 -290 416 -166 l 332 -290 q 103 -14 278 -166 l 103 40 q 314 -92 219 -6 l 314 794 q 103 662 219 709 l 103 716 q 332 992 278 869 z "},"↨":{"ha":694,"x_min":105,"x_max":591,"o":"m 332 992 l 363 992 q 591 716 416 869 l 591 662 q 380 794 475 709 l 380 -92 q 591 40 475 -6 l 591 -14 q 363 -290 416 -166 l 332 -290 q 105 -14 279 -167 l 105 40 q 315 -92 221 -7 l 315 794 q 105 662 221 709 l 105 716 q 332 992 279 869 m 105 -354 l 591 -354 l 591 -420 l 105 -420 l 105 -354 z "},"∟":{"ha":1360,"x_min":245,"x_max":1114,"o":"m 245 867 l 313 867 l 313 68 l 1114 68 l 1114 0 l 245 0 l 245 867 z "},"∩":{"ha":999,"x_min":98,"x_max":901,"o":"m 237 0 l 98 0 l 98 431 q 107 693 98 615 q 164 846 117 771 q 303 972 212 922 q 500 1023 395 1023 q 696 972 604 1023 q 833 849 787 921 q 890 698 880 777 q 901 431 901 619 l 901 0 l 762 0 l 762 435 q 747 697 762 621 q 662 829 732 773 q 500 886 592 886 q 368 850 430 886 q 278 765 306 814 q 244 652 251 717 q 237 435 237 587 l 237 0 z "},"≡":{"ha":710,"x_min":71,"x_max":639,"o":"m 639 613 l 71 613 l 71 760 l 639 760 l 639 613 m 639 386 l 71 386 l 71 532 l 639 532 l 639 386 m 639 159 l 71 159 l 71 305 l 639 305 l 639 159 z "},"⌂":{"ha":833,"x_min":104,"x_max":730,"o":"m 104 0 l 104 430 l 416 782 l 730 430 l 730 0 l 104 0 m 159 55 l 675 55 l 675 407 l 416 696 l 159 407 l 159 55 z "},"⌐":{"ha":694,"x_min":46,"x_max":648,"o":"m 248 0 l 46 0 l 46 404 l 648 404 l 648 222 l 248 222 l 248 0 z "},"⌠":{"ha":833,"x_min":368,"x_max":659,"o":"m 466 -349 l 368 -349 l 368 879 q 426 1099 368 1019 q 566 1178 484 1178 q 637 1155 616 1178 q 659 1104 659 1131 q 641 1059 659 1076 q 600 1042 623 1042 q 562 1051 576 1042 q 533 1083 547 1060 q 501 1108 517 1108 q 474 1092 481 1108 q 466 987 466 1075 l 466 -349 z "},"⌡":{"ha":833,"x_min":174,"x_max":466,"o":"m 368 1178 l 466 1178 l 466 -50 q 408 -270 466 -191 q 268 -349 349 -349 q 196 -326 218 -349 q 174 -275 174 -302 q 192 -230 174 -248 q 233 -213 210 -213 q 272 -222 257 -213 q 300 -254 286 -232 q 332 -279 317 -279 q 360 -263 352 -279 q 368 -159 368 -247 l 368 1178 z "},"─":{"ha":990,"x_min":-12,"x_max":1002,"o":"m 1002 362 l -12 362 l -12 481 l 1002 481 l 1002 362 z "},"│":{"ha":990,"x_min":436,"x_max":555,"o":"m 436 -421 l 436 1264 l 555 1264 l 555 -421 l 436 -421 z "},"┌":{"ha":990,"x_min":436,"x_max":1003,"o":"m 1003 481 l 1003 362 l 555 362 l 555 -421 l 436 -421 l 436 481 l 1003 481 z "},"┐":{"ha":990,"x_min":-12,"x_max":554,"o":"m 435 362 l -12 362 l -12 481 l 554 481 l 554 -421 l 435 -421 l 435 362 z "},"└":{"ha":990,"x_min":436,"x_max":1003,"o":"m 436 362 l 436 1264 l 555 1264 l 555 481 l 1003 481 l 1003 362 l 436 362 z "},"┘":{"ha":990,"x_min":-12,"x_max":554,"o":"m 554 362 l -12 362 l -12 481 l 435 481 l 435 1264 l 554 1264 l 554 362 z "},"├":{"ha":990,"x_min":436,"x_max":1003,"o":"m 436 -421 l 436 1264 l 555 1264 l 555 481 l 1003 481 l 1003 362 l 555 362 l 555 -421 l 436 -421 z "},"┤":{"ha":990,"x_min":-12,"x_max":554,"o":"m 435 -421 l 435 362 l -12 362 l -12 481 l 435 481 l 435 1264 l 554 1264 l 554 -421 l 435 -421 z "},"┬":{"ha":990,"x_min":-12,"x_max":1002,"o":"m 435 362 l -12 362 l -12 481 l 1002 481 l 1002 362 l 554 362 l 554 -421 l 435 -421 l 435 362 z "},"┴":{"ha":990,"x_min":-12,"x_max":1002,"o":"m 1002 362 l -12 362 l -12 481 l 435 481 l 435 1264 l 554 1264 l 554 481 l 1002 481 l 1002 362 z "},"┼":{"ha":990,"x_min":-12,"x_max":1002,"o":"m 435 362 l -12 362 l -12 481 l 435 481 l 435 1264 l 554 1264 l 554 481 l 1002 481 l 1002 362 l 554 362 l 554 -421 l 435 -421 l 435 362 z "},"═":{"ha":990,"x_min":-12,"x_max":1002,"o":"m 1002 491 l -12 491 l -12 610 l 1002 610 l 1002 491 m 1002 233 l -12 233 l -12 352 l 1002 352 l 1002 233 z "},"║":{"ha":990,"x_min":307,"x_max":684,"o":"m 565 -421 l 565 1264 l 684 1264 l 684 -421 l 565 -421 m 307 -421 l 307 1264 l 426 1264 l 426 -421 l 307 -421 z "},"╒":{"ha":990,"x_min":436,"x_max":1003,"o":"m 436 -421 l 436 610 l 1003 610 l 1003 491 l 555 491 l 555 352 l 1003 352 l 1003 233 l 555 233 l 555 -421 l 436 -421 z "},"╓":{"ha":990,"x_min":307,"x_max":1003,"o":"m 307 -421 l 307 481 l 1003 481 l 1003 362 l 684 362 l 684 -421 l 565 -421 l 565 352 l 426 352 l 426 -421 l 307 -421 z "},"╔":{"ha":990,"x_min":307,"x_max":1002,"o":"m 426 -421 l 307 -421 l 307 610 l 1002 610 l 1002 491 l 426 491 l 426 -421 m 684 233 l 684 -421 l 565 -421 l 565 352 l 1002 352 l 1002 233 l 684 233 z "},"╕":{"ha":990,"x_min":-12,"x_max":554,"o":"m 435 233 l -12 233 l -12 352 l 435 352 l 435 491 l -12 491 l -12 610 l 554 610 l 554 -421 l 435 -421 l 435 233 z "},"╖":{"ha":990,"x_min":-12,"x_max":683,"o":"m 307 -421 l 307 362 l -12 362 l -12 481 l 683 481 l 683 -421 l 564 -421 l 564 362 l 425 362 l 425 -421 l 307 -421 z "},"╗":{"ha":990,"x_min":-12,"x_max":683,"o":"m 564 -421 l 564 491 l -12 491 l -12 610 l 683 610 l 683 -421 l 564 -421 m 307 233 l -12 233 l -12 352 l 425 352 l 425 -421 l 307 -421 l 307 233 z "},"╘":{"ha":990,"x_min":436,"x_max":1003,"o":"m 436 233 l 436 1264 l 555 1264 l 555 610 l 1003 610 l 1003 491 l 555 491 l 555 352 l 1003 352 l 1003 233 l 436 233 z "},"╙":{"ha":990,"x_min":307,"x_max":1002,"o":"m 1002 362 l 307 362 l 307 1264 l 426 1264 l 426 481 l 565 481 l 565 1264 l 684 1264 l 684 481 l 1002 481 l 1002 362 z "},"╚":{"ha":990,"x_min":307,"x_max":1002,"o":"m 426 1264 l 426 352 l 1002 352 l 1002 233 l 307 233 l 307 1264 l 426 1264 m 684 610 l 1002 610 l 1002 491 l 565 491 l 565 1264 l 684 1264 l 684 610 z "},"╛":{"ha":990,"x_min":-12,"x_max":554,"o":"m 554 233 l -12 233 l -12 352 l 435 352 l 435 491 l -12 491 l -12 610 l 435 610 l 435 1264 l 554 1264 l 554 233 z "},"╜":{"ha":990,"x_min":-12,"x_max":683,"o":"m 683 362 l -12 362 l -12 481 l 307 481 l 307 1264 l 425 1264 l 425 481 l 564 481 l 564 1264 l 683 1264 l 683 362 z "},"╝":{"ha":990,"x_min":-12,"x_max":683,"o":"m 564 1264 l 683 1264 l 683 233 l -12 233 l -12 352 l 564 352 l 564 1264 m 307 610 l 307 1264 l 425 1264 l 425 491 l -12 491 l -12 610 l 307 610 z "},"╞":{"ha":990,"x_min":436,"x_max":1003,"o":"m 436 -421 l 436 1264 l 555 1264 l 555 610 l 1003 610 l 1003 491 l 555 491 l 555 352 l 1003 352 l 1003 233 l 555 233 l 555 -421 l 436 -421 z "},"╟":{"ha":990,"x_min":307,"x_max":1003,"o":"m 565 -421 l 565 1264 l 684 1264 l 684 481 l 1003 481 l 1003 362 l 684 362 l 684 -421 l 565 -421 m 307 -421 l 307 1264 l 426 1264 l 426 -421 l 307 -421 z "},"╠":{"ha":990,"x_min":307,"x_max":1003,"o":"m 307 -421 l 307 1264 l 426 1264 l 426 -421 l 307 -421 m 565 491 l 565 1264 l 684 1264 l 684 610 l 1003 610 l 1003 491 l 565 491 m 565 -421 l 565 352 l 1003 352 l 1003 233 l 684 233 l 684 -421 l 565 -421 z "},"╡":{"ha":990,"x_min":-12,"x_max":554,"o":"m 435 233 l -12 233 l -12 352 l 435 352 l 435 491 l -12 491 l -12 610 l 435 610 l 435 1264 l 554 1264 l 554 -421 l 435 -421 l 435 233 z "},"╢":{"ha":990,"x_min":-12,"x_max":683,"o":"m 307 -421 l 307 362 l -12 362 l -12 481 l 307 481 l 307 1264 l 425 1264 l 425 -421 l 307 -421 m 564 -421 l 564 1264 l 683 1264 l 683 -421 l 564 -421 z "},"╣":{"ha":990,"x_min":-12,"x_max":683,"o":"m 564 -421 l 564 1264 l 683 1264 l 683 -421 l 564 -421 m 425 1264 l 425 491 l -12 491 l -12 610 l 307 610 l 307 1264 l 425 1264 m 307 233 l -12 233 l -12 352 l 425 352 l 425 -421 l 307 -421 l 307 233 z "},"╤":{"ha":990,"x_min":-12,"x_max":1002,"o":"m 1002 491 l -12 491 l -12 610 l 1002 610 l 1002 491 m 435 233 l -12 233 l -12 352 l 1002 352 l 1002 233 l 554 233 l 554 -421 l 435 -421 l 435 233 z "},"╥":{"ha":990,"x_min":-12,"x_max":1002,"o":"m 307 -421 l 307 362 l -12 362 l -12 481 l 1002 481 l 1002 362 l 683 362 l 683 -421 l 564 -421 l 564 352 l 425 352 l 425 -421 l 307 -421 z "},"╦":{"ha":990,"x_min":-12,"x_max":1002,"o":"m 1002 491 l -12 491 l -12 610 l 1002 610 l 1002 491 m 307 233 l -12 233 l -12 352 l 425 352 l 425 -421 l 307 -421 l 307 233 m 564 -421 l 564 352 l 1002 352 l 1002 233 l 683 233 l 683 -421 l 564 -421 z "},"╧":{"ha":990,"x_min":-12,"x_max":1002,"o":"m 1002 491 l -12 491 l -12 610 l 435 610 l 435 1264 l 554 1264 l 554 610 l 1002 610 l 1002 491 m 1002 233 l -12 233 l -12 352 l 1002 352 l 1002 233 z "},"╨":{"ha":990,"x_min":-12,"x_max":1002,"o":"m 1002 362 l -12 362 l -12 481 l 307 481 l 307 1264 l 425 1264 l 425 481 l 564 481 l 564 1264 l 683 1264 l 683 481 l 1002 481 l 1002 362 z "},"╩":{"ha":990,"x_min":-12,"x_max":1002,"o":"m 425 491 l -12 491 l -12 610 l 307 610 l 307 1264 l 425 1264 l 425 491 m 1002 491 l 564 491 l 564 1264 l 683 1264 l 683 610 l 1002 610 l 1002 491 m 1002 233 l -12 233 l -12 352 l 1002 352 l 1002 233 z "},"╪":{"ha":990,"x_min":-12,"x_max":1002,"o":"m 435 233 l -12 233 l -12 352 l 435 352 l 435 491 l -12 491 l -12 610 l 435 610 l 435 1264 l 554 1264 l 554 610 l 1002 610 l 1002 491 l 554 491 l 554 352 l 1002 352 l 1002 233 l 554 233 l 554 -421 l 435 -421 l 435 233 z "},"╫":{"ha":990,"x_min":-12,"x_max":1002,"o":"m 307 -421 l 307 362 l -12 362 l -12 481 l 307 481 l 307 1264 l 425 1264 l 425 481 l 564 481 l 564 1264 l 683 1264 l 683 481 l 1002 481 l 1002 362 l 683 362 l 683 -421 l 564 -421 l 564 362 l 425 362 l 425 -421 l 307 -421 z "},"╬":{"ha":990,"x_min":-12,"x_max":1002,"o":"m 684 610 l 1002 610 l 1002 491 l 565 491 l 565 1264 l 684 1264 l 684 610 m 307 610 l 307 1264 l 425 1264 l 425 491 l -12 491 l -12 610 l 307 610 m 307 233 l -12 233 l -12 352 l 425 352 l 425 -421 l 307 -421 l 307 233 m 684 233 l 684 -421 l 565 -421 l 565 352 l 1002 352 l 1002 233 l 684 233 z "},"▀":{"ha":990,"x_min":-12,"x_max":1002,"o":"m 1002 421 l -12 421 l -12 1264 l 1002 1264 l 1002 421 z "},"▄":{"ha":990,"x_min":-12,"x_max":1002,"o":"m 1002 -421 l -12 -421 l -12 421 l 1002 421 l 1002 -421 z "},"█":{"ha":990,"x_min":-12,"x_max":1002,"o":"m -12 -421 l -12 1264 l 1002 1264 l 1002 -421 l -12 -421 z "},"▌":{"ha":990,"x_min":-12,"x_max":495,"o":"m -12 -421 l -12 1264 l 495 1264 l 495 -421 l -12 -421 z "},"▐":{"ha":990,"x_min":495,"x_max":1002,"o":"m 495 -421 l 495 1264 l 1002 1264 l 1002 -421 l 495 -421 z "},"░":{"ha":990,"x_min":73,"x_max":1002,"o":"m 73 1264 l 157 1264 l 157 1179 l 73 1179 l 73 1264 m 410 1264 l 495 1264 l 495 1179 l 410 1179 l 410 1264 m 749 1264 l 833 1264 l 833 1179 l 749 1179 l 749 1264 m 241 1095 l 326 1095 l 326 1010 l 241 1010 l 241 1095 m 580 1095 l 664 1095 l 664 1010 l 580 1010 l 580 1095 m 918 1095 l 1002 1095 l 1002 1010 l 918 1010 l 918 1095 m 749 926 l 833 926 l 833 842 l 749 842 l 749 926 m 410 926 l 495 926 l 495 842 l 410 842 l 410 926 m 73 926 l 157 926 l 157 842 l 73 842 l 73 926 m 918 757 l 1002 757 l 1002 673 l 918 673 l 918 757 m 580 757 l 664 757 l 664 673 l 580 673 l 580 757 m 241 757 l 326 757 l 326 673 l 241 673 l 241 757 m 73 588 l 157 588 l 157 503 l 73 503 l 73 588 m 410 588 l 495 588 l 495 503 l 410 503 l 410 588 m 749 588 l 833 588 l 833 503 l 749 503 l 749 588 m 918 419 l 1002 419 l 1002 334 l 918 334 l 918 419 m 580 419 l 664 419 l 664 334 l 580 334 l 580 419 m 241 419 l 326 419 l 326 334 l 241 334 l 241 419 m 73 250 l 157 250 l 157 165 l 73 165 l 73 250 m 410 250 l 495 250 l 495 165 l 410 165 l 410 250 m 749 250 l 833 250 l 833 165 l 749 165 l 749 250 m 241 81 l 326 81 l 326 -3 l 241 -3 l 241 81 m 580 81 l 664 81 l 664 -3 l 580 -3 l 580 81 m 918 81 l 1002 81 l 1002 -3 l 918 -3 l 918 81 m 749 -88 l 833 -88 l 833 -173 l 749 -173 l 749 -88 m 410 -88 l 495 -88 l 495 -173 l 410 -173 l 410 -88 m 73 -88 l 157 -88 l 157 -173 l 73 -173 l 73 -88 m 241 -257 l 326 -257 l 326 -342 l 241 -342 l 241 -257 m 580 -257 l 664 -257 l 664 -342 l 580 -342 l 580 -257 m 918 -257 l 1002 -257 l 1002 -342 l 918 -342 l 918 -257 z "},"▒":{"ha":990,"x_min":-12,"x_max":1002,"o":"m 73 1264 l 157 1264 l 157 1179 l 73 1179 l 73 1264 m 241 1264 l 326 1264 l 326 1179 l 241 1179 l 241 1264 m 410 1264 l 495 1264 l 495 1179 l 410 1179 l 410 1264 m 579 1264 l 664 1264 l 664 1179 l 579 1179 l 579 1264 m 749 1264 l 833 1264 l 833 1179 l 749 1179 l 749 1264 m 918 1264 l 1002 1264 l 1002 1179 l 918 1179 l 918 1264 m -12 1095 l 73 1095 l 73 1010 l -12 1010 l -12 1095 m 157 1095 l 241 1095 l 241 1010 l 157 1010 l 157 1095 m 326 1095 l 410 1095 l 410 1010 l 326 1010 l 326 1095 m 495 1095 l 579 1095 l 579 1010 l 495 1010 l 495 1095 m 664 1095 l 749 1095 l 749 1010 l 664 1010 l 664 1095 m 833 1095 l 918 1095 l 918 1010 l 833 1010 l 833 1095 m 73 926 l 157 926 l 157 842 l 73 842 l 73 926 m 241 926 l 326 926 l 326 842 l 241 842 l 241 926 m 410 926 l 495 926 l 495 842 l 410 842 l 410 926 m 579 926 l 664 926 l 664 842 l 579 842 l 579 926 m 749 926 l 833 926 l 833 842 l 749 842 l 749 926 m 918 926 l 1002 926 l 1002 842 l 918 842 l 918 926 m -12 757 l 73 757 l 73 673 l -12 673 l -12 757 m 157 757 l 241 757 l 241 673 l 157 673 l 157 757 m 326 757 l 410 757 l 410 673 l 326 673 l 326 757 m 495 757 l 579 757 l 579 673 l 495 673 l 495 757 m 664 757 l 749 757 l 749 673 l 664 673 l 664 757 m 833 757 l 918 757 l 918 673 l 833 673 l 833 757 m 73 588 l 157 588 l 157 503 l 73 503 l 73 588 m 241 588 l 326 588 l 326 503 l 241 503 l 241 588 m 410 588 l 495 588 l 495 503 l 410 503 l 410 588 m 579 588 l 664 588 l 664 503 l 579 503 l 579 588 m 749 588 l 833 588 l 833 503 l 749 503 l 749 588 m 918 588 l 1002 588 l 1002 503 l 918 503 l 918 588 m -12 419 l 73 419 l 73 334 l -12 334 l -12 419 m 326 419 l 410 419 l 410 334 l 326 334 l 326 419 m 495 419 l 579 419 l 579 334 l 495 334 l 495 419 m 664 419 l 749 419 l 749 334 l 664 334 l 664 419 m 833 419 l 918 419 l 918 334 l 833 334 l 833 419 m 157 419 l 241 419 l 241 334 l 157 334 l 157 419 m 918 250 l 1002 250 l 1002 165 l 918 165 l 918 250 m 749 250 l 833 250 l 833 165 l 749 165 l 749 250 m 579 250 l 664 250 l 664 165 l 579 165 l 579 250 m 410 250 l 495 250 l 495 165 l 410 165 l 410 250 m 241 250 l 326 250 l 326 165 l 241 165 l 241 250 m 73 250 l 157 250 l 157 165 l 73 165 l 73 250 m -12 81 l 73 81 l 73 -3 l -12 -3 l -12 81 m 157 81 l 241 81 l 241 -3 l 157 -3 l 157 81 m 326 81 l 410 81 l 410 -3 l 326 -3 l 326 81 m 495 81 l 579 81 l 579 -3 l 495 -3 l 495 81 m 664 81 l 749 81 l 749 -3 l 664 -3 l 664 81 m 833 81 l 918 81 l 918 -3 l 833 -3 l 833 81 m 918 -88 l 1002 -88 l 1002 -173 l 918 -173 l 918 -88 m 749 -88 l 833 -88 l 833 -173 l 749 -173 l 749 -88 m 579 -88 l 664 -88 l 664 -173 l 579 -173 l 579 -88 m 410 -88 l 495 -88 l 495 -173 l 410 -173 l 410 -88 m 241 -88 l 326 -88 l 326 -173 l 241 -173 l 241 -88 m 73 -88 l 157 -88 l 157 -173 l 73 -173 l 73 -88 m -12 -257 l 73 -257 l 73 -342 l -12 -342 l -12 -257 m 157 -257 l 241 -257 l 241 -342 l 157 -342 l 157 -257 m 326 -257 l 410 -257 l 410 -342 l 326 -342 l 326 -257 m 495 -257 l 579 -257 l 579 -342 l 495 -342 l 495 -257 m 664 -257 l 749 -257 l 749 -342 l 664 -342 l 664 -257 m 833 -257 l 918 -257 l 918 -342 l 833 -342 l 833 -257 z "},"▓":{"ha":1014,"x_min":0,"x_max":1014,"o":"m 1014 1010 l 1014 757 l 930 757 l 930 673 l 1014 673 l 1014 419 l 930 419 l 930 334 l 1014 334 l 1014 81 l 930 81 l 930 -3 l 1014 -3 l 1014 -257 l 930 -257 l 930 -342 l 1014 -342 l 1014 -426 l 0 -426 l 0 -173 l 85 -173 l 85 -88 l 0 -88 l 0 165 l 85 165 l 85 250 l 0 250 l 0 503 l 85 503 l 85 588 l 0 588 l 0 842 l 85 842 l 85 926 l 0 926 l 0 1179 l 85 1179 l 85 1264 l 169 1264 l 169 1179 l 254 1179 l 254 1264 l 338 1264 l 338 1179 l 422 1179 l 422 1264 l 507 1264 l 507 1179 l 591 1179 l 591 1264 l 676 1264 l 676 1179 l 761 1179 l 761 1264 l 845 1264 l 845 1179 l 930 1179 l 930 1264 l 1014 1264 l 1014 1095 l 930 1095 l 930 1010 l 1014 1010 m 85 1095 l 85 1010 l 169 1010 l 169 1095 l 85 1095 m 254 1095 l 254 1010 l 338 1010 l 338 1095 l 254 1095 m 422 1095 l 422 1010 l 507 1010 l 507 1095 l 422 1095 m 591 1095 l 591 1010 l 676 1010 l 676 1095 l 591 1095 m 761 1095 l 761 1010 l 845 1010 l 845 1095 l 761 1095 m 930 926 l 845 926 l 845 842 l 930 842 l 930 926 m 761 926 l 676 926 l 676 842 l 761 842 l 761 926 m 591 926 l 507 926 l 507 842 l 591 842 l 591 926 m 422 926 l 338 926 l 338 842 l 422 842 l 422 926 m 254 926 l 169 926 l 169 842 l 254 842 l 254 926 m 85 757 l 85 673 l 169 673 l 169 757 l 85 757 m 254 757 l 254 673 l 338 673 l 338 757 l 254 757 m 422 757 l 422 673 l 507 673 l 507 757 l 422 757 m 591 757 l 591 673 l 676 673 l 676 757 l 591 757 m 761 757 l 761 673 l 845 673 l 845 757 l 761 757 m 254 588 l 169 588 l 169 503 l 254 503 l 254 588 m 338 588 l 338 503 l 422 503 l 422 588 l 338 588 m 507 588 l 507 503 l 591 503 l 591 588 l 507 588 m 676 588 l 676 503 l 761 503 l 761 588 l 676 588 m 845 588 l 845 503 l 930 503 l 930 588 l 845 588 m 85 419 l 85 334 l 169 334 l 169 419 l 85 419 m 422 419 l 422 334 l 507 334 l 507 419 l 422 419 m 338 334 l 338 419 l 254 419 l 254 334 l 338 334 m 591 419 l 591 334 l 676 334 l 676 419 l 591 419 m 761 419 l 761 334 l 845 334 l 845 419 l 761 419 m 930 165 l 930 250 l 845 250 l 845 165 l 930 165 m 761 165 l 761 250 l 676 250 l 676 165 l 761 165 m 591 165 l 591 250 l 507 250 l 507 165 l 591 165 m 422 165 l 422 250 l 338 250 l 338 165 l 422 165 m 254 165 l 254 250 l 169 250 l 169 165 l 254 165 m 85 81 l 85 -3 l 169 -3 l 169 81 l 85 81 m 254 81 l 254 -3 l 338 -3 l 338 81 l 254 81 m 422 81 l 422 -3 l 507 -3 l 507 81 l 422 81 m 591 81 l 591 -3 l 676 -3 l 676 81 l 591 81 m 761 81 l 761 -3 l 845 -3 l 845 81 l 761 81 m 930 -173 l 930 -88 l 845 -88 l 845 -173 l 930 -173 m 761 -173 l 761 -88 l 676 -88 l 676 -173 l 761 -173 m 591 -173 l 591 -88 l 507 -88 l 507 -173 l 591 -173 m 422 -173 l 422 -88 l 338 -88 l 338 -173 l 422 -173 m 254 -173 l 254 -88 l 169 -88 l 169 -173 l 254 -173 m 85 -257 l 85 -342 l 169 -342 l 169 -257 l 85 -257 m 254 -257 l 254 -342 l 338 -342 l 338 -257 l 254 -257 m 422 -257 l 422 -342 l 507 -342 l 507 -257 l 422 -257 m 591 -257 l 591 -342 l 676 -342 l 676 -257 l 591 -257 m 761 -257 l 761 -342 l 845 -342 l 845 -257 l 761 -257 z "},"■":{"ha":839,"x_min":99,"x_max":739,"o":"m 99 640 l 739 640 l 739 0 l 99 0 l 99 640 z "},"□":{"ha":839,"x_min":99,"x_max":739,"o":"m 99 640 l 739 640 l 739 0 l 99 0 l 99 640 m 151 589 l 151 52 l 688 52 l 688 589 l 151 589 z "},"▪":{"ha":493,"x_min":62,"x_max":431,"o":"m 431 643 l 431 275 l 62 275 l 62 643 l 431 643 z "},"▫":{"ha":493,"x_min":62,"x_max":431,"o":"m 431 643 l 431 275 l 62 275 l 62 643 l 431 643 m 379 591 l 114 591 l 114 326 l 379 326 l 379 591 z "},"▬":{"ha":1389,"x_min":0,"x_max":1388,"o":"m 0 477 l 1388 477 l 1388 215 l 0 215 l 0 477 z "},"▲":{"ha":1375,"x_min":206,"x_max":1169,"o":"m 206 0 l 688 962 l 1169 0 l 206 0 z "},"►":{"ha":1375,"x_min":195,"x_max":1179,"o":"m 195 961 l 1179 470 l 195 -21 l 195 961 z "},"▼":{"ha":1375,"x_min":206,"x_max":1169,"o":"m 1169 941 l 688 -21 l 206 941 l 1169 941 z "},"◄":{"ha":1375,"x_min":195,"x_max":1179,"o":"m 1179 961 l 1179 -21 l 195 470 l 1179 961 z "},"○":{"ha":833,"x_min":118,"x_max":715,"o":"m 715 392 q 628 181 715 269 q 417 93 540 93 q 206 181 294 93 q 118 392 118 269 q 206 603 118 515 q 416 690 294 690 q 628 603 541 690 q 715 392 715 515 m 664 392 q 592 567 664 494 q 417 639 519 639 q 242 566 315 639 q 170 392 170 493 q 242 218 170 291 q 417 144 315 144 q 591 217 519 144 q 664 392 664 290 z "},"●":{"ha":839,"x_min":121,"x_max":718,"o":"m 718 392 q 630 181 718 269 q 420 93 543 93 q 208 180 296 93 q 121 392 121 268 q 209 603 121 515 q 420 690 296 690 q 630 603 543 690 q 718 392 718 515 z "},"◘":{"ha":833,"x_min":84,"x_max":749,"o":"m 84 0 l 84 665 l 749 665 l 749 0 l 84 0 m 553 332 q 513 429 553 389 q 416 469 473 469 q 320 429 361 469 q 279 332 279 389 q 320 236 279 276 q 416 195 360 195 q 513 236 473 195 q 553 332 553 277 z "},"◙":{"ha":833,"x_min":26,"x_max":809,"o":"m 26 0 l 26 783 l 809 783 l 809 0 l 26 0 m 716 391 q 628 602 716 514 q 418 690 541 690 q 206 602 294 690 q 119 391 119 514 q 206 180 119 268 q 418 93 293 93 q 628 181 541 93 q 716 391 716 269 m 665 391 q 592 217 665 290 q 418 144 519 144 q 243 217 315 144 q 170 391 170 290 q 243 566 170 494 q 418 639 316 639 q 592 567 519 639 q 665 391 665 494 z "},"◦":{"ha":493,"x_min":53,"x_max":440,"o":"m 440 458 q 384 321 440 378 q 247 264 327 264 q 110 321 167 264 q 53 458 53 378 q 110 595 53 538 q 247 652 167 652 q 384 595 327 652 q 440 458 440 538 m 389 458 q 347 559 389 517 q 247 601 305 601 q 146 559 189 601 q 104 458 104 517 q 146 358 104 400 q 247 316 188 316 q 348 358 306 316 q 389 458 389 400 z "},"☺":{"ha":1418,"x_min":277,"x_max":1141,"o":"m 1141 351 q 1015 46 1141 174 q 709 -81 888 -81 q 404 46 530 -81 q 277 351 277 172 q 404 657 277 530 q 709 784 531 784 q 1015 657 888 784 q 1141 351 1141 530 m 1079 351 q 970 612 1079 504 q 709 721 861 721 q 448 612 557 721 q 340 351 340 504 q 448 91 340 199 q 709 -18 557 -18 q 970 91 861 -18 q 1079 351 1079 199 m 598 441 q 582 402 598 418 q 543 386 566 386 q 505 402 521 386 q 488 441 488 418 q 505 480 488 464 q 543 496 521 496 q 582 480 566 496 q 598 441 598 464 m 930 441 q 913 402 930 418 q 875 386 897 386 q 836 402 852 386 q 820 441 820 418 q 836 480 820 464 q 875 496 852 496 q 913 480 897 496 q 930 441 930 464 m 510 212 l 552 237 q 709 139 606 139 q 866 237 813 139 l 909 212 q 709 80 838 80 q 510 212 580 80 z "},"☻":{"ha":1461,"x_min":298,"x_max":1163,"o":"m 1163 351 q 1036 46 1163 174 q 731 -81 909 -81 q 425 46 552 -81 q 298 351 298 172 q 426 657 298 530 q 731 784 553 784 q 1036 657 909 784 q 1163 351 1163 530 m 620 441 q 604 480 620 464 q 565 496 588 496 q 526 480 543 496 q 510 441 510 464 q 526 402 510 418 q 565 386 543 386 q 604 402 588 386 q 620 441 620 418 m 951 441 q 935 480 951 464 q 897 496 919 496 q 858 480 874 496 q 842 441 842 464 q 858 402 842 418 q 897 386 874 386 q 935 402 919 386 q 951 441 951 418 m 532 212 q 731 80 602 80 q 930 212 860 80 l 888 237 q 731 139 835 139 q 574 237 627 139 l 532 212 z "},"☼":{"ha":1274,"x_min":11,"x_max":1263,"o":"m 612 1099 l 663 1099 l 663 871 q 901 776 793 866 l 1097 968 l 1132 932 l 938 738 q 1035 495 1033 619 l 1263 495 l 1263 448 l 1035 448 q 938 212 1025 319 l 1132 16 l 1093 -18 l 901 172 q 663 77 787 87 l 663 -151 l 612 -151 l 612 77 q 378 172 474 94 l 177 -18 l 144 16 l 336 212 q 239 451 252 316 l 11 451 l 11 498 l 239 498 q 336 734 248 631 l 144 929 l 177 968 l 374 776 q 612 871 496 864 l 612 1099 m 983 474 q 881 720 983 618 q 635 821 779 821 q 390 719 492 821 q 288 474 288 617 q 390 228 288 330 q 635 126 492 126 q 881 229 779 126 q 983 474 983 331 z "},"♀":{"ha":767,"x_min":60,"x_max":706,"o":"m 401 326 l 401 79 l 684 79 l 684 42 l 401 42 l 401 -229 l 364 -229 l 364 42 l 81 42 l 81 79 l 364 79 l 364 326 q 234 362 308 326 q 110 477 160 399 q 60 648 60 555 q 155 876 60 781 q 383 971 250 971 q 611 876 516 971 q 706 648 706 781 q 620 429 706 523 q 401 326 533 335 m 673 648 q 588 852 673 767 q 383 937 503 937 q 179 851 264 937 q 94 648 94 766 q 179 443 94 528 q 383 358 264 358 q 588 443 503 358 q 673 648 673 528 z "},"♂":{"ha":926,"x_min":69,"x_max":880,"o":"m 751 930 l 770 924 q 880 507 794 680 l 863 496 q 712 777 762 623 l 512 347 q 648 237 587 318 q 710 55 710 155 q 620 -151 710 -73 q 399 -230 530 -230 q 165 -139 261 -230 q 69 80 69 -48 q 158 294 69 208 q 366 381 246 381 q 481 359 417 381 l 680 790 q 370 720 534 729 l 370 738 q 543 804 481 772 q 751 930 604 836 m 360 350 q 176 273 253 350 q 98 91 98 196 q 177 -101 98 -26 q 363 -176 256 -176 q 549 -99 473 -176 q 625 83 625 -22 q 545 272 625 194 q 360 350 466 350 z "},"♠":{"ha":741,"x_min":41,"x_max":700,"o":"m 371 835 q 415 720 383 779 q 553 564 446 661 q 668 441 635 489 q 700 338 700 394 q 656 230 700 273 q 551 186 612 186 q 378 315 446 186 q 447 95 378 159 q 635 25 515 30 l 640 0 l 102 0 l 107 25 q 300 97 233 25 q 367 288 367 170 l 367 315 q 189 186 306 186 q 84 231 127 186 q 41 336 41 276 q 168 543 41 438 q 371 835 346 689 z "},"♣":{"ha":918,"x_min":41,"x_max":877,"o":"m 748 0 l 173 0 l 178 23 q 327 70 282 45 q 412 163 372 94 q 452 318 452 233 l 451 347 q 354 226 414 267 q 229 185 294 185 q 96 240 151 185 q 41 375 41 295 q 90 506 41 450 q 205 562 139 562 q 315 527 248 562 q 270 650 270 599 q 323 781 270 727 q 457 835 377 835 q 592 781 537 835 q 646 654 646 727 q 600 527 646 590 q 709 563 671 563 q 829 507 781 563 q 877 378 877 452 q 822 241 877 296 q 691 186 767 186 q 578 219 638 186 q 466 347 517 253 q 498 177 469 240 q 582 79 528 113 q 743 23 635 44 l 748 0 z "}}}
